<?xml version="1.0" encoding="UTF-8"?>
<svg id="Layer_1" data-name="Layer 1" xmlns="http://www.w3.org/2000/svg" viewBox="0 0 232.84 232.46">
  <path d="M221.05,116.24c0,8.75-1.07,17.24-3.1,25.36-.37,1.51-.78,3.01-1.23,4.49-4.01,13.53-10.7,25.92-19.44,36.55-1.06,1.3-2.16,2.57-3.29,3.81-2.08,2.3-4.26,4.51-6.54,6.61-1.13,1.05-2.28,2.07-3.46,3.05-18.23,15.45-41.82,24.76-67.57,24.76s-49.34-9.31-67.56-24.75c-1.18-.99-2.33-2.01-3.46-3.06h-.01c-2.29-2.12-4.48-4.33-6.57-6.64-1.11-1.23-2.19-2.48-3.24-3.76-8.75-10.63-15.44-23.02-19.46-36.56-.45-1.48-.86-2.98-1.23-4.49-2.03-8.12-3.1-16.62-3.1-25.37C11.79,58.45,58.64,11.61,116.42,11.61s104.63,46.84,104.63,104.63Z"/>
  <g>
    <g>
      <path d="M94.22,133.81c-1.4-.52-2.52-1.64-3.04-3.04-.65-1.75-.97-3.92,1.21-4.33,3.74-.7,12.87,7.66,11.29,8.53-1.43.79-3.76.97-9.46-1.16" style="fill: #fff;"/>
      <path d="M138.62,133.81c1.4-.52,2.52-1.64,3.04-3.04.65-1.75.97-3.92-1.21-4.33-3.74-.7-12.87,7.66-11.29,8.53,1.43.79,3.76.97,9.46-1.16" style="fill: #fff;"/>
    </g>
    <path d="M73.69,100.86s0-.01,0-.02c-7.88-3.92-26.39-12.34-37.06-4.8-13.65,9.65-4.74,18.44-4.74,18.44,0,0,3.61-22.24,33.79-6.92-6.94-.9-14.12-.53-19.19,3.02-13.32,9.32-4.23,16.58-4.23,16.58,0,0,2.59-17.07,27.17-10.16-2.65,1.06-5.04,2.45-6.94,4.26-10.99,10.55-1.54,14.34-1.54,14.34,0,0,1.51-11.67,15.13-12.79,0,0-5.57-14.79-2.39-21.95Z" style="fill: #fff;"/>
    <path d="M89.07,119.89s-.02-.08-.02-.11c-.02,0-.04,0-.06,0-.1.05-.02.08.08.11Z" style="fill: #fff;"/>
    <polygon points="88.49 115.94 88.49 115.95 88.49 115.94 88.49 115.94" style="fill: #fff;"/>
    <path d="M87.97,120.12s0,.06-.01.08c.06-.03.1-.07.15-.06,0-.02-.07-.02-.13-.02Z" style="fill: #fff;"/>
    <path d="M89.25,119.86s.07-.01.04-.04c-.03,0-.06,0-.1-.01,0,0,.02,0,.02,0,.02.02.02.04.03.05Z" style="fill: #fff;"/>
    <path d="M87.96,119.98s0,.03,0,.04h0s0-.03-.01-.04Z" style="fill: #fff;"/>
    <path d="M89.06,119.79s-.01-.01-.02-.02v.02s.02,0,.02,0Z" style="fill: #fff;"/>
    <path d="M196.21,96.16c-10.66-7.54-29.17.88-37.06,4.8,0,0,0,.01,0,.02,3.18,7.16-2.39,21.95-2.39,21.95,13.62,1.12,15.13,12.79,15.13,12.79,0,0,9.45-3.79-1.54-14.34-1.89-1.82-4.28-3.21-6.94-4.26,24.58-6.91,27.17,10.16,27.17,10.16,0,0,9.09-7.26-4.23-16.58-5.07-3.55-12.24-3.92-19.19-3.02,30.18-15.33,33.79,6.92,33.79,6.92,0,0,8.91-8.79-4.74-18.44Z" style="fill: #fff;"/>
    <path d="M153.25,98.55c2.98-2.36,5.95-6.49,5.95-13.53,0-14.1-5.74-18.35-9.29-21.28-3.55-2.93-1.18-14.88-11.23-21.19-7.19-4.51-18.58-1.56-18.58-1.56,8.75.53,8.87,13.8,8.87,13.8-7.38,1.6-9.32-.34-9.32-.34,0,9.42,3.32,15.14,8.6,15.49,8.39.55,13.02,1.7,15.23,5.49,3.55,6.12.42,8.51.42,8.51-.4.14-.84.16-1.32.08-4.88-4.12-11.34-7.33-19.82-8.41-.3,3.15-3.02,5.62-6.34,5.62v-.11c-3.32,0-6.04-2.47-6.34-5.62-8.48,1.08-14.94,4.29-19.82,8.41-.48.07-.92.06-1.32-.08,0,0-3.14-2.39.42-8.51,2.21-3.8,6.84-4.95,15.23-5.49,5.28-.34,8.6-6.07,8.6-15.49,0,0-1.94,1.94-9.32.34,0,0,.12-13.27,8.87-13.8,0,0-11.38-2.96-18.58,1.56-10.06,6.31-7.68,18.26-11.23,21.19-3.55,2.93-9.29,7.18-9.29,21.28,0,7.05,2.98,11.17,5.95,13.53-2.58,5.8.3,22.02,4.72,25.9.51.45,1.3-.03,1.11-.67-1.33-4.44,2.61-6.65,5.99-6.15.12-.08.19-.17.04-.24h.03c.13.01.3-.03.25-.06-.09-.01-.14.01-.26.03-.22-.18-.23-.22-.27-.36.19.06.17-.06.45-.06-.18-.04-.28.02-.43-.06-.02-.12.22-.23.32-.33-.24-.04-.17-.09-.46-.09,0-.13-.12-.21-.11-.37h.1c-.36-.05.19-.15-.01-.18.13,0,.18.02.28.02l-.11-.07c.11.04.45.06.49,0-.25-.06-.17.02-.38-.01l.33-.02s-.41-.06-.51,0c.01-.16-.13-.33-.06-.47l.21.02c-.07-.08-.06-.19.12-.24-.06,0-.17-.02-.24,0-.25-.09.26-.02.1-.1.05.02.09.04.18.04l-.24-.2c.15,0,.5-.12.37-.2-.08,0-.2.02-.22.04l.03.02s-.04-.01-.03-.02l-.07-.05.35-.04-.3-.08h-.07s0-.02,0-.02l.06.02h.29c-.05-.06-.42-.08-.39-.13.2-.17.29-.14.57-.26-.53-.01.03-.19-.34-.23.41-.16.19-.4.31-.61l.04.02c.23-.09-.36-.1-.25-.2l.07.02c.27-.13.05-.35-.12-.47.06.02.21.01.2-.03-.08-.03-.32.03-.23-.04.04.02.14,0,.15-.01l-.21-.07c.18-.17.35-.38.26-.56.08-.03.15,0,.22,0-.03-.14-.18-.29-.19-.42h.22c0-.08-.32-.05-.12-.14.03-.02,0,.05.1.08.18-.13-.2-.08-.15-.2l.23.03c.15-.09-.11-.11-.24-.14-.24-.13.44-.09.27-.27-.1-.03-.16,0-.26-.02.08-.13-.06-.14.02-.27.3-.07-.01.06.27,0l-.08.1c.17-.08.03.07.21.06.06-.06-.09-.16-.13-.24.13,0,0,.09.18.06l-.05-.04s.09.01.08.04c.12-.01,0-.05,0-.09-.07,0-.16,0-.25.01.01,0,.03,0,.05-.01-.17-.08-.01-.22-.13-.29.03.01.04,0,.07,0,.01-.05-.12-.1-.15-.16.09-.04.23.02.21-.08-.08-.02-.24.03-.22-.06,0,0,.05.08.12.04-.04-.09.04-.03.14-.11-.11-.05.05-.09-.13-.1.12-.03.08-.02.17-.07-.1.02-.07-.1-.18-.1.12-.02.13.09.27.02-.08-.05-.09-.14-.21-.15.04-.04.08-.05.11-.11,0,0,.01.02.02.03-.05-.1.05-.25-.05-.31.13.02.07-.22.17-.14,0-.04-.03-.11-.04-.13.08,0,.05-.11.1-.15-.03-.02,0-.1,0-.15,0,.02,0,.03.02.02,0-.05,0-.04.04-.08,0-.07-.04.01-.05-.03.03-.06.03,0,.05-.02,0-.03-.01-.06-.01-.09,0-.02.02-.03.03-.04,0,0,0-.02,0-.03h0s0,0,0,0c0-.02,0-.05.02-.08l-.02.08h0s.02-.03.02-.03c0-.03,0-.06.01-.09.02-.05.02-.08.03-.09,0,0,0,0,0,0h0s0,.01,0,.01v.05s0-.03,0-.06c0,.02.02.1.04.14.03.16-.02.03-.01.14.01.05.02.09.04.14h-.02s.01.04.02.04c-.03,0,0,.12,0,.17l.03-.02c.05.08.04.14.02.2-.02.06-.06.11-.03.18.03.03.06.06.09.09l-.07.02c.05.05.12.06.1.15-.06.15-.04.31,0,.47.03.16.09.32.03.47.03,0,.04-.01.05-.03-.15.13-.07.24.05.34.11.1.26.2.12.32l-.06-.02c.05.12-.06-.02-.15.07.2.02.17.16.26.23-.05-.01-.04-.04-.08-.06-.05.01-.17.02-.13.05.31.08.31.25.43.37-.15.02-.27.12-.53.18.06.01.18.04.3.06.01,0,.02-.01.04-.02,0,0,.01,0,.01.01-.01-.03-.02-.04-.03-.04.15-.05.12,0,.31,0,0,.04.08.13-.06.14,0,.02-.02.04-.04.07.03.02.05.03.04.05h-.02s-.04,0-.06,0c-.08.08.23.19.39.26-.26-.07-.29.02-.47.02.02,0,.02-.07.01-.18-.02,0-.05.01-.12.01-.19.09.18.15.06.28-.02,0-.07-.02-.14-.02-.05.05.1.09.22.1-.19.01-.32.11-.23.16.16.04.23.04.22.11l-.14-.03c-.1.09.17.08.11.14,0-.02-.11-.02-.13,0,.08.09.16.1.45.16h-.22c.14.07.44.22.13.22.47-.03.27.18.27.25-.02-.02-.12-.03-.17-.03.34.15.04.3.06.45l-.37.02c.02.08.77.1.76.19l-.19-.03c.08.15.05.21,0,.33h-.26c.13.04.13.1.26.14-.64.1.38.4-.35.58h.52c0,.08.11.17-.28.2v-.02c-.39,0,0,.07-.08.11.05.03.31.07.39.04-.25.19.05.46-.44.58.19.19.63.33.59.53h-.07c-.07.07-.22.2-.68.2.11.14.76.24.56.41l-.18-.04c-.09.04.14.11.19.13,0,.02-.1,0-.17,0-.16.04.1.07.14.1h-.16c-.32.12.33.34.26.52-.05-.03-.23-.02-.31,0,.54.07.42.27.54.35l-.21-.05c.36.14-.57.12-.21.27l.31-.08c-.09.06.01.11.26.09-.18.07-.41,0-.46.11-.08,0-.1-.02-.13-.03.83.56,1.48,1.36,1.8,2.44.96,3.21,5.04,7.24,7.56,10.28,2.06,2.49,5.06,4.09,8.34,4.4.04,0,.08-.02.09-.05,1.82-4.25,4.71-4.22,4.93-4.21h0s0,0,0,0v.11s0,0,0,0h0c.22,0,3.12-.04,4.93,4.21.01.04.05.06.09.05,3.28-.31,6.27-1.9,8.34-4.4,2.52-3.05,6.61-7.07,7.56-10.28.32-1.08.97-1.89,1.8-2.44-.03.01-.06.03-.13.03-.05-.1-.29-.04-.46-.11.24.01.35-.04.26-.09l.31.08c.36-.14-.56-.12-.21-.27l-.21.05c.13-.07,0-.27.54-.35-.08-.01-.26-.03-.31,0-.07-.18.58-.39.26-.53h-.16s.31-.04.14-.09c-.07,0-.16.01-.17,0,.06-.02.28-.09.19-.13l-.18.04c-.2-.17.45-.26.56-.41-.47,0-.61-.14-.68-.2h-.07c-.04-.2.4-.34.59-.52-.48-.12-.18-.39-.44-.58.08.03.34,0,.39-.04-.09-.04.31-.12-.09-.11v.02c-.38-.03-.27-.12-.28-.19h.52c-.73-.19.3-.49-.35-.59.13-.04.13-.1.26-.14h-.26c-.05-.12-.08-.18,0-.33l-.19.03c0-.09.74-.11.76-.19l-.37-.02c.02-.15-.28-.3.06-.45-.05,0-.16,0-.17.03,0-.07-.2-.27.27-.25-.31,0-.01-.15.13-.23h-.22c.29-.06.37-.06.45-.15-.02-.02-.13-.02-.13,0-.06-.06.21-.05.11-.14l-.14.03c-.01-.08.06-.07.22-.11.09-.05-.05-.15-.23-.16.12-.01.27-.05.22-.1-.07,0-.11.01-.14.02-.12-.13.25-.19.06-.28-.06,0-.1,0-.12-.01,0,.1,0,.18.01.18-.19,0-.21-.08-.47-.02.15-.07.46-.18.39-.26-.02,0-.03,0-.06-.01h-.02s0-.03.04-.04c-.03-.03-.04-.04-.04-.07-.14,0-.06-.09-.06-.14.19,0,.16-.05.31,0-.01,0-.02,0-.03.04,0,0,.01,0,.01-.01.02,0,.03.01.04.02.12-.02.25-.04.3-.06-.26-.06-.38-.16-.53-.18.12-.13.11-.3.43-.37.04-.04-.08-.04-.13-.05-.03.02-.03.05-.08.06.09-.07.06-.21.26-.23-.08-.09-.19.05-.15-.07l-.06.02c-.14-.12,0-.22.12-.32.12-.1.2-.21.05-.34.02.02.03.03.05.03-.06-.15,0-.31.03-.47.04-.16.05-.32,0-.47-.02-.09.05-.1.1-.15l-.07-.02s.06-.06.09-.09c.03-.06,0-.12-.03-.18-.02-.06-.03-.12.02-.2l.03.02c0-.06.03-.18,0-.17,0,0,.03-.02.02-.04h-.02s.03-.1.04-.14c0-.11-.05.02-.01-.14.02-.04.03-.12.04-.14,0,.02,0,.06,0,.06v-.05s0,0,0,0h0s0-.01,0,0c0,.01,0,.04.03.09,0,.03.01.06.01.09l.02.03h0s-.02-.08-.02-.08c.02.03.02.06.02.08h0s0,0,0,0c0,0,0,.02,0,.03,0,0,.02.02.03.04,0,.03,0,.06-.01.09.02.01.02-.04.05.02,0,.04-.05-.04-.05.03.03.04.05.03.04.08.02,0,.02,0,.02-.02,0,.05.03.12,0,.15.05.05.02.16.1.15-.01.01-.05.08-.04.13.09-.08.04.16.17.14-.1.06,0,.21-.05.31.01,0,.03-.02.02-.03.02.06.07.07.11.11-.12,0-.13.1-.21.15.14.07.15-.04.27-.02-.11,0-.08.12-.18.1.09.05.05.05.17.07-.18,0-.02.05-.13.1.11.08.18.02.14.11.07.04.12-.04.12-.04.03.09-.13.04-.22.06-.03.11.12.05.21.08-.02.07-.16.12-.15.16.03,0,.04.01.07,0-.12.07.03.21-.13.29.02,0,.03,0,.05.01-.09-.01-.19-.02-.25-.01,0,.04-.11.07,0,.09,0-.02.04-.03.08-.04l-.05.04c.18.04.06-.06.18-.06-.04.08-.19.17-.13.24.18.01.04-.14.21-.06l-.08-.1c.29.07-.03-.06.27,0,.08.13-.06.14.02.27-.1.03-.16,0-.26.02-.17.18.51.14.27.27-.13.03-.39.05-.24.14l.23-.03c.04.12-.33.07-.15.2.09-.02.07-.1.1-.08.2.08-.13.06-.12.12h.22c-.01.14-.16.29-.19.43.07,0,.14-.03.22,0-.09.18.08.39.26.56l-.21.07s.11.03.15.01c.09.07-.14,0-.23.04-.01.04.14.05.2.03-.17.12-.39.34-.12.47l.07-.02c.11.1-.49.11-.25.2l.04-.02c.13.21-.09.45.31.61-.38.03.19.21-.34.23.27.12.37.09.57.26.03.05-.34.07-.39.13h.29s.06-.01.06-.01v.02s-.06,0-.06,0l-.3.08.35.04-.07.05s0,.02-.03.02l.03-.02s-.14-.05-.22-.04c-.13.08.22.2.37.2l-.24.2c.09,0,.14-.02.18-.04-.16.07.35,0,.1.1-.07-.01-.18,0-.24,0,.19.05.2.16.12.24l.21-.02c.07.15-.08.31-.06.47-.1-.06-.48-.05-.51,0l.33.02c-.2.03-.13-.05-.38.01.04.06.38.04.49,0l-.11.07c.1,0,.15-.01.28-.02-.21.03.35.13-.01.17h.1c.02.17-.1.24-.11.38-.3,0-.23.05-.46.09.1.1.34.21.32.33-.15.08-.25.02-.43.06.27,0,.25.12.45.06-.04.14-.05.18-.27.36-.11-.02-.16-.04-.26-.03-.04.03.12.07.25.07h.03c-.15.07-.08.15.04.23,3.38-.51,7.32,1.71,5.99,6.15-.19.64.6,1.12,1.11.67,4.41-3.88,7.29-20.09,4.72-25.9ZM92.03,110.4s-.09.01-.13.03c0-.1.03-.02.13-.03ZM93.7,114.86v-.03s.11.07.11.07l-.11-.03ZM139.12,114.95v.03s-.09.03-.09.03l.09-.07ZM140.8,110.51c.1,0,.12-.08.13.03-.04-.01-.09-.02-.13-.03ZM145.74,90.01s0,.05.01.06l.04.04s.04-.02.08.09l-.08-.09s-.03,0-.04-.04l-.04-.04.02-.02ZM144.98,90.07l.03.11s.02.08.03.14l-.03-.14c-.07-.21-.1.37-.19.14.05-.04.08-.33.17-.25ZM138.62,91.56l.13.32-.14-.08v-.24ZM127.52,83.92c.04.12.08.4.04.35l-.12-.46.08.11ZM127.44,84.24c.04.12.03-.11.11.18.03.37-.02.4-.13.11,0,.11.05.23.07.31-.08-.22-.21-.61-.28-1.05.13.44.1.25.25.78.04.05.02-.16-.02-.34ZM127.09,83.69s.01.05.02.06l.03.04s.02-.02.06.09l-.06-.09s-.01,0-.03-.04l-.03-.04v-.02ZM126.64,83.73l.03.11s.02.08.04.14l-.04-.14c-.07-.21-.01.37-.1.13.02-.04,0-.32.07-.24ZM106.17,83.73l.03-.11c.06-.08.05.2.07.24-.08.24-.03-.34-.1-.13l-.04.14c.02-.07.03-.11.04-.14ZM105.97,83.81c.02-.05.04-.1.06-.12,0,.03-.01.05-.02.07,0,0,.02-.01.02-.02,0-.01.02-.01.03,0,0,0-.02,0-.03,0-.01.02-.03.07-.06.17,0-.04.02-.09.03-.15-.01.01-.02.03-.04.04-.06.15-.12.39-.17.54.02.22.1-.25.16-.28-.02.16-.03.26-.07.38.09-.14.15-.17.16.05,0,0-.13.27-.15.49.16-.21.3-.67.48-.9.3-.61.18.46.4.01.05-.17,0-.32.09-.41-.1.34-.02.23-.05.37.2-.49.08.14.21-.2-.04.12-.04.26-.04.38.01-.05.03-.1.05-.17l-.05.17h0c-.12.42.03.18-.23.77.27-.62.14.2.48-.76v-.13s.06.22.06.22h0s-.02-.08-.02-.16l.02.15c.03.08.07-.03,0,.42-.06.1-.09.09-.15.19-.05.39.2-.29.27-.29-.09.31-.09.09-.18.47.03.06.13-.16.2-.23l-.05.17c0,.42.28-.82.19-.23.03-.1.07-.21.09-.31-.02.19-.04.51-.17.71.04.01.12-.12.2-.31.04-.26,0-.14.08-.46l.2-.13s-.06.16-.08.16c-.1.95.6-.64.46.49.06-.28.09-.24.17-.42.04.11.16.07.16.25l-.08.18c.23-.18.44-.44.5-.3.03-.08-.09.27-.13.32.19-.32-.1.79.18.07v-.07c.1.17.45-.3.64-.35-.12.44-.11.02-.26.54.04.2.29-.12.34.07-.04.04-.05.1-.07.12,0,.32.15-.43.22-.33-.09.21-.1.26-.11.39l.16-.33c-.02.06-.12.32-.17.42.22-.43.22-.08.42-.49-.03.11-.21.5-.26.66,0,.14.1,0,.2-.16h0s0,0,0,0c.09-.22.1-.2.12-.16.04-.05.07-.05.06.03-.04.05-.05,0-.06-.03-.03.04-.07.1-.12.16,0,0,0,0,0,0-.08.31.02.3-.02.34.03.18.11-.23.28-.46v-.22s.17-.04.17-.04l-.14.19c0,.19.2-.15.27-.12l.07-.26.14-.12c-.2.5.05.15-.23.71.04.31.41-.3.56-.29-.02-.01-.06.1-.1.17.03.14.19-.1.35-.34-.08.15-.12.19-.18.33.09.04.18-.26.35-.37-.12.2-.16.31-.16.37.08-.18.16-.3.2-.35-.52.95-.07.45-.47,1.2.1-.21.45-.57.59-.98l-.06.06c.12-.27.11-.15.15-.16.05-.05.08-.07.02-.01,0,0-.01.01-.02.01-.04.04-.08.09-.11.15.29-.26.3.11.58-.06-.06.09-.21.24-.21.34.09.22.42-.25.71-.41-.3.62-.22,0-.51.59.23-.06.51-.19.86-.41-.4.93.38-.28.12.48.15-.3.26-.38.33-.36h0s0,0,0,0c.03.01.05.05.06.09l-.06-.09s0,0,0,0c-.15.23-.09.27-.2.44.2-.25.42-.28.1.29.32-.55.1.08.36-.29.01-.06.04-.14.09-.27l-.03.19s-.04.06-.06.09c-.05.25.21-.03.2.18.17-.37.18-.12.29-.25-.02.02-.07.06-.09.11-.15.32.25-.21.19,0-.05.14-.19.32-.17.37.14-.25.44-.46.31-.13-.02-.01-.09.11-.16.2.48-.29.4.35.94,0l-.3.39c-.19.61.52-.62.59-.49.19.35.12,1.06.5,1.09h0s0,0,0,0v.11s0,0,0,0h0c.38-.02.32-.74.5-1.09.08-.13.78,1.1.59.49l-.3-.39c.53.36.46-.29.94,0-.07-.09-.14-.21-.16-.2-.13-.33.17-.11.31.13.02-.05-.12-.23-.17-.37-.05-.21.34.32.19,0-.02-.05-.07-.09-.09-.11.12.13.12-.12.29.25-.01-.22.25.07.2-.18-.02-.03-.04-.05-.06-.09l-.03-.19c.05.13.08.22.09.27.26.37.04-.26.36.29-.32-.57-.1-.54.1-.29-.11-.17-.05-.2-.2-.44,0,0,0,0,0,0l-.06.09s.03-.08.06-.09h0s0,0,0,0c.07-.02.18.06.33.36-.25-.75.53.45.12-.48.35.22.63.36.86.41-.3-.59-.21.03-.51-.59.28.16.62.63.71.41,0-.1-.15-.25-.21-.34.28.17.28-.2.58.06-.03-.06-.07-.11-.11-.15,0,0-.01,0-.02-.01-.06-.06-.03-.04.02.01.04,0,.03-.11.15.16l-.06-.06c.14.41.49.78.59.98-.4-.76.05-.25-.47-1.2.04.04.12.16.2.35,0-.06-.03-.17-.16-.37.17.11.26.41.35.37-.06-.13-.1-.18-.18-.33.16.24.32.48.35.34-.04-.08-.08-.19-.1-.17.15-.01.52.6.56.29-.29-.56-.03-.21-.23-.71l.14.12.07.26c.07-.04.28.31.27.12l-.14-.19.17.04v.22c.18.23.26.64.29.46-.04-.04.06-.03-.02-.34,0,0,0,0,0,0-.04-.06-.08-.12-.12-.16-.01.03-.02.08-.06.03,0-.09.02-.08.06-.03.01-.04.03-.05.12.16h0c.1.15.2.3.2.16-.05-.17-.23-.55-.26-.66.2.41.21.05.42.49-.05-.1-.16-.37-.17-.42l.16.33c-.01-.12-.03-.18-.11-.39.07-.1.22.65.22.33-.02-.02-.03-.08-.07-.12.06-.19.3.13.34-.07-.16-.52-.14-.1-.26-.54.19.04.54.51.65.35v.07c.27.72-.02-.39.17-.07-.04-.05-.16-.4-.13-.32.06-.15.27.11.5.3l-.08-.18c0-.19.13-.15.16-.25.08.18.11.14.17.42-.14-1.14.56.46.46-.49-.02,0-.1-.15-.08-.16l.2.13c.08.33.04.2.08.46.08.18.16.32.2.31-.13-.19-.15-.52-.17-.71.02.1.06.21.09.31-.09-.6.2.64.19.23l-.05-.17c.07.08.17.29.2.23-.09-.38-.09-.16-.18-.47.07,0,.32.68.27.29-.05-.1-.09-.09-.15-.19-.06-.45-.02-.34,0-.42l.02-.15c0,.09-.01.13-.02.15h0s.05-.21.05-.21v.13c.35.96.21.14.48.76-.26-.58-.11-.35-.23-.77h0s-.05-.17-.05-.17c.02.07.04.12.05.17,0-.12,0-.27-.04-.38.14.33.02-.29.21.2-.03-.14.05-.03-.05-.37.09.09.04.24.09.41.22.45.1-.62.4-.01.19.24.32.7.48.9-.01-.23-.15-.49-.15-.49.02-.22.07-.19.16-.05-.04-.12-.05-.22-.07-.38.06.03.14.5.16.28-.04-.15-.11-.39-.17-.54-.01-.02-.03-.03-.04-.04.01.06.03.11.03.15-.03-.1-.04-.15-.06-.17,0,0-.02,0-.03,0,0-.02.02-.02.03,0,0,0,.02,0,.02.02,0-.03-.01-.05-.02-.07.02.02.04.06.06.12.08.11.2.36.28.47-.04-.24-.11-.36-.17-.51.09.09.22.18.32.56v.11s0,.04-.01.04v-.04c0-.09-.06-.31-.09-.36-.12-.29-.05.15-.02.29l.06.08c.13.82-.19-.09-.26-.03l.16.58-.19-.47c.02.16.08.49.14.57,0,.3-.1-.2-.07.14,0,.05.02.08.03.1l-.1-.16c.04.12.09.42.1.32-.02.36-.26-.4-.2.05l.02.03c-.19-.17-.11-.43-.34-.91l.19,1.08-.12-.43s-.03.06.02.23c-.13-.28-.04-.19-.14-.46.03.41-.24-.14-.08.55-.11-.32,0-.27-.13-.48.17.74-.12-.11-.09.25.12.37.12.16.15.51-.2-.63-.08.17-.17.06.02.08.04.16.07.28,0,.02-.12-.37-.17-.54.05.16.08.24.1.26-.14-.51-.17-.19-.31-.34.05.17-.09.32-.12.52l.03.08c-.16-.51-.22-.39-.31-.47.09.31.14.42.21.55l-.06.02c.02.05.04.11.07.18l-.08-.18h.01c-.06-.16-.1-.24-.16-.29l.13.38c-.08,0-.28-.4-.3-.12-.11-.35-.22-1.01-.4-1.22.05.19.15.52.2.59-.02-.02-.08-.15-.07-.06l.14.31c0,.16-.11-.26-.13-.22.09.27.03.2.11.42.02.02,0-.12.04-.02-.02.06-.02.24.03.45.02.06.03.11.04.14-.02-.05-.03-.1-.04-.14-.05-.16-.11-.37-.15-.39-.08,0,.08.34.08.49-.08-.18-.06.03-.19-.38-.02,0,.04.2.06.31-.1-.17-.2,0-.29-.44h0s0-.02-.01-.05c-.26-.36-.19.31-.37.18l.05.14c-.13-.13-.2-.04-.36-.31-.02,0,.03.26.1.42-.09-.08-.15-.23-.16.02.14.22.06.21.12.15-.03.14.03.36-.18.02.15.34.1.45.03.36l-.04-.26c-.06-.04-.08,0-.11.04l.19.45c.06.6-.62-.83-.38.13-.16-.3,0-.25-.18-.61-.05.09.14.76.12.77,0,.28-.35-.62-.38-.41-.05-.16-.21-.6-.35-.72-.05.09.19.7.28.81.02,0,0-.05-.01-.1-.02-.02-.05-.05-.06-.09.02,0,.04.05.06.09.05.05.1.11.15.29l-.07-.16c.03.18-.07.2.06.45-.11-.13-.13-.25-.13-.35,0,.26-.13.06-.16.25.01.04.01.07,0,.04,0-.02,0-.02,0-.04-.02-.09-.09-.29-.1-.28-.05.25-.18-.28-.3-.31.05.26.27.57.09.4.02.18.17.42.25.55-.21-.27-.06.26-.08.33l.1.11c-.06-.07-.08-.06-.1-.05l-.12-.33c0,.06-.02.07.04.21-.12-.2-.21-.53-.39-.8.04.17-.18-.13,0,.29.04-.17.16.33.27.43-.02,0-.03,0-.03.05.02.05.04.09.06.11,0,0,0,0,0,0,.03.04.02.03,0,0,.07.41-.26-.45-.36-.4.12.23.18.45.14.41.04-.02-.16-.4-.28-.56.02.21-.14-.11-.16-.07v.06s0-.05,0-.06v-.1c-.12-.23-.14-.18-.22-.24.08.18.1.11.12.19-.24-.39.09.48-.11.24.04.17.21.44.23.56-.22-.26.07.36-.13.15-.13-.32-.09-.25-.29-.53l.24.15-.31-.41s.18.15.18.09c-.16-.24-.12-.16-.23-.43.17.5-.24-.22-.16.13l.38.77c.07.39-.37-.31-.4-.06l-.03-.15c-.17-.3-.1,0-.2-.11.13.25.16.36.22.53.02.04.04.08.07.17-.03-.07-.05-.12-.07-.17-.1-.19-.08.06-.36-.44l.12.36c-.03.19-.5-.67-.55-.54.18.26.23.46.4.63-.03.02-.04.08-.13-.1.07.17-.27-.3-.17-.04.02.03.04.05.04.04,0,.02,0,.04-.02.01,0-.02-.01-.03-.02-.05-.07-.1-.22-.37-.25-.33.02.05.07.12.07.12-.07-.12-.15-.14-.27-.44.33.84-.32.08-.03.81h.03s0,.08,0,.08c-.01-.03-.02-.05-.03-.08-.12-.05-.25-.08-.32-.06.05.07.07.12.07.09.05.28-.47-.69-.42-.37.18.43.18.19.24.36.46.83-.18-.04.03.47l.04.04c.11.3-.31-.24-.35-.13,0,0,.05.07.07.12-.31-.38-.5-.46-.65-.52.22.3.14.15.32.48-.06-.03-.31-.52-.44-.57.08.19.12.37.33.71l.08-.02c.24.46-.1.03-.08.13l.13.19c-.14,0-.45-.49-.54-.39l-.08-.15c-.37-.44.12.3-.17-.02l.3.5c-.11-.09-.44-.38-.57-.42.28.33.48.46.66.64-.04.03-.15.05-.33-.18.05.04.14.14.11.06-.29-.35-.48-.49-.55-.43.63.92-.04.37.39,1.12-.37-.25-.16.32-.35.36-.45-.74-.06,0-.57-.72-.07-.02-.07,0-.05.05v-.03s0,.03,0,.04c.09.13.44.48.52.71-.16-.33-.36-.33-.52-.71h0s.2.5.2.5c.13.23.15.14.26.3-.04.11.19.33.28.55-.18-.27-.3-.35-.27-.23l-.18-.37c-.39-.31.35.66-.04.36l.2.2c-.15-.09-.19.15-.68-.38.05.09.19.29.25.33-.06.18-.75-.39-.58.03l.15.16c-.06-.03-.3-.29-.19-.1.06.07.15.16.14.18-.06-.05-.3-.25-.26-.13l.18.17c.03.19-.17.04-.38-.12h0s0,0,0,0v-.11s0,0,0,0h0c-.21.17-.41.31-.38.13l.18-.17c.05-.12-.2.08-.26.13,0-.02.08-.11.14-.18.11-.2-.13.06-.19.1l.15-.16c.17-.42-.52.15-.58-.03.06-.03.2-.24.25-.33-.49.53-.52.29-.68.38l.2-.2c-.38.3.35-.67-.04-.36l-.18.37c.03-.13-.09-.04-.27.23.09-.22.32-.45.28-.55.11-.16.14-.07.26-.3l.2-.5h0c-.16.38-.36.38-.52.71.08-.23.43-.58.52-.71,0-.01,0-.02.02-.04v.03s0-.07-.06-.05c-.51.73-.12-.02-.57.72-.19-.04.02-.61-.35-.36.43-.75-.24-.2.39-1.12-.07-.06-.26.09-.55.43-.03.08.06-.02.11-.06-.18.22-.29.2-.33.18.19-.18.39-.31.66-.64-.13.04-.46.33-.57.42l.3-.5c-.29.32.2-.42-.17.02l-.08.15c-.09-.1-.4.38-.54.39l.13-.19c.01-.1-.32.33-.08-.13l.08.02c.21-.34.25-.52.33-.71-.13.05-.37.54-.44.57.18-.33.1-.17.32-.48-.15.07-.34.14-.65.52.03-.05.07-.12.07-.12-.05-.11-.47.44-.35.13l.04-.04c.21-.51-.43.36.03-.47.06-.17.05.07.24-.36.05-.32-.46.65-.42.37,0,.03.02-.02.07-.09-.07-.02-.2.02-.32.06-.01.03-.02.05-.03.08v-.07s.03-.01.03-.01c.29-.73-.36.03-.03-.81-.12.3-.2.31-.27.44,0,0,.04-.07.07-.12-.03-.04-.17.22-.25.33,0,.01-.01.03-.02.05-.03.03-.03.01-.02-.01,0,.02.02,0,.04-.04.1-.26-.24.21-.17.04-.09.18-.1.12-.13.1.17-.17.22-.37.4-.63-.05-.13-.52.72-.55.54l.12-.36c-.27.5-.26.25-.36.44-.02.05-.04.1-.07.17.03-.08.05-.13.07-.17.06-.17.09-.27.22-.53-.1.1-.03-.19-.2.11l-.03.15c-.03-.25-.47.45-.4.06l.38-.77c.09-.35-.33.37-.16-.13-.1.27-.06.19-.23.43,0,.06.14-.11.18-.09l-.31.41.24-.15c-.21.28-.16.2-.29.53-.2.21.09-.41-.13-.15.02-.12.19-.39.23-.56-.2.24.13-.62-.11-.24.02-.09.04,0,.12-.19-.08.05-.1,0-.22.24v.1s0,.02,0,.06v-.06s-.18.28-.16.07c-.12.16-.32.54-.28.56-.04.04.02-.18.14-.41-.1-.05-.43.82-.36.4-.02.02-.03.03,0,0,0,0,0,0,0,0,.02-.02.04-.06.06-.11,0-.05-.01-.06-.03-.05.11-.11.23-.6.27-.43.18-.42-.04-.12,0-.29-.18.26-.27.6-.39.8.06-.13.04-.14.04-.21l-.12.33s-.04-.02-.1.05l.1-.11c-.02-.07.13-.61-.08-.33.08-.12.23-.36.25-.55-.18.17.04-.14.09-.4-.12.03-.26.56-.3.31-.01,0-.08.18-.1.28,0,.01,0,.02,0,.04-.02.03-.02,0,0-.04-.02-.19-.16.02-.16-.25,0,.1-.01.22-.13.35.13-.25.03-.27.06-.45l-.07.16c.04-.18.1-.24.15-.29.02-.04.04-.08.06-.09-.01.04-.03.06-.06.09-.02.05-.04.11-.01.1.09-.11.33-.73.28-.81-.14.12-.3.55-.35.72-.03-.21-.38.7-.38.41-.02,0,.16-.68.12-.77-.18.35-.02.31-.18.61.24-.96-.44.47-.38-.13l.19-.45s-.05-.08-.11-.04l-.04.26c-.07.09-.12-.02.03-.36-.21.34-.15.12-.18-.02.07.06-.02.06.12-.15,0-.25-.06-.1-.16-.02.07-.16.12-.41.1-.42-.16.27-.23.18-.36.31l.05-.14c-.18.13-.11-.54-.37-.18,0,.03,0,.04-.01.06h0c-.1.44-.2.26-.29.43.03-.11.08-.3.06-.31-.13.41-.12.2-.19.38,0-.15.16-.49.08-.49-.04.03-.11.24-.15.39-.01.04-.02.09-.04.14,0-.03.02-.08.04-.14.05-.21.05-.39.03-.45.05-.1.03.04.04.02.07-.22.02-.15.11-.42-.03-.04-.13.38-.13.22l.14-.31c0-.09-.06.04-.07.06.05-.07.15-.4.2-.59-.18.2-.29.87-.4,1.22-.02-.28-.22.12-.3.12l.13-.38c-.05.05-.1.13-.16.29h.01s-.08.18-.08.18c.03-.07.05-.13.07-.18l-.06-.02c.07-.13.12-.24.21-.55-.09.09-.15-.04-.31.47l.03-.08c-.03-.2-.17-.35-.12-.52-.13.15-.17-.17-.31.34.02-.03.05-.1.1-.26-.05.17-.16.56-.17.54.03-.12.05-.21.07-.28-.08.11.04-.69-.17-.06.03-.35.03-.14.15-.51.02-.35-.26.49-.09-.25-.13.21-.02.16-.13.48.16-.69-.11-.14-.08-.55-.1.27-.01.18-.14.46.05-.17.03-.21.02-.23l-.12.43.19-1.08c-.23.48-.16.74-.34.91l.02-.03c.07-.45-.18.31-.2-.05.01.09.06-.2.1-.32l-.1.16s.02-.05.03-.1c.02-.34-.08.17-.07-.14.06-.08.12-.41.14-.57l-.19.47.16-.58c-.07-.07-.4.85-.26.03l.06-.08c.03-.14.09-.58-.02-.29-.03.05-.08.27-.09.36v.04s0-.01,0-.04v-.11c.09-.38.22-.46.31-.56-.05.15-.13.27-.17.51.08-.11.2-.36.28-.47ZM109.86,84.76l-.04.23-.1.08.14-.31ZM122.98,84.88l.14.31-.1-.08-.04-.23ZM126.67,86.12c0,.48-.06-.35-.17-.26l.07-.14c.02.16.05.37.1.39ZM126.33,86.46c-.07-.13-.09-.16-.08-.31.07.06.06.22.08.31ZM124.66,86.33v.16c-.05-.15-.01-.12,0-.16ZM124.23,87.13c-.06-.04-.05-.14-.13-.35l.13.35ZM123.75,87.72l-.11-.1.08.06.04.04ZM120.31,89.03l-.21-.41c.06.06.32.51.21.41ZM118.69,89.42c.11.2.15.35,0,.17.01-.04-.05-.21,0-.17ZM116.42,92.18v-.11s0,0,0,0h0c-.06.02-.11,0-.13-.03l.06-.07c0-.06.02-.14.08-.27v.11c.06.13.07.21.08.27l.06.07s-.07.05-.13.04h0s0,0,0,0ZM114.15,89.48c-.15.18-.11.03,0-.17.05-.04-.02.13,0,.17ZM112.74,88.51l-.21.41c-.11.1.15-.35.21-.41ZM109.2,87.5l-.11.1.04-.04.08-.06ZM108.74,86.66c-.08.21-.07.31-.13.35l.13-.35ZM108.18,86.38v-.16s.05.01,0,.16ZM106.59,86.04c0,.14-.01.18-.08.31.03-.09.01-.25.08-.31ZM106.34,85.75c-.11-.09-.16.74-.17.26.05-.03.08-.24.1-.39l.07.14ZM105.7,83.68l.03-.04s0-.04.02-.06v.02s-.02.04-.02.04c-.01.04-.02.05-.03.04l-.06.09c.03-.11.04-.1.06-.09ZM105.38,84.46c.15-.53.12-.34.25-.78-.07.44-.19.83-.28,1.05.02-.09.06-.21.07-.31-.12.29-.16.26-.13-.11.08-.29.07-.06.11-.18-.04.17-.06.38-.02.34ZM105.31,83.81l.08-.11-.12.46s0-.23.04-.35ZM94.23,91.69l-.14.08.13-.32v.24ZM87.83,90.07l.03-.11c.09-.08.12.21.17.25-.09.24-.12-.35-.19-.14l-.03.14c.01-.07.02-.12.03-.14ZM87.04,90l.04-.04s0-.04.01-.06l.02.02-.04.04s-.02.05-.04.04l-.08.09c.03-.11.06-.1.08-.09ZM86.41,90.47c-.06.05-.04-.23,0-.36l.11-.11-.11.47ZM86.46,90.62c.07-.29.11-.06.15-.18-.03.17-.02.39.04.34.15-.53.14-.34.27-.78-.02.44-.16.83-.26,1.05.02-.09.06-.21.05-.32-.14.29-.23.26-.25-.12ZM88.36,92.4c.09-.02.08-.24.08-.4l.15.15c-.22-.11-.1.75-.24.25ZM89.02,92.78c.02-.09-.04-.26.07-.31.04.15.02.18-.07.31ZM91.91,92.96l-.05-.17s.09.02.05.17ZM92.85,93.69l.11-.35c-.07.22-.02.32-.11.35ZM93.63,100.03c.04-.08.11-.19.13-.29-.2.25-.28.2-.19-.17.14-.27.11-.03.18-.14-.08.16-.12.37-.05.34.28-.48.22-.3.46-.7-.14.42-.37.77-.52.96ZM93.66,99.07l.13-.09-.22.43c-.07.03.03-.23.1-.34ZM93.87,94.38l.05-.04.11-.05-.15.09ZM94.8,101.69c.08,0,.14-.21.18-.37l.1.18c-.17-.15-.3.7-.28.19ZM95.3,102.21c.04-.08.03-.26.14-.28,0,.15-.03.18-.14.28ZM97.85,103v-.17s.08.04,0,.17ZM98.49,103.91l.2-.32c-.12.19-.11.3-.2.32ZM99.21,104.79l.05-.03.11-.03-.17.06ZM104.3,108.07c-.15.06.19-.33.28-.37l-.28.37ZM106.62,109.61c-.19.13-.14-.02,0-.21.06-.02-.02.15,0,.21ZM111.21,115.61l.16-.05v.05s-.16,0-.16,0ZM121.46,115.73v-.05s.16.05.16.05h-.16ZM126.22,109.72c.02-.06-.06-.23,0-.21.14.19.18.34,0,.21ZM128.53,108.18l-.28-.37c.09.04.43.43.28.37ZM133.46,104.85l.11.03.05.03-.17-.06ZM134.14,103.71l.2.32c-.09-.01-.07-.12-.2-.32ZM134.98,102.95v.17c-.08-.13-.02-.12,0-.17ZM137.39,102.04c.11.03.1.21.14.28-.11-.11-.14-.13-.14-.28ZM137.75,101.62l.1-.18c.04.15.1.36.18.37.02.51-.11-.34-.28-.19ZM138.87,99.97v-.04c-.02-.08-.13-.29-.17-.33-.21-.25-.07.17-.01.31l.1.06c.27.79-.3-.02-.4.08l.3.53-.33-.41c.04.15.16.47.26.53.04.31-.17-.16-.1.17.01.05.03.08.05.09l-.16-.13c.07.11.16.39.18.29,0,.38-.43-.31-.3.13l.03.03c-.3-.1-.21-.39-.59-.8l.36,1.04-.21-.39s-.04.07.04.23c-.21-.24-.07-.18-.24-.42.07.41-.37-.04-.08.61-.18-.29-.01-.28-.23-.44.3.7-.18-.06-.13.3.2.34.2.11.26.47-.35-.57-.12.22-.25.14.04.07.07.15.12.26-.01.03-.2-.34-.29-.49.09.15.14.21.17.23-.24-.47-.27-.12-.48-.21.09.15-.12.38-.15.6l.04.08c-.27-.47-.35-.31-.49-.36.15.28.23.39.34.49l-.09.04s.07.1.11.16l-.13-.15h.02c-.1-.15-.17-.22-.25-.24l.21.34c-.12.04-.45-.3-.47.01-.19-.32-.37-.98-.65-1.11.09.18.25.49.33.54-.03-.02-.13-.12-.11-.03l.22.27c0,.17-.17-.23-.21-.18.14.25.06.2.17.4.03.02-.01-.13.06-.04-.04.08-.03.26.05.47.03.05.05.1.06.13-.02-.04-.04-.09-.06-.13-.07-.15-.19-.34-.25-.35-.12.04.13.32.13.49-.12-.16-.1.06-.31-.32-.03.02.06.2.1.31-.15-.14-.3.09-.46-.34h0s0-.02-.02-.05c-.41-.28-.28.42-.56.37l.07.12c-.19-.08-.3.06-.54-.17-.03.02.06.27.16.41-.14-.05-.23-.18-.23.09.22.17.09.21.18.11-.05.17.05.38-.27.11.23.29.16.44.05.38l-.06-.27c-.09-.01-.12.04-.16.1l.28.4c.09.62-.93-.62-.57.32-.24-.25,0-.27-.27-.58-.07.12.2.77.17.79,0,.31-.51-.52-.56-.27-.08-.16-.31-.56-.51-.62-.07.12.27.68.41.76.03,0,.01-.06-.02-.1-.04-.02-.07-.03-.09-.07.03,0,.06.03.09.07.07.03.15.07.21.25l-.11-.14c.05.18-.1.25.09.47-.17-.09-.19-.22-.18-.33,0,.29-.2.13-.24.35.01.04.02.07,0,.04,0-.02,0-.03,0-.04-.03-.09-.13-.27-.15-.26-.08.3-.27-.22-.44-.2.07.27.38.5.13.41.02.2.24.39.35.49-.31-.2-.1.33-.13.42l.14.07c-.08-.04-.11-.02-.14,0l-.16-.31c0,.07-.03.09.05.21-.17-.16-.3-.49-.55-.7.05.18-.26-.06-.01.33.06-.21.22.28.37.36-.02,0-.04.03-.04.08.02.05.06.07.09.09,0,0,0,0,0,0,.05.02.03.03,0,0,.09.43-.37-.38-.51-.27.17.2.25.42.19.39.06-.04-.22-.37-.39-.5.02.23-.19-.05-.23,0v.07s0-.06,0-.07v-.12c-.17-.2-.2-.14-.31-.16.11.17.14.07.17.16-.35-.32.11.5-.18.32.06.18.28.4.31.52-.31-.19.09.37-.2.24-.17-.3-.12-.24-.41-.45l.35.05-.43-.32c.06-.05.26.08.26.01-.23-.18-.17-.12-.32-.37.23.48-.35-.13-.23.23l.52.69c.09.41-.52-.17-.57.13l-.03-.16c-.23-.25-.14.04-.29-.02.18.22.21.33.29.49.03.03.05.08.09.15-.04-.06-.07-.11-.09-.15-.13-.17-.12.11-.49-.33l.15.36c-.05.23-.68-.52-.76-.33.24.21.3.42.54.52-.04.04-.05.11-.18-.04.09.16-.37-.2-.25.04.03.03.05.04.06.02,0,.02,0,.04-.03.03-.01-.02-.02-.03-.02-.04-.1-.08-.3-.31-.34-.25.03.05.09.11.09.11-.09-.11-.21-.09-.36-.37.43.81-.45.26-.08.96.01,0,.02,0,.04,0v.07s-.02-.05-.04-.07c-.16,0-.34.04-.45.1.06.06.09.11.09.07.05.31-.62-.57-.57-.22.23.41.24.13.31.3.6.73-.26.04.01.54l.06.02c.14.3-.42-.12-.49.03,0,0,.06.06.1.11-.41-.3-.67-.28-.87-.28.29.24.18.1.42.4-.09,0-.39-.46-.57-.45.1.18.15.37.42.68l.11-.07c.31.43-.13.09-.12.2l.16.16c-.19.07-.59-.35-.72-.18l-.1-.14c-.48-.34.15.3-.23.06l.37.44c-.15-.05-.58-.23-.76-.21.36.26.62.31.87.43-.05.05-.21.14-.44-.04.06.02.19.1.15.01-.38-.27-.63-.34-.73-.23.81.78-.08.47.45,1.16-.48-.12-.25.47-.5.64-.55-.68-.08.04-.72-.59-.09.01-.1.04-.06.08l-.02-.04s.01.03.02.04c.11.12.56.35.65.6-.2-.32-.46-.21-.65-.6h0s.24.52.24.52c.15.22.19.09.33.23-.06.15.23.31.33.54-.22-.23-.37-.28-.34-.13l-.22-.37c-.5-.17.42.64-.08.47l.26.14c-.2-.04-.27.29-.88-.11.06.08.23.27.31.28-.1.26-.98-.08-.78.36l.18.13c-.08,0-.37-.21-.25-.02.07.06.18.13.17.15-.08-.03-.38-.15-.33-.02l.22.12c.05.38-.72-.1-.98-.03.5.42.52.7.54.84l.07.06c-.14.27-.74.04-1.12.1.44.57-.15.63,0,1.08-.07-.1-.41-.3-.49-.3.06.13-.47-.13.01.22v-.02c.44.39.23.4.18.49l-.63-.45c.74.88-.78.32-.04,1.04-.2-.06-.24,0-.44-.05l.34.24c-.02.21-.03.31-.25.43l.27.13c-.05.11-1.08-.55-1.17-.47l.49.38c-.14.18.19.66-.41.52.08.05.23.14.27.13-.05.09.13.56-.57.06.47.31-.08.22-.36.19l.36.21c-.5-.2-.62-.27-.83-.23.02.05.19.16.21.13.05.14-.38-.15-.28.07l.25.1c-.04.11-.15.03-.45-.08-.18-.03-.03.24.28.45-.2-.11-.49-.21-.44-.1.12.08.2.1.25.12.14.31-.57,0-.29.32.12.07.17.11.2.14.07-.13.12-.25.09-.25.32.2.32.33.82.52-.3-.07-.92-.24-.83-.05.03.02.06.05.11.08h.04c.02.05-.02.06-.09.04.03.06.06.11.05.14.26.17.07.2.06.26-.36-.21-.34-.11-.6-.35.02.02.05.01.09-.01-.01,0-.03,0-.04,0-.03-.03-.05-.05-.07-.07-.25-.11-.5-.21-.63-.26.46.36.65.65.94.85-.3.04-.35.3-1.1.03-.12,0,.17.16.26.24.08.01.09-.03.2.01-.23,0-.23.24-.72,0,.15.23.48.17.31.29l.16.06c.6.72-1.53-.12-.72.75-.05-.06-.07-.08-.15-.13.11.29-.07.45-.24.62v-.11c-.17-.16-.35-.33-.24-.62-.08.05-.1.07-.15.13.81-.87-1.32-.03-.72-.75l.16-.06c-.17-.12.16-.06.31-.29-.49.24-.49,0-.72,0,.11-.04.11,0,.2-.01.1-.08.38-.24.26-.24-.75.27-.8.02-1.1-.03.3-.19.49-.49.94-.85-.12.05-.38.15-.63.26-.02.02-.04.04-.07.07,0,0-.02,0-.04,0,.04.03.06.03.09.01-.26.24-.24.13-.6.35-.02-.06-.21-.09.06-.26-.01-.03.01-.08.05-.14-.07.01-.11,0-.09-.03h.04s.08-.07.11-.09c.09-.19-.54-.02-.83.05.5-.19.49-.32.82-.52-.03,0,.02.12.09.25.03-.03.08-.07.2-.14.28-.32-.43,0-.29-.32.04-.01.13-.04.25-.12.05-.11-.24,0-.44.1.31-.21.46-.47.28-.45-.3.11-.41.19-.45.08l.25-.1c.1-.22-.33.07-.28-.07.01.02.18-.08.21-.13-.2-.04-.33.03-.83.23l.36-.21c-.27.03-.82.12-.36-.19-.7.5-.52.03-.57-.06.04.02.2-.08.27-.13-.6.14-.27-.35-.41-.52l.49-.38c-.09-.08-1.12.59-1.17.47l.27-.13c-.22-.12-.23-.22-.25-.43l.34-.24c-.2.06-.24,0-.44.05.73-.71-.78-.15-.04-1.04l-.63.45c-.05-.09-.26-.1.18-.49v.02c.49-.35-.05-.09.02-.22-.08,0-.42.2-.49.3.14-.46-.45-.51,0-1.08-.38-.06-.99.17-1.12-.1l.07-.06c.01-.14.04-.43.54-.84-.26-.07-1.03.41-.98.03l.22-.12c.05-.13-.25,0-.33.02,0-.02.1-.1.17-.15.12-.19-.16.01-.25.02l.18-.13c.19-.44-.69-.1-.78-.36.08,0,.25-.19.31-.28-.61.4-.68.08-.88.11l.26-.14c-.5.17.42-.65-.08-.47l-.22.37c.03-.14-.12-.1-.34.13.1-.23.39-.39.33-.54.14-.14.18-.02.33-.23l.24-.52h0c-.19.39-.45.28-.65.6.09-.25.54-.48.65-.6,0-.01.01-.02.02-.04l-.02.04s.03-.07-.06-.08c-.64.63-.16-.09-.72.59-.26-.17-.02-.76-.5-.64.54-.69-.35-.37.45-1.16-.1-.11-.35-.03-.73.23-.04.08.09,0,.15-.01-.23.18-.39.09-.44.04.25-.12.52-.17.87-.43-.17-.02-.6.16-.76.21l.37-.44c-.38.23.25-.4-.23-.06l-.1.14c-.13-.17-.52.25-.72.18l.16-.16c.01-.11-.43.22-.12-.2l.11.07c.26-.31.31-.5.42-.68-.17-.01-.48.46-.57.45.23-.3.13-.15.42-.4-.2,0-.46-.02-.87.28.03-.05.1-.11.1-.11-.08-.15-.63.28-.49-.03l.06-.02c.27-.5-.59.19.01-.54.07-.17.08.11.31-.3.05-.35-.62.53-.57.22,0,.04.03-.01.09-.07-.1-.06-.29-.09-.45-.1-.01.02-.03.05-.04.07v-.07s.03,0,.04,0c.37-.69-.51-.15-.08-.96-.16.28-.27.26-.36.37,0,0,.06-.06.09-.11-.04-.06-.24.17-.34.25,0,.01-.01.03-.02.04-.04.02-.04,0-.03-.03,0,.02.03,0,.06-.02.13-.25-.33.12-.25-.04-.13.16-.14.08-.18.04.23-.1.3-.31.54-.52-.08-.19-.71.56-.76.33l.15-.36c-.37.44-.37.16-.49.33-.02.05-.05.1-.09.15.04-.08.07-.12.09-.15.08-.16.11-.27.29-.49-.15.07-.06-.23-.29.02l-.03.16c-.05-.31-.67.27-.57-.13l.52-.69c.11-.35-.46.25-.23-.23-.14.25-.09.19-.32.37,0,.07.2-.06.26-.01l-.43.32.35-.05c-.29.21-.23.15-.41.45-.29.14.12-.42-.2-.24.03-.13.26-.35.31-.52-.28.17.17-.64-.18-.32.03-.09.06,0,.17-.16-.12.02-.15-.04-.32.16v.12s.01.03,0,.07v-.07c-.04-.05-.25.23-.23,0-.17.12-.45.45-.39.5-.06.03.02-.2.19-.39-.15-.11-.6.7-.51.27-.03.02-.05.02,0,0,0,0,0,0,0,0,.03-.02.06-.04.09-.09,0-.05-.02-.07-.04-.08.16-.07.32-.56.37-.36.25-.39-.06-.16-.01-.33-.25.2-.39.54-.55.7.08-.12.05-.14.05-.21l-.16.31s-.06-.04-.14,0l.14-.07c-.03-.09.18-.62-.13-.42.11-.1.33-.29.35-.49-.25.1.05-.14.13-.41-.17-.02-.37.49-.44.2-.02-.01-.11.17-.15.26,0,.01,0,.02,0,.04-.03.03-.02,0,0-.04-.04-.22-.25-.06-.24-.35,0,.11-.02.24-.18.33.19-.22.04-.29.09-.47l-.11.14c.06-.18.15-.22.21-.25.02-.04.06-.07.09-.07-.02.04-.05.05-.09.07-.03.05-.05.1-.02.1.14-.08.48-.64.41-.76-.2.07-.43.47-.51.62-.05-.24-.57.58-.56.27-.03-.02.24-.67.17-.79-.26.3-.03.33-.27.58.36-.94-.66.3-.57-.32l.28-.4c-.04-.06-.07-.11-.16-.1l-.06.27c-.11.06-.18-.09.05-.38-.32.27-.23.06-.27-.11.1.1-.03.06.18-.11,0-.27-.09-.14-.23-.09.1-.14.19-.39.16-.41-.24.22-.34.09-.54.17l.07-.12c-.28.05-.15-.65-.56-.37-.01.02-.01.04-.02.06h0c-.16.42-.31.19-.46.33.04-.11.13-.29.1-.31-.21.38-.18.16-.31.32,0-.16.26-.45.13-.49-.06.01-.17.2-.25.35-.02.04-.04.09-.06.13.01-.03.03-.08.06-.13.08-.2.09-.39.05-.47.07-.09.04.06.06.04.12-.2.04-.15.17-.4-.04-.06-.21.34-.21.18l.22-.27c.01-.09-.09.02-.11.03.08-.05.24-.36.33-.54-.28.14-.46.79-.65,1.11-.02-.31-.35.03-.47-.01l.21-.34c-.08.03-.15.09-.25.23h.02s-.13.16-.13.16c.04-.06.08-.12.11-.16l-.09-.04c.12-.1.19-.21.34-.49-.14.05-.22-.1-.49.36l.04-.08c-.03-.23-.24-.45-.15-.6-.21.1-.24-.26-.48.21.03-.02.08-.08.17-.23-.09.16-.28.52-.29.49.05-.11.08-.19.12-.26-.13.08.1-.71-.25-.14.06-.36.06-.13.26-.47.06-.36-.43.4-.13-.3-.21.16-.04.15-.23.44.28-.65-.16-.2-.08-.61-.17.24-.03.18-.24.42.08-.16.06-.21.04-.23l-.21.39.36-1.04c-.38.4-.29.7-.59.8l.03-.03c.13-.44-.29.25-.3-.13.02.1.11-.18.18-.29l-.16.13s.03-.04.05-.09c.06-.34-.14.14-.1-.17.1-.06.22-.37.26-.53l-.33.41.3-.53c-.11-.1-.68.71-.4-.08l.1-.06c.05-.13.19-.55-.01-.31-.04.04-.15.25-.17.33v.04s0-.02,0-.04v-.12c.18-.35.38-.38.52-.44-.1.13-.22.22-.3.46.14-.08.33-.29.47-.37.04-.05.07-.08.09-.1-.01.02-.02.04-.03.07.01,0,.03,0,.04,0,.02-.01.03,0,.04.01-.01,0-.03-.01-.04-.01-.02.01-.05.06-.1.15,0-.04.03-.09.06-.14-.02,0-.04.02-.06.03-.1.13-.22.35-.3.49,0,.23.18-.22.27-.22-.04.16-.06.26-.13.36.15-.11.24-.12.25.11,0,0-.22.22-.26.45.27-.15.5-.57.8-.74.5-.51.24.56.6.19.09-.16.02-.33.17-.39-.17.31-.04.23-.1.36.33-.42.1.18.33-.11-.07.1-.07.26-.09.38.02-.04.05-.09.09-.15l-.09.16h0c-.21.39.04.21-.39.7.45-.52.2.27.77-.58l.02-.13.06.26h0s-.02-.09-.02-.18l.02.17c.03.1.1,0-.02.45-.09.08-.14.05-.23.13-.09.38.32-.21.42-.19-.15.28-.15.06-.3.41.04.08.2-.11.31-.16l-.09.15c-.02.43.46-.75.31-.16.04-.09.11-.19.15-.28-.04.19-.09.52-.29.67.05.03.19-.08.31-.24.08-.26,0-.14.14-.45l.31-.05s-.1.14-.13.13c-.18.96.91-.42.67.72.11-.27.15-.21.27-.37.05.13.24.14.24.34l-.13.16c.35-.09.66-.27.74-.08.05-.07-.14.25-.2.28.29-.25-.16.82.26.17v-.07c.14.23.66-.11.94-.07-.19.42-.15-.03-.39.46.06.24.42,0,.5.23-.06.03-.08.08-.11.1,0,.35.23-.4.33-.26-.13.19-.15.24-.17.37l.24-.29c-.02.05-.18.29-.26.38.32-.37.33.02.62-.34-.05.11-.32.44-.39.6,0,.16.15.04.29-.08.13-.2.15-.17.17-.12.06-.03.1-.03.09.06-.06.03-.08-.02-.09-.06-.05.03-.11.07-.17.12h0c-.12.3.03.34-.03.37.05.21.16-.2.41-.38v-.24s.25.03.25.03l-.2.14c-.01.2.29-.08.39,0l.1-.25.2-.06c-.29.46.08.19-.34.68.05.36.58-.14.8-.05-.03-.02-.08.08-.14.15.04.17.27-.02.5-.2-.11.13-.17.16-.25.28.13.09.26-.2.5-.24-.17.16-.23.26-.22.34.11-.17.22-.26.28-.29-.73.81-.1.47-.66,1.12.14-.18.64-.42.83-.82l-.09.04c.17-.25.15-.11.21-.11.07-.04.11-.04.03,0-.01,0-.02,0-.03,0-.05.03-.11.07-.15.12.42-.16.43.26.82.2-.09.08-.29.17-.29.28.13.29.59-.08.99-.13-.41.56-.3-.1-.71.42.33.05.72.03,1.2-.06-.54.86.51-.13.18.61.2-.28.35-.31.45-.25h0s0,.01,0,.01c.04.03.07.08.08.14l-.08-.14s0,0-.01-.01c-.2.19-.12.27-.27.4.27-.18.57-.11.14.39.43-.48.14.15.49-.15.01-.06.04-.14.12-.27l-.03.2s-.06.05-.08.07c-.06.26.29.06.28.3.22-.34.24-.05.39-.14-.03.01-.09.03-.12.08-.19.29.34-.12.27.09-.07.13-.25.28-.22.34.19-.22.59-.32.42,0-.03-.03-.13.08-.22.15.64-.11.57.61,1.27.46l-.38.31c-.23.63.67-.47.78-.28.27.54.2,1.44.82,1.59.13-.07.11-.14.25-.29,0,.07-.29.37-.06.23l.18-.19c-.32.66.86.17.19,1.07.47-.12.07.49.73.27-.11.22-.41.23-.37.36l.49-.09-.04.02c.76-.34-.19,1.08.45.94l-.04.02c-.14.11-.26.31-.18.3.11-.07.14-.14.23-.26.43,0,.48.05.68.18-.27.1-.12.22-.4.47.23-.11.27-.28.52-.31.15.12.02.46.02.66.3-.17.28-.04.61-.3.16.14.37.14.53.34l-.11.09c.45-.27-.06.34.21.19-.15.11-.22.13-.33.23h.21c-.16.04-.56.32-.54.43.35-.15.18-.17.44-.32l-.36.32c.09.03.53-.29.58-.45.17.2.51.27.6.5l-.26.17c.17.03.28.17.11.4.08-.05.23-.13.3-.21.4-.12-.28.26-.01.2-.08.02-.16.04-.27.11l.5.02c-.18.14-.49.6-.24.58.11-.07.23-.21.23-.25h-.06s.06-.02.06,0h.15l-.4.37.46-.18.08-.06v.03s-.08.03-.08.03l-.37.27c.13.02.62-.29.64-.21-.07.39-.23.43-.47.83.73-.48.16.27.7-.05-.39.58.16.66.2,1.04l-.08.02c-.26.34.64-.22.59,0l-.13.04c-.26.4.22.47.63.45v.11c.41.02.89-.05.63-.45l-.13-.04c-.06-.23.84.34.59,0l-.08-.02c.04-.38.59-.46.2-1.04.54.31-.03-.43.7.05-.24-.4-.4-.45-.47-.83.01-.08.51.23.64.21l-.37-.27-.09-.03v-.03s.09.06.09.06l.46.18-.4-.37h.15s.02-.02.06,0h-.06s.12.18.23.25c.24.01-.06-.44-.24-.58l.5-.02c-.11-.08-.19-.1-.27-.11.27.06-.42-.32-.01-.2.07.08.22.15.3.21-.17-.22-.06-.36.11-.4l-.26-.17c.08-.24.43-.3.6-.5.05.16.49.48.58.45l-.36-.32c.26.15.09.17.44.32.02-.11-.39-.39-.54-.44h.21c-.11-.08-.18-.11-.33-.22.26.15-.24-.46.21-.19l-.11-.09c.17-.21.37-.2.53-.34.32.26.31.14.61.3,0-.2-.13-.54.02-.66.25.03.29.2.52.31-.28-.25-.13-.37-.4-.47.2-.13.25-.17.68-.18.09.12.12.19.23.26.08,0-.04-.19-.18-.3l-.04-.02c.64.14-.31-1.27.45-.94l-.04-.02.49.09c.04-.13-.26-.14-.37-.36.66.22.26-.39.73-.27-.67-.9.52-.41.19-1.07l.18.19c.23.14-.05-.16-.06-.23.14.15.12.21.25.29.62-.15.55-1.04.82-1.59.11-.19,1.01.91.78.28l-.38-.31c.7.15.63-.57,1.27-.46-.09-.07-.19-.18-.22-.15-.17-.32.23-.21.42,0,.03-.06-.16-.21-.22-.34-.07-.21.46.2.27-.09-.03-.05-.09-.07-.12-.08.15.09.17-.2.39.14,0-.24.34-.05.28-.3-.03-.02-.05-.04-.08-.07l-.03-.2c.07.13.1.21.12.27.35.3.07-.33.49.15-.43-.5-.13-.58.14-.39-.15-.14-.06-.21-.27-.4,0,0,0,0-.01.01l-.08.14c0-.06.04-.11.08-.14v-.02s.01,0,.01,0c.09-.06.25-.03.45.25-.33-.74.72.25.18-.61.48.08.87.11,1.2.06-.41-.52-.3.13-.71-.42.39.05.86.41.99.13,0-.11-.2-.21-.29-.28.39.06.4-.36.82-.2-.04-.05-.1-.09-.15-.12,0,0-.02,0-.03,0-.08-.04-.04-.03.03,0,.05,0,.04-.14.21.11l-.09-.04c.19.39.69.63.83.82-.57-.65.07-.31-.66-1.12.06.03.17.12.28.29,0-.07-.05-.18-.22-.34.24.04.37.33.5.24-.08-.12-.14-.15-.25-.28.23.19.46.38.5.2-.06-.07-.11-.17-.14-.15.22-.09.74.41.8.05-.41-.48-.04-.22-.34-.68l.2.06.1.25c.1-.07.4.21.39,0l-.2-.14.24-.03v.24c.26.17.37.58.42.38-.06-.03.09-.07-.03-.37h0c-.06-.05-.12-.1-.17-.12-.01.04-.03.1-.09.06,0-.09.03-.09.09-.06.02-.05.04-.07.17.12.14.12.29.24.29.08-.08-.16-.34-.5-.39-.6.29.35.3-.04.62.34-.08-.08-.23-.33-.26-.38l.24.29c-.02-.13-.04-.18-.17-.37.1-.14.32.61.33.26-.03-.02-.05-.07-.11-.1.08-.24.45.01.5-.23-.24-.49-.21-.04-.39-.46.28-.04.8.3.95.07v.07c.41.65-.04-.42.25-.17-.06-.03-.25-.35-.2-.28.09-.19.4-.01.74.08l-.13-.16c0-.2.18-.21.24-.34.12.16.16.1.27.37-.25-1.14.85.24.67-.72-.03.01-.16-.11-.13-.13l.31.05c.14.31.07.2.14.45.12.16.26.27.31.24-.2-.15-.25-.48-.29-.67.04.1.11.19.15.28-.16-.59.33.59.31.16l-.09-.15c.1.05.26.23.31.16-.15-.36-.15-.13-.3-.41.1-.02.51.57.42.19-.09-.08-.14-.05-.23-.13-.12-.45-.05-.35-.02-.45l.02-.17c0,.09,0,.14-.02.17h0s.06-.25.06-.25l.02.13c.57.85.32.06.77.58-.43-.49-.19-.31-.39-.71h0s-.09-.15-.09-.15c.04.06.06.11.09.15-.01-.13-.01-.28-.09-.38.23.29,0-.31.33.11-.06-.13.07-.05-.1-.36.14.06.08.23.17.39.36.37.1-.7.6-.19.3.17.54.59.8.74-.04-.23-.26-.45-.26-.45,0-.23.09-.22.25-.11-.07-.11-.09-.21-.13-.36.09,0,.26.45.27.22-.08-.14-.2-.36-.3-.49-.02-.01-.04-.02-.06-.03.03.05.05.11.06.14-.05-.09-.08-.14-.1-.15-.02,0-.03,0-.04.01.01-.02.03-.02.04-.01.01,0,.02,0,.04,0-.01-.02-.02-.04-.03-.07.03.01.06.05.09.1.14.08.33.29.47.37-.08-.24-.2-.32-.3-.46.14.06.34.1.53.44v.12s0,.04,0,.04ZM94.17,99.17c.06-.1.08-.08.09-.07l.04-.03s.02-.03.03-.06l.02.02-.04.03s-.03.04-.04.03l-.09.07ZM94.89,99.47c.03-.06.05-.11.07-.13l.05-.1c.1-.06.05.23.08.28-.15.21-.02-.36-.14-.17l-.07.13ZM100.3,95.97l-.17.43c-.13.1.09-.37.17-.43ZM100.37,102.06l-.06.23-.15.04.21-.28ZM102.92,97.17c.06-.04.03.15.07.21-.15.18-.15.01-.07-.21ZM109.59,102.27l.14-.09.02.05-.16.04ZM123.08,102.35l.02-.05.14.09-.16-.04ZM129.85,97.49c.04-.06.02-.24.07-.21.08.22.08.38-.07.21ZM132.46,102.18l.21.28-.15-.04-.06-.23ZM132.53,96.09c.08.06.3.52.17.43l-.17-.43ZM137.74,99.62s-.02-.33.08-.28l.05.1s.04.07.07.13l-.07-.13c-.12-.19,0,.38-.14.17ZM138.48,99.15l.02-.02s.02.04.03.06l.04.03s.04-.03.09.07l-.09-.07s-.02,0-.04-.03l-.04-.03ZM139.07,99.85c.02.1.09.21.13.29-.15-.19-.38-.54-.52-.96.24.4.18.22.46.7.07.03.02-.18-.05-.34.07.11.03-.13.18.14.08.37.01.42-.19.17ZM138.81,94.4l.11.05.05.04-.15-.09ZM139.05,99.1l.13.09c.07.11.17.37.1.34l-.22-.43ZM139.88,93.45l.11.35c-.08-.03-.04-.14-.11-.35ZM140.93,93.07c-.04-.15.02-.12.05-.17l-.05.17ZM143.75,92.59c.11.05.04.22.07.31-.09-.13-.11-.16-.07-.31ZM144.25,92.26l.15-.15c0,.16,0,.38.08.4-.13.5-.02-.35-.24-.25ZM145.89,90.88s0,.04-.01.04v-.04c.01-.09-.04-.31-.07-.36-.14-.29-.12.15-.1.3l.08.08c.05.83-.3-.09-.44-.02l.16.59-.23-.47c0,.16.03.49.11.57-.05.31-.12-.2-.16.14,0,.05,0,.08.02.1l-.13-.16c.04.12.05.42.1.33-.12.37-.36-.4-.35.06l.02.03c-.28-.16-.1-.43-.38-.92l.07,1.09-.1-.43s-.07.06-.03.23c-.15-.28-.02-.19-.12-.46-.05.42-.37-.12-.27.58-.11-.32.07-.28-.11-.48.11.75-.17-.1-.22.26.11.38.17.15.13.52-.19-.64-.19.18-.3.08.02.08.03.17.05.28-.02.02-.11-.38-.16-.55.05.16.08.24.11.26-.11-.52-.25-.18-.44-.32.05.17-.24.34-.34.55l.02.09c-.14-.51-.27-.39-.4-.47.07.31.12.43.21.55l-.1.02c.02.05.04.12.06.19l-.09-.18h.03c-.06-.17-.11-.25-.19-.29l.11.38c-.14,0-.37-.4-.49-.1-.09-.36-.09-1.04-.34-1.24.04.2.11.53.18.6-.02-.02-.09-.15-.11-.06l.15.31c-.05.16-.11-.27-.16-.22.07.28,0,.21.06.43.02.02.03-.13.08-.02-.06.07-.11.25-.08.47.01.06.02.11.02.14-.01-.05-.02-.1-.02-.14-.03-.16-.09-.37-.15-.4-.14.01.03.35,0,.51-.08-.19-.12.03-.22-.38-.04.01,0,.21.01.32-.11-.17-.34.02-.37-.44h0s0-.02,0-.05c-.34-.36-.42.34-.69.23l.04.14c-.18-.12-.32-.01-.5-.29-.04.01-.03.28.04.44-.13-.08-.19-.23-.27.04.17.21.02.22.15.15-.1.15-.07.38-.32.04.15.34.03.47-.07.38l.02-.28c-.09-.03-.14.01-.19.06l.17.45c-.1.63-.77-.83-.69.18-.17-.3.08-.27-.1-.63-.11.1-.03.8-.07.81-.09.31-.37-.63-.49-.4-.03-.17-.15-.62-.33-.73-.11.1.07.73.19.84.03,0,.03-.05.01-.11-.03-.02-.06-.05-.07-.09.03,0,.05.05.07.09.06.05.13.1.14.29l-.07-.16c0,.19-.18.22-.06.48-.14-.13-.13-.26-.08-.36-.08.28-.24.08-.35.29,0,.05,0,.07-.02.04,0-.02.01-.03.02-.04,0-.1-.04-.3-.07-.29-.17.27-.21-.28-.4-.3,0,.28.23.58,0,.43-.04.2.13.44.21.56-.25-.26-.2.3-.26.38l.12.11c-.07-.06-.11-.05-.15-.03l-.07-.34c-.03.07-.06.09-.01.22-.12-.2-.15-.55-.35-.81,0,.19-.25-.11-.12.32.13-.19.13.34.28.44-.03,0-.05.01-.07.07.01.05.04.09.06.11,0,0,0,0,0,0,.04.04.02.03,0,0-.04.45-.26-.46-.44-.39.11.23.12.47.07.43.07-.03-.11-.42-.25-.58-.05.23-.18-.1-.24-.05l-.02.07s.01-.06.02-.07l.04-.11c-.11-.23-.16-.18-.28-.23.06.19.12.1.13.2-.25-.39-.05.51-.29.27,0,.18.17.45.16.59-.26-.26-.03.39-.28.19-.08-.34-.04-.26-.27-.54l.34.13-.34-.41c.07-.03.24.14.26.07-.18-.24-.14-.16-.21-.44.08.52-.32-.2-.31.17l.32.8c-.04.42-.48-.29-.63,0l.02-.17c-.16-.3-.16.01-.29-.09.12.26.11.38.14.55.02.04.03.09.05.17-.02-.07-.03-.12-.05-.17-.08-.2-.16.08-.4-.44l.04.39c-.13.21-.53-.67-.67-.5.18.26.17.49.38.64-.06.03-.09.1-.17-.08.04.18-.32-.29-.26-.01.02.03.04.05.05.03,0,.03,0,.04-.04.02,0-.02,0-.03-.01-.05-.08-.11-.2-.38-.26-.33.02.06.06.13.06.13-.06-.13-.18-.13-.25-.45.18.9-.55.16-.39.92.01,0,.03,0,.04,0l-.02.07s-.01-.05-.02-.08c-.17-.04-.37-.05-.49-.02.04.07.06.13.07.09-.05.31-.45-.7-.51-.35.1.46.2.18.22.37.38.87-.28-.02-.16.54l.05.04c.05.33-.38-.22-.51-.09,0,0,.04.07.06.13-.32-.38-.59-.44-.8-.49.21.31.15.14.3.49-.09-.02-.25-.55-.43-.58.05.2.03.41.2.77l.13-.04c.17.49-.17.06-.19.17l.11.2c-.22.03-.49-.48-.67-.34l-.06-.16c-.37-.45.05.33-.25.01l.24.52c-.14-.09-.52-.36-.7-.39.28.34.53.45.75.63-.07.04-.26.08-.44-.15.06.03.16.14.15.05-.3-.35-.53-.49-.66-.41.56.96-.24.44.09,1.25-.45-.23-.41.41-.72.51-.34-.81-.09.03-.53-.75-.09-.01-.11.02-.09.07v-.04s0,.03,0,.04c.07.15.45.48.46.75-.09-.37-.39-.32-.46-.75h0s.07.57.07.57c.09.25.16.13.26.31-.11.14.13.36.16.62-.15-.28-.29-.36-.3-.21l-.1-.42c-.45-.29.22.74-.23.45l.21.2c-.19-.08-.38.22-.86-.32.04.1.14.32.22.35-.18.24-.96-.31-.91.18l.14.17c-.08-.02-.3-.29-.24-.08.05.07.14.17.12.19-.07-.05-.33-.24-.32-.1l.19.17c-.08.38-.69-.26-.98-.26.36.53.3.82.27.97l.06.07c-.22.24-.77-.14-1.16-.17.26.67-.35.6-.36,1.08-.03-.12-.31-.4-.39-.42.02.15-.43-.24-.06.22v-.02c.32.49.11.45.03.53l-.49-.6c.46,1.06-.89.14-.38,1.03-.18-.11-.25-.05-.42-.16l.27.32c-.09.2-.13.3-.39.38l.23.2c-.09.1-.9-.81-1.02-.75l.37.5c-.19.15-.02.71-.57.44.06.07.19.2.23.19-.08.08-.06.59-.59-.07.37.41-.15.2-.41.11l.29.29c-.43-.32-.53-.42-.75-.42,0,.05.14.2.16.18,0,.15-.33-.24-.3,0l.22.16c-.07.1-.16,0-.42-.18-.17-.07-.11.23.13.52-.17-.15-.42-.32-.41-.2.09.11.17.15.21.17.04.34-.56-.13-.39.25.09.1.13.15.15.19.12-.12.2-.22.17-.24.26.27.21.41.65.71-.27-.13-.84-.45-.81-.24.02.03.04.06.08.1l.04.02s-.04.04-.1.01c.01.07.03.12,0,.15.21.23,0,.22-.03.28-.29-.3-.3-.19-.49-.49.01.03.04.03.09,0-.01,0-.03-.01-.03,0-.02-.03-.03-.06-.05-.08-.21-.16-.43-.33-.54-.41.34.47.43.81.67,1.08-.31-.02-.45.22-1.1-.22-.11-.03.11.2.19.3.08.03.1,0,.19.06-.23-.06-.3.19-.71-.16.07.27.42.28.21.36l.14.09c.37.86-1.47-.47-.95.59-.03-.07-.04-.1-.11-.16,0,.18-.06.29-.16.39v-.11c-.1-.09-.17-.21-.16-.39-.06.06-.08.1-.11.16.52-1.07-1.31.27-.95-.59l.14-.09c-.21-.08.14-.09.21-.36-.41.35-.49.11-.71.16.09-.06.11-.03.19-.06.07-.1.3-.33.19-.3-.65.44-.79.2-1.1.22.24-.27.33-.61.67-1.08-.11.08-.33.24-.54.41-.01.02-.03.05-.05.08,0,0-.02,0-.03,0,.04.02.08.02.09,0-.18.3-.2.19-.49.49-.04-.06-.24-.05-.03-.28-.02-.03-.01-.08,0-.15-.06.03-.11.04-.1-.01l.04-.02s.06-.07.08-.1c.03-.21-.54.11-.81.24.44-.3.39-.44.65-.71-.03.01.05.12.17.24.02-.04.06-.09.15-.19.17-.39-.43.09-.39-.25.04-.02.12-.07.21-.17.02-.13-.24.05-.41.2.24-.28.3-.58.13-.52-.26.18-.35.29-.42.18l.22-.16c.03-.24-.3.14-.3,0,.02.02.16-.13.16-.18-.21,0-.31.11-.75.42l.29-.29c-.26.09-.78.31-.41-.11-.53.66-.51.16-.59.07.05,0,.17-.12.23-.19-.55.27-.38-.29-.57-.44l.37-.5c-.12-.06-.93.85-1.02.75l.23-.2c-.25-.07-.3-.17-.39-.38l.27-.32c-.18.11-.25.05-.42.16.5-.89-.84.04-.38-1.03l-.49.6c-.08-.08-.29-.04.02-.53v.02c.38-.46-.07-.08-.05-.22-.08.02-.36.3-.39.42-.01-.48-.62-.41-.36-1.08-.4.03-.94.41-1.16.17l.06-.07c-.03-.14-.1-.44.27-.97-.29,0-.9.64-.98.26l.19-.17c0-.14-.26.05-.32.1-.01-.02.07-.12.12-.19.06-.22-.16.05-.24.08l.14-.17c.05-.49-.72.06-.91-.18.08-.03.19-.25.22-.35-.48.54-.67.24-.86.32l.21-.2c-.45.29.22-.74-.23-.45l-.1.42c-.02-.15-.16-.07-.3.21.03-.26.27-.47.16-.62.1-.18.17-.06.26-.31l.07-.57h0c-.07.43-.36.38-.46.75,0-.27.39-.6.46-.75,0-.02,0-.03,0-.04v.04c.02-.05,0-.08-.1-.07-.44.78-.19-.05-.53.75-.32-.1-.27-.74-.72-.51.32-.81-.48-.29.09-1.25-.14-.09-.36.05-.66.41-.01.09.09-.01.15-.05-.17.23-.37.19-.44.15.21-.18.47-.29.75-.63-.18.03-.56.31-.7.39l.24-.52c-.31.32.12-.46-.25-.01l-.06.16c-.18-.14-.45.37-.67.34l.11-.2c-.02-.11-.36.32-.19-.17l.13.04c.17-.36.16-.57.2-.77-.18.03-.34.56-.43.58.14-.35.08-.18.3-.49-.21.05-.48.1-.8.49.02-.06.06-.13.06-.13-.12-.13-.55.42-.51.09l.05-.04c.11-.55-.54.33-.16-.54.02-.19.12.09.22-.37-.06-.35-.46.66-.51.35,0,.04.03-.02.07-.09-.12-.04-.32-.02-.49.02,0,.03-.01.05-.02.08l-.02-.07s.03,0,.04,0c.16-.77-.57-.03-.39-.92-.07.32-.19.32-.25.45,0,0,.04-.07.06-.13-.06-.05-.19.22-.26.33,0,.01,0,.03-.01.05-.03.03-.04,0-.04-.02,0,.02.03,0,.05-.03.05-.27-.3.19-.26.01-.08.18-.11.11-.17.08.21-.16.2-.38.38-.64-.14-.16-.54.72-.67.5l.04-.39c-.24.52-.32.24-.4.44-.01.05-.02.11-.05.17.02-.09.03-.13.05-.17.04-.18.03-.29.14-.55-.13.1-.13-.22-.29.09l.02.17c-.15-.29-.59.42-.63,0l.32-.8c0-.37-.39.36-.31-.17-.07.28-.03.2-.21.44.02.07.19-.1.26-.07l-.34.41.34-.13c-.23.27-.19.2-.27.54-.25.2-.01-.45-.28-.19-.01-.13.15-.4.16-.59-.24.24-.03-.66-.29-.27,0-.09.06,0,.13-.2-.11.05-.16,0-.28.23l.04.11s.02.02.02.07l-.02-.07c-.06-.04-.19.28-.24.05-.14.16-.32.55-.25.58-.05.04-.04-.2.07-.43-.18-.07-.4.83-.44.39-.03.02-.04.03,0,0,0,0,0,0,0,0,.02-.02.05-.06.06-.11-.02-.05-.04-.07-.07-.07.14-.1.15-.63.28-.44.13-.44-.11-.14-.12-.32-.19.26-.23.62-.35.81.05-.14.01-.15-.01-.22l-.07.34s-.07-.03-.15.03l.12-.11c-.06-.09,0-.65-.26-.38.08-.12.25-.36.21-.56-.23.15,0-.15,0-.43-.19.02-.22.58-.4.3-.03,0-.06.19-.07.29,0,.01.01.02.02.04-.02.03-.02,0-.02-.04-.11-.21-.27,0-.35-.29.04.11.06.23-.08.36.13-.26-.05-.29-.06-.48l-.07.16c0-.19.08-.25.14-.29.01-.04.04-.08.07-.09,0,.04-.04.06-.07.09-.02.06-.02.11.01.11.12-.11.29-.74.19-.84-.18.11-.3.56-.33.73-.12-.23-.4.7-.49.4-.04-.01.04-.71-.07-.81-.18.36.07.33-.1.63.08-1.01-.59.46-.69-.18l.17-.45c-.05-.05-.11-.09-.19-.06l.02.28c-.09.09-.21-.04-.07-.38-.25.34-.22.11-.32-.04.13.07-.02.07.15-.15-.09-.27-.14-.11-.27-.04.06-.16.08-.43.04-.44-.18.27-.32.16-.5.29l.04-.14c-.27.11-.35-.59-.69-.23,0,.03,0,.04,0,.06h0c-.03.45-.26.26-.37.43.01-.12.05-.31.01-.32-.1.42-.14.2-.22.38-.04-.16.13-.5,0-.51-.06.02-.12.24-.15.4,0,.05-.01.09-.02.14,0-.03.01-.08.02-.14.02-.22-.03-.4-.08-.47.05-.1.06.05.08.02.06-.22,0-.15.06-.43-.06-.05-.12.38-.16.22l.15-.31c-.01-.09-.09.04-.11.06.07-.07.14-.4.18-.6-.24.2-.24.88-.34,1.24-.11-.3-.35.11-.49.1l.11-.38c-.08.04-.13.13-.19.29h.03s-.09.19-.09.19c.02-.07.05-.13.06-.19l-.1-.02c.09-.13.14-.24.21-.55-.13.08-.26-.04-.4.47l.02-.09c-.1-.21-.38-.38-.34-.55-.19.14-.33-.2-.44.32.03-.03.06-.1.11-.26-.04.17-.13.57-.16.55.01-.12.03-.21.05-.28-.12.11-.11-.71-.3-.08-.04-.36.02-.14.13-.52-.05-.36-.33.49-.22-.26-.17.21,0,.16-.11.48.1-.7-.22-.16-.27-.58-.11.27.02.18-.12.46.04-.17,0-.21-.03-.23l-.1.43.07-1.09c-.28.48-.1.75-.38.92l.02-.03c.01-.46-.23.31-.35-.06.05.1.06-.21.1-.33l-.13.16s.02-.05.02-.1c-.03-.34-.1.17-.16-.14.08-.08.12-.41.11-.57l-.23.47.16-.59c-.14-.07-.5.85-.44.02l.08-.08c.02-.14.04-.58-.1-.3-.03.05-.08.28-.08.36v.04s0-.01,0-.04l-.04-.11c.09-.38.29-.46.42-.56-.06.15-.17.27-.18.51.12-.11.26-.36.37-.47.02-.06.05-.1.07-.12,0,.03-.01.05-.02.07.01,0,.02-.01.04-.02.01-.01.03-.01.05,0-.02,0-.03,0-.05,0-.02.02-.04.07-.06.17,0-.04,0-.09.02-.15-.02.01-.04.03-.05.04-.06.15-.13.39-.17.55.07.22.12-.25.21-.28,0,.16.01.27-.03.39.13-.14.22-.17.29.05,0,0-.17.27-.14.5.24-.2.36-.67.62-.9.37-.62.41.48.67.04.04-.17-.07-.33.06-.42-.08.35.03.24,0,.38.22-.49.16.15.31-.18-.04.12,0,.26.02.39.01-.05.02-.1.04-.17l-.04.17h0c-.1.43.1.19-.2.78.31-.61.29.22.62-.74l-.02-.13.14.24h0s-.04-.08-.07-.17l.07.16c.06.09.1-.03.11.44-.07.1-.13.09-.2.18.02.4.27-.28.38-.28-.07.31-.14.09-.18.47.07.06.18-.15.27-.23l-.05.17c.1.43.26-.83.27-.23.02-.1.06-.21.07-.31.01.19.06.53-.1.72.06.01.17-.12.25-.31,0-.27-.04-.14.01-.47l.31-.12s-.06.16-.1.16c.1.98.81-.63.9.55.03-.29.09-.24.17-.43.09.11.28.08.35.27l-.08.18c.33-.18.6-.43.74-.26.03-.08-.07.27-.12.32.23-.32.08.84.32.1l-.03-.07c.22.19.66-.27.96-.29-.06.46-.17,0-.26.54.13.22.43-.1.59.1-.05.04-.06.1-.08.12.12.34.11-.45.26-.33-.07.21-.08.27-.06.4l.16-.34c0,.06-.09.33-.15.43.21-.44.34-.06.53-.47-.02.11-.19.51-.21.68.05.15.16,0,.27-.15.07-.22.1-.2.14-.16.05-.04.09-.05.11.04-.05.05-.08,0-.11-.04-.04.04-.09.1-.14.16h0c-.03.32.13.32.08.37.11.19.1-.24.31-.47l-.07-.23.26-.03-.16.19c.05.2.28-.14.4-.1l.03-.27.19-.11c-.16.52.14.17-.13.74.17.33.56-.28.8-.24-.04-.02-.06.1-.1.18.09.16.27-.08.44-.31-.07.15-.12.2-.17.33.16.06.2-.26.43-.35-.13.2-.15.31-.12.38.06-.19.15-.31.2-.35-.5.97.05.48-.32,1.25.09-.21.52-.56.59-.99l-.08.06c.1-.28.12-.15.18-.15.06-.05.1-.07.03-.01,0,0-.02.01-.03.01-.04.04-.09.09-.11.15.37-.25.52.14.9,0-.06.1-.25.23-.21.35.22.25.58-.21.96-.36-.24.64-.34-.02-.59.58.35-.03.74-.14,1.2-.34-.27.97.48-.25.37.55.11-.32.26-.39.38-.35h0s.01,0,.01,0c.05.02.1.06.13.12l-.13-.12s-.01,0-.02,0c-.15.24-.03.29-.15.46.22-.24.55-.25.27.35.28-.57.19.11.45-.27,0-.06,0-.15.03-.29l.03.2s-.04.06-.06.09c.02.27.31-.01.39.22.11-.36.21-.15.33-.21-.03.02-.06.05-.07.09-.1.34.3-.2.3.03-.02.15-.17.33-.12.39.12-.26.49-.45.43-.1-.04-.02-.1.11-.17.2.61-.26.77.46,1.43.15l-.29.39c-.03.67.52-.62.69-.46.22.24.39.58.59.86.19.28.41.51.75.51.11-.1.06-.16.16-.34.02.08-.17.43.02.24l.11-.23c-.11.74.93-.04.54,1.01.44-.23.22.47.82.09-.04.25-.33.32-.25.45l.46-.2-.03.02c.66-.52.16,1.12.76.82l-.03.02c-.1.15-.16.37-.08.34.09-.1.09-.17.15-.32.43-.09.5-.07.74.01-.24.17-.05.25-.25.56.19-.17.19-.34.42-.43.19.08.17.45.23.65.25-.23.27-.11.51-.44.21.11.41.04.65.21l-.08.12c.36-.37.05.35.27.14-.11.14-.18.19-.26.3l.2-.06c-.14.09-.46.46-.4.57.3-.23.12-.22.34-.42l-.25.4c.1,0,.44-.41.44-.59.23.17.6.15.76.36l-.21.23c.18,0,.34.11.24.37.06-.07.19-.18.23-.28.36-.22-.2.32.05.2-.08.04-.14.07-.23.18l.51-.1c-.14.18-.29.71-.05.64.09-.1.16-.26.15-.3l-.06.02s.05-.03.06-.02l.15-.04-.28.46.4-.29.06-.08v.03s-.06.05-.06.05l-.28.35c.13-.01.53-.44.57-.35.05.41-.09.49-.2.95.57-.65.24.23.68-.21-.2.67.37.63.53,1.01l-.07.04c-.15.4.57-.38.59-.14l-.12.07c-.14.49.43.42.83.29-.12.07-.29.28-.22.31.16-.09.37-.48.35-.28-.08.04-.19.2-.17.22l.38-.24c.03.42.07.88.48.91-.06.15-.2.23-.32.33.22.09.57.04.8.1h0s0,0,0,0v.11s0,0,0,0h0c.23-.06.59-.01.8-.1-.11-.1-.25-.18-.32-.33.41-.03.45-.49.48-.91l.38.24s-.09-.18-.17-.22c-.02-.2.19.2.35.28.07-.02-.1-.24-.22-.31.41.13.98.19.83-.29l-.12-.07c.01-.24.73.54.59.14l-.07-.04c.16-.37.73-.33.53-1.01.44.44.11-.44.68.21-.11-.46-.25-.54-.2-.95.04-.08.43.34.57.35l-.28-.35-.08-.05v-.03s.08.08.08.08l.4.29-.28-.46.15.04s.02-.01.06.02l-.06-.02s.06.2.15.3c.24.07.09-.45-.05-.64l.51.1c-.09-.1-.16-.14-.23-.18.25.12-.31-.42.05-.2.04.09.17.21.23.28-.1-.26.05-.38.24-.37l-.21-.23c.16-.21.53-.19.76-.36,0,.18.34.59.44.59l-.25-.4c.22.21.03.19.34.42.05-.1-.26-.48-.4-.57l.2.06c-.08-.12-.15-.16-.26-.3.22.21-.09-.52.27-.14l-.08-.12c.23-.17.44-.1.65-.21.24.33.26.21.51.44.07-.2.04-.57.23-.65.24.09.23.27.42.43-.2-.32,0-.4-.25-.56.24-.08.31-.1.74-.01.06.15.06.22.15.32.08.02.02-.2-.08-.34l-.03-.02c.6.29.1-1.35.76-.82l-.03-.02.46.2c.08-.12-.22-.2-.25-.45.59.38.38-.32.82-.09-.39-1.05.66-.27.54-1.01l.11.23c.19.19,0-.17.02-.24.09.18.05.24.16.34.34,0,.56-.23.75-.51.2-.28.37-.62.59-.86.17-.16.73,1.14.69.46l-.29-.39c.66.31.82-.41,1.43-.15-.07-.09-.13-.22-.17-.2-.07-.35.3-.16.43.1.05-.06-.1-.24-.12-.39,0-.23.4.31.3-.03-.01-.04-.04-.07-.07-.09.11.07.22-.15.33.21.07-.24.36.04.39-.22-.02-.03-.04-.05-.06-.09l.03-.2c.03.14.04.23.03.29.26.38.17-.31.45.27-.28-.6.05-.6.27-.35-.11-.17,0-.22-.15-.46,0,0-.01,0-.02,0l-.13.12c.03-.05.07-.1.13-.12h.01s0,0,0,0c.11-.04.26.03.38.35-.11-.81.65.42.37-.55.47.2.86.31,1.2.34-.25-.61-.35.06-.59-.58.38.14.75.61.96.36.04-.11-.14-.25-.21-.35.37.14.52-.25.9,0-.02-.06-.07-.11-.11-.15,0,0-.02,0-.03-.01-.07-.06-.03-.04.03.01.06,0,.08-.13.18.15l-.08-.06c.07.43.5.78.59.99-.37-.77.17-.28-.32-1.25.05.04.14.16.2.35.03-.07,0-.19-.12-.38.23.09.27.41.43.35-.05-.14-.1-.18-.17-.33.17.24.35.48.44.31-.04-.08-.06-.19-.1-.18.25-.04.63.57.8.24-.27-.57.02-.22-.13-.74l.19.11.03.27c.12-.05.35.3.4.1l-.16-.19.26.03-.07.23c.21.23.2.66.31.47-.05-.04.12-.04.08-.37h0c-.05-.06-.1-.13-.14-.16-.03.04-.06.09-.11.04.02-.09.06-.09.11-.04.03-.04.07-.06.14.16.11.15.23.3.27.15-.03-.17-.2-.57-.21-.68.19.41.32.03.53.47-.06-.1-.14-.37-.15-.43l.16.34c.02-.13.01-.19-.06-.4.15-.11.14.67.26.33-.02-.02-.03-.08-.08-.12.16-.2.45.12.59-.1-.09-.54-.2-.09-.26-.54.3.02.73.48.96.29l-.03.07c.24.73.09-.42.32-.1-.05-.05-.15-.4-.12-.32.15-.17.41.08.74.26l-.08-.18c.06-.19.25-.16.35-.27.08.18.14.14.17.43.09-1.17.8.44.9-.55-.04,0-.13-.15-.1-.16l.31.12c.05.33,0,.21.01.47.08.19.18.32.25.31-.17-.19-.12-.53-.1-.72.01.1.06.21.07.31.01-.61.17.65.27.23l-.05-.17c.09.07.2.29.27.23-.05-.38-.11-.16-.18-.47.11,0,.36.68.38.28-.07-.1-.13-.09-.2-.18.01-.47.05-.35.11-.44l.07-.16c-.03.09-.05.13-.07.16h0s.14-.22.14-.22l-.02.13c.34.96.31.13.62.74-.3-.58-.1-.35-.2-.78h0s-.04-.17-.04-.17c.02.07.03.12.04.17.02-.13.07-.28.02-.39.15.33.09-.3.31.18-.02-.14.09-.03,0-.38.13.09.02.25.06.42.26.44.3-.66.67-.04.26.24.38.7.62.9.03-.23-.14-.5-.14-.5.07-.22.16-.2.29-.05-.04-.12-.04-.22-.03-.39.09.02.14.5.21.28-.04-.15-.11-.4-.17-.55-.02-.02-.04-.03-.05-.04.01.06.02.12.02.15-.02-.1-.04-.15-.06-.17-.02,0-.03,0-.05,0,.02-.02.03-.02.05,0,.01,0,.02,0,.04.02,0-.03,0-.05-.02-.07.02.02.05.06.07.12.12.11.26.36.37.47-.01-.25-.12-.36-.18-.51.13.09.33.18.42.56l-.04.11ZM146.13,90.85c0,.11.03.23.05.32-.1-.22-.24-.61-.26-1.05.13.45.12.25.27.78.06.05.08-.17.04-.34.04.12.07-.12.15.18-.02.38-.11.41-.25.12ZM146.43,90.59l-.11-.47.11.11c.04.12.07.4,0,.36Z" style="fill: #fff;"/>
    <path d="M135.76,120.01c.1-.03.18-.07.08-.11-.02,0-.04,0-.06,0,0,.03-.02.06-.02.11Z" style="fill: #fff;"/>
    <polygon points="136.34 116.07 136.34 116.06 136.34 116.06 136.34 116.07" style="fill: #fff;"/>
    <path d="M136.72,120.26s.09.03.15.06c0-.02-.01-.05-.01-.08-.07,0-.14,0-.13.02Z" style="fill: #fff;"/>
    <path d="M135.58,119.98s.01-.03.03-.05c0,0,.02,0,.02,0-.04,0-.07,0-.1.01-.03.03,0,.04.04.04Z" style="fill: #fff;"/>
    <path d="M136.86,120.14h0s0-.03,0-.04c0,0,0,.02-.01.04Z" style="fill: #fff;"/>
    <path d="M135.77,119.91h.02s0-.02,0-.02c0,0,0,.01-.02.02Z" style="fill: #fff;"/>
  </g>
  <path d="M177.75,159.3c-2.13,2.49-6.25,5.84-11.55,3-3.12-1.67-4.23-5.44-2.49-8.39,1.3-2.2,4.26-3,6.59-1.75.8.43,1.39,1.14,1.67,1.99.25.86.14,1.76-.33,2.52-.31.53-.83.87-1.38,1.03-.24-1.18-1.41-2-2.66-1.83-1.31.18-2.2,1.34-2,2.57.02.12.15.18.18.3-.15.71.07,1.45.76,1.83,2.93,1.55,6.66.57,8.31-2.21.94-1.57,1.17-3.42.66-5.16-.49-1.75-1.7-3.2-3.38-4.08-4.1-2.17-9.29-.8-11.57,3.07-2.74,4.62-1.01,10.5,3.87,13.11,1.92,1.02,3.88,1.52,5.83,1.52.65,0,1.27-.14,1.91-.24-1.84,2.43-3.66,4.88-5.56,7.14-4.21,5.02-7.83,9.23-11.35,12.45-.42.04-.81.13-1.12.41-7.34,6.5-14.96,7.38-21.46,2.48-5.05-3.83-5.92-10.84-1.89-15.64,3.1-3.69,8.8-4.31,12.69-1.37,1.42,1.09,2.34,2.63,2.54,4.36.2,1.72-.31,3.42-1.45,4.78-.76.94-1.91,1.5-3.14,1.71.16-.4.27-.83.27-1.29,0-2.22-2.06-4.01-4.52-3.65-1.46.21-2.67,1.28-3.09,2.62-.36,1.12-.11,2.01.39,2.82.02.48.19.96.64,1.28,1.83,1.38,4.1,2.02,6.46,1.75,2.32-.25,4.41-1.34,5.87-3.07,1.74-2.09,2.55-4.68,2.23-7.34-.32-2.64-1.69-5.02-3.87-6.67-5.47-4.12-13.49-3.28-17.83,1.92-5.23,6.23-4.17,15.29,2.28,20.35-2.86-1.3-5.36-3.21-7.28-5.75-3.16-4.17-4.42-9.45-3.46-14.49.75-3.87,3.02-7.25,6.44-9.51,3.42-2.24,7.54-3.11,11.66-2.41,1.05.15,2.1-.56,2.13-1.64.03-.88-.69-1.64-1.61-1.79-5-.83-10.07.24-14.27,2.99-1.86,1.24-3.43,2.78-4.7,4.51-.64.87-1.69,1.38-2.81,1.36-1.06-.02-2.06-.52-2.67-1.34-4.18-5.62-11.51-8.79-19.06-7.48-1,.17-1.66,1.06-1.48,2.02.18.93,1.13,1.53,2.13,1.4,8.42-1.44,16.56,3.9,18.09,11.9.96,5.06-.3,10.33-3.45,14.51-1.92,2.54-4.44,4.44-7.29,5.75,6.47-5.05,7.52-14.13,2.28-20.35-4.36-5.18-12.34-6.04-17.82-1.92-2.21,1.65-3.58,4.03-3.9,6.67-.31,2.64.47,5.24,2.23,7.33,3,3.59,8.55,4.19,12.33,1.34.45-.32.62-.79.66-1.29.5-.86.76-1.83.27-3.01-.52-1.27-1.72-2.27-3.15-2.42-2.35-.26-4.36,1.48-4.36,3.66,0,.45.12.88.27,1.29-1.19-.19-2.34-.75-3.17-1.71-1.12-1.36-1.66-3.06-1.43-4.79.23-1.71,1.11-3.27,2.56-4.34,3.89-2.95,9.58-2.32,12.69,1.36,4.02,4.8,3.19,11.82-1.9,15.65-6.5,4.89-14.11,4.02-21.44-2.49-.33-.26-.73-.36-1.12-.39-3.51-3.24-7.15-7.44-11.35-12.47-1.92-2.26-3.74-4.7-5.58-7.13.63.11,1.27.24,1.91.24,1.94,0,3.91-.5,5.82-1.52,4.88-2.6,6.62-8.49,3.88-13.12-2.29-3.87-7.49-5.24-11.57-3.07-1.67.89-2.86,2.34-3.38,4.08-.51,1.74-.28,3.58.66,5.16.79,1.34,2.09,2.31,3.67,2.72,1.55.42,3.21.23,4.63-.53.71-.38.9-1.11.76-1.82.04-.12.16-.18.19-.31.17-1.24-.73-2.38-2.02-2.57-1.27-.18-2.42.66-2.64,1.84-.59-.18-1.08-.54-1.4-1.04-.46-.77-.56-1.67-.32-2.52.25-.86.83-1.57,1.66-2,2.31-1.22,5.3-.45,6.58,1.74,1.76,2.97.65,6.74-2.49,8.4-5.27,2.8-9.34-.45-11.47-2.93-7.31-9.36-15.49-17.93-27.93-20.82.33,1.33.69,2.64,1.08,3.94,10.1,3.06,17.2,10.46,23.6,18.58.02,0,0,.03.02.05.05.06.12.11.15.18,1.51,1.92,3,3.86,4.45,5.8.39.52.77.98,1.15,1.49-2.89-.53-5.83.05-8.56,1.77-1.71,1.09-2.97,2.58-3.72,4.25-1.3,2.87-1.09,6.29.86,9.07,1.63,2.31,4.33,3.58,7.08,3.58,1.27,0,2.54-.27,3.72-.83.33-.15.65-.32.97-.52,1.6-1.01,2.68-2.53,3.07-4.31.38-1.77,0-3.58-1.06-5.09-1.86-2.63-5.66-3.35-8.43-1.6-.56.37-.74.96-.69,1.55-.06.16-.23.27-.25.45-.11,1.24.85,2.33,2.17,2.45,1.23.1,2.26-.74,2.49-1.89.66.1,1.28.4,1.68.97.5.72.7,1.6.5,2.46-.18.87-.72,1.63-1.5,2.11-.61.4-1.28.63-1.97.73h0c-1.78.25-3.65-.47-4.72-1.99-.83-1.17-1.16-2.52-1.05-3.84.15-1.83,1.15-3.58,2.88-4.67,5.31-3.32,9.84.11,12.04,2.45,0,0,.02,0,.02,0,.06.07.12.15.16.2,10.34,12.35,19.19,23.02,34.5,20.81,6.05-.88,11.4-4.01,15.03-8.81.33-.44.62-.9.89-1.37.5-.88,1.44-1.45,2.49-1.48h.14c1.09-.04,2.08.53,2.62,1.42.28.49.59.97.93,1.43,3.63,4.8,8.96,7.93,15.02,8.8,15.21,2.21,24.14-8.46,34.48-20.81.08-.07.13-.14.16-.2,0,0,.02,0,.02,0,2.23-2.35,6.76-5.79,12.05-2.45,1.74,1.1,2.74,2.86,2.88,4.7.11,1.3-.24,2.64-1.05,3.81-1.06,1.51-2.91,2.23-4.69,1.99-.69-.1-1.38-.33-2.01-.73-.78-.48-1.32-1.23-1.49-2.11-.18-.87,0-1.75.51-2.46.36-.52.9-.87,1.54-.99.06,0,.1.03.15.03.22,1.12,1.26,1.97,2.49,1.88,1.32-.11,2.28-1.2,2.18-2.45-.02-.18-.18-.3-.25-.46.05-.6-.12-1.18-.69-1.55-1.36-.85-2.97-1.15-4.57-.85-1.6.3-2.96,1.18-3.86,2.45-1.06,1.5-1.42,3.31-1.06,5.08.39,1.77,1.45,3.31,3.05,4.31.32.2.66.38.99.53,1.19.55,2.46.82,3.72.82,2.75,0,5.45-1.26,7.07-3.58,1.96-2.79,2.17-6.2.88-9.07-.75-1.68-2.01-3.18-3.73-4.26-2.73-1.71-5.66-2.29-8.55-1.77.39-.51.76-.97,1.14-1.48,1.48-1.96,2.97-3.91,4.49-5.84.04-.05.08-.09.14-.13,0-.02,0-.03.02-.04,6.39-8.11,13.48-15.51,23.57-18.58.4-1.3.76-2.62,1.08-3.94-12.4,2.88-20.56,11.44-27.86,20.75Z" style="fill: #fff;"/>
</svg>