<?xml version="1.0" encoding="UTF-8"?>
<svg id="Layer_1" data-name="Layer 1" xmlns="http://www.w3.org/2000/svg" viewBox="0 0 256.44 232.46">
  <g>
    <path d="M110,115.46c-1.15-.43-2.07-1.34-2.5-2.49-.53-1.43-.8-3.22.99-3.55,3.07-.58,10.56,6.28,9.26,7-1.17.65-3.09.79-7.76-.95"/>
    <path d="M146.44,115.46c1.15-.43,2.07-1.34,2.5-2.49.53-1.43.8-3.22-.99-3.55-3.07-.58-10.56,6.28-9.26,7,1.17.65,3.09.79,7.76-.95"/>
  </g>
  <path d="M93.16,88.43s0,0,0-.02c-6.47-3.22-21.66-10.13-30.41-3.94-11.2,7.92-3.89,15.13-3.89,15.13,0,0,2.96-18.25,27.72-5.68-5.7-.74-11.58-.43-15.74,2.48-10.93,7.65-3.47,13.6-3.47,13.6,0,0,2.13-14.01,22.29-8.34-2.18.87-4.14,2.01-5.69,3.5-9.02,8.66-1.27,11.77-1.27,11.77,0,0,1.24-9.58,12.41-10.5,0,0-4.57-12.14-1.96-18.01Z"/>
  <path d="M105.78,104.04s-.01-.06-.02-.09c-.02,0-.03,0-.05,0-.08.04-.01.07.07.09Z"/>
  <polygon points="105.3 100.8 105.3 100.81 105.3 100.8 105.3 100.8"/>
  <path d="M104.87,104.23s0,.05-.01.06c.05-.02.08-.06.12-.05,0-.01-.05-.02-.11-.02Z"/>
  <path d="M105.92,104.02s.06-.01.04-.03c-.02,0-.05,0-.08,0,0,0,.01,0,.02,0,.01.02.02.03.02.04Z"/>
  <path d="M104.86,104.11s0,.02,0,.04h0s0-.03,0-.04Z"/>
  <path d="M105.77,103.96s-.01,0-.02-.01h0s.01.01.01.01Z"/>
  <path d="M193.69,84.57c-8.75-6.18-23.94.72-30.41,3.94,0,0,0,0,0,.02,2.61,5.87-1.96,18.01-1.96,18.01,11.18.92,12.41,10.5,12.41,10.5,0,0,7.75-3.11-1.27-11.77-1.55-1.49-3.51-2.63-5.69-3.5,20.17-5.67,22.29,8.34,22.29,8.34,0,0,7.46-5.96-3.47-13.6-4.16-2.91-10.05-3.21-15.74-2.48,24.76-12.58,27.72,5.68,27.72,5.68,0,0,7.31-7.21-3.89-15.13Z"/>
  <path d="M158.45,86.53c2.44-1.94,4.88-5.32,4.88-11.11,0-11.57-4.71-15.06-7.63-17.46-2.92-2.4-.96-12.21-9.22-17.38-5.9-3.7-15.24-1.28-15.24-1.28,7.18.44,7.28,11.33,7.28,11.33-6.06,1.31-7.65-.28-7.65-.28,0,7.73,2.73,12.42,7.06,12.71,6.89.45,10.69,1.39,12.5,4.51,2.92,5.02.34,6.98.34,6.98-.33.11-.69.13-1.09.07-4.01-3.38-9.31-6.02-16.26-6.9-.24,2.59-2.48,4.61-5.2,4.61v-.09c-2.72,0-4.96-2.03-5.2-4.61-6.96.88-12.26,3.52-16.26,6.9-.39.06-.76.05-1.09-.07,0,0-2.57-1.96.34-6.98,1.81-3.12,5.61-4.06,12.5-4.51,4.33-.28,7.06-4.98,7.06-12.71,0,0-1.59,1.59-7.65.28,0,0,.1-10.89,7.28-11.33,0,0-9.34-2.43-15.24,1.28-8.25,5.18-6.3,14.98-9.22,17.38-2.92,2.4-7.63,5.89-7.63,17.46,0,5.78,2.44,9.17,4.88,11.11-2.11,4.76.25,18.07,3.87,21.25.42.37,1.07-.03.91-.55-1.09-3.64,2.14-5.46,4.92-5.05.1-.07.16-.14.03-.2h.02c.11.01.24-.02.21-.05-.08,0-.12,0-.21.02-.18-.15-.19-.18-.22-.3.16.05.14-.05.37-.05-.15-.03-.23.02-.35-.05-.02-.1.18-.19.26-.27-.2-.03-.14-.08-.38-.08,0-.11-.1-.17-.09-.3h.08c-.29-.04.16-.12-.01-.15.1,0,.15.02.23.01l-.09-.06c.09.03.37.05.4,0-.2-.05-.14.01-.31-.01l.27-.02s-.33-.05-.42,0c.01-.13-.11-.27-.05-.39h.17c-.06-.05-.05-.14.1-.18-.05,0-.14-.02-.2,0-.21-.07.21-.02.08-.08.04.02.08.03.15.04l-.19-.16c.13,0,.41-.1.31-.17-.07,0-.16.02-.18.03l.02.02s-.03-.01-.02-.02l-.06-.04.29-.03-.25-.06h-.05s0-.01,0-.01h.05s.24.01.24.01c-.04-.05-.35-.07-.32-.1.16-.14.24-.11.46-.21-.44-.01.03-.16-.28-.18.33-.13.15-.33.26-.5h.03c.19-.06-.3-.07-.21-.15l.06.02c.22-.1.04-.29-.1-.38.05.02.17,0,.17-.02-.07-.03-.26.03-.19-.03.03.01.12,0,.12,0l-.18-.05c.15-.14.29-.31.21-.46.06-.03.12,0,.18,0-.02-.12-.14-.23-.15-.34h.18c0-.06-.27-.04-.1-.11.03-.02,0,.04.08.06.14-.1-.16-.06-.13-.16l.19.03c.12-.08-.09-.09-.2-.12-.2-.11.36-.08.22-.22-.08-.02-.13,0-.21-.02.06-.1-.05-.12.01-.22.25-.06,0,.05.23,0l-.07.08c.14-.07.02.06.17.05.05-.05-.07-.13-.11-.19.1,0,0,.08.15.05l-.04-.03s.07.01.07.03c.1-.01,0-.04,0-.07-.05,0-.13,0-.21.01.01,0,.02,0,.04,0-.14-.07-.01-.18-.11-.24.03,0,.04,0,.06,0,.01-.04-.1-.08-.12-.14.07-.03.19.02.17-.07-.07-.02-.2.02-.18-.05,0,0,.04.06.1.03-.03-.07.03-.02.12-.09-.09-.04.04-.07-.1-.08.1-.02.07-.02.14-.06-.08.02-.06-.08-.15-.08.1-.02.11.08.22.02-.06-.04-.07-.11-.17-.12.03-.03.07-.04.09-.09,0,0,0,.02.02.02-.04-.08.04-.21-.04-.26.1.02.06-.18.14-.12,0-.04-.02-.09-.04-.1.06,0,.04-.09.08-.13-.03-.02,0-.08,0-.12,0,.02,0,.03.02.02,0-.04,0-.03.03-.07,0-.06-.03.01-.04-.02.02-.05.02,0,.04-.02,0-.03,0-.05-.01-.08,0-.02.01-.03.02-.03,0,0,0-.01,0-.02h0s0,0,0,0c0-.02,0-.04.02-.06l-.02.06h0s.02-.02.02-.02c0-.03,0-.05.01-.08.01-.04.02-.06.02-.07,0,0,0,0,0,0h0s0,0,0,0v.04s0-.03,0-.05c0,.02.02.08.03.12.03.13-.02.03-.01.12,0,.04.02.08.03.12h-.01s0,.03.01.04c-.02,0,0,.1,0,.14l.02-.02c.04.07.04.12.02.17-.02.05-.05.09-.02.15.02.02.05.05.08.07l-.06.02s.09.05.08.12c-.05.12-.03.25,0,.38.03.13.07.26.02.39.02,0,.03-.01.04-.03-.13.11-.06.2.04.28.09.08.21.16.1.26h-.05c.04.09-.05-.03-.12.05.17.01.14.13.21.19-.04,0-.04-.03-.06-.05-.04.01-.14.02-.11.04.26.06.25.2.35.31-.12.01-.22.1-.43.15.05.01.15.03.25.05,0,0,.02,0,.03-.01,0,0,0,0,.01,0,0-.02-.02-.03-.03-.03.12-.04.1,0,.25,0,0,.03.06.1-.05.11,0,.02-.01.03-.04.05.03.01.04.03.03.04h-.02s-.04,0-.05,0c-.06.07.19.16.32.21-.22-.05-.23.01-.39.01.01,0,.02-.06.01-.14-.02,0-.04.01-.09.01-.15.07.15.12.05.23-.02,0-.05-.02-.11-.02-.04.04.09.07.18.08-.15,0-.26.09-.19.13.13.03.19.03.18.09l-.11-.03c-.08.07.14.06.09.11,0-.02-.09-.01-.11,0,.07.08.13.08.37.13h-.18c.11.06.36.18.1.18.39-.02.23.14.22.2-.01-.02-.1-.02-.14-.03.28.12.03.24.05.37l-.31.02c.01.06.63.08.63.15l-.15-.03c.06.12.04.17,0,.27h-.22c.1.03.11.08.21.11-.53.08.31.32-.28.47h.42c0,.07.09.14-.23.17h0c-.33-.02,0,.04-.07.08.04.03.25.05.32.03-.21.15.04.38-.36.47.15.15.52.27.48.43h-.05c-.06.05-.18.16-.56.16.09.12.63.19.46.34l-.15-.03c-.08.04.11.09.16.11,0,.01-.08,0-.14,0-.13.03.08.05.12.08h-.13c-.27.1.27.28.21.42-.04-.03-.19-.01-.25,0,.44.06.34.22.45.28l-.17-.04c.29.12-.46.1-.17.22l.25-.07c-.07.05.01.09.21.08-.15.06-.34,0-.38.09-.06,0-.08-.01-.11-.03.68.46,1.22,1.12,1.48,2,.79,2.63,4.14,5.94,6.21,8.44,1.69,2.05,4.15,3.35,6.84,3.61.03,0,.06-.02.07-.04,1.49-3.49,3.86-3.46,4.05-3.45h0s0,0,0,0v.09s0,0,0,0h0c.18,0,2.56-.03,4.05,3.45.01.03.04.05.07.04,2.69-.25,5.15-1.56,6.84-3.61,2.07-2.5,5.42-5.8,6.21-8.44.26-.88.8-1.55,1.48-2-.03.01-.05.03-.11.03-.04-.08-.23-.04-.38-.09.2.01.28-.03.21-.08l.25.07c.3-.12-.46-.1-.17-.22l-.17.04c.1-.06,0-.22.45-.28-.06-.01-.21-.02-.25,0-.06-.14.48-.32.21-.44h-.13s.25-.04.12-.07c-.05,0-.13.01-.14,0,.05-.01.23-.07.16-.11l-.15.03c-.17-.14.37-.22.46-.34-.38,0-.5-.11-.56-.17h-.05c-.04-.16.33-.28.48-.43-.4-.09-.15-.32-.36-.47.06.02.28,0,.32-.03-.07-.04.25-.1-.07-.09h0c-.32-.01-.23-.09-.23-.14h.42c-.6-.16.24-.4-.28-.48.1-.04.11-.08.21-.12h-.22c-.04-.1-.07-.15,0-.27l-.15.03c0-.07.61-.09.63-.15l-.31-.02c.01-.12-.23-.25.05-.37-.04,0-.13,0-.14.03,0-.06-.17-.22.22-.2-.25,0-.01-.13.1-.19h-.18c.24-.05.3-.05.37-.12-.02-.02-.11-.02-.11,0-.05-.05.18-.04.09-.11l-.11.03c0-.06.05-.06.18-.09.07-.04-.04-.12-.19-.13.1,0,.22-.04.18-.08-.06,0-.09,0-.11.02-.1-.11.2-.16.05-.23-.05,0-.08,0-.09-.01,0,.08,0,.15.01.14-.15,0-.17-.07-.39-.01.13-.05.38-.15.32-.21-.01,0-.03,0-.05,0h-.02s0-.02.03-.03c-.02-.02-.04-.03-.04-.05-.12,0-.05-.08-.05-.11.15,0,.13-.04.25,0-.01,0-.02,0-.03.03,0,0,.01,0,.01,0,.01,0,.02,0,.03.01.1-.02.2-.04.25-.05-.21-.05-.31-.14-.43-.15.09-.1.09-.24.35-.31.03-.03-.07-.03-.11-.04-.03.02-.03.04-.06.05.07-.06.05-.17.21-.19-.07-.07-.16.04-.12-.06h-.05c-.12-.09,0-.17.1-.25.1-.08.17-.17.04-.28.02.02.02.02.04.03-.05-.13,0-.26.02-.39.03-.13.04-.26,0-.38-.01-.07.04-.08.08-.12l-.06-.02s.05-.05.08-.07c.03-.05,0-.1-.02-.15-.02-.05-.02-.1.02-.17l.02.02s.03-.15,0-.14c0,0,.02-.02.01-.03h-.01s.02-.08.03-.12c0-.09-.04.01-.01-.12.01-.04.03-.1.03-.12,0,.02,0,.05,0,.05v-.04s0,0,0,0h0s0-.01,0,0c0,0,0,.03.02.07,0,.03,0,.05.01.08l.02.02h0s-.02-.06-.02-.06c.01.03.02.05.02.06h0s0,0,0,0c0,0,0,.01,0,.02,0,0,.01.02.02.03,0,.03,0,.05-.01.08.02,0,.02-.03.04.02,0,.04-.04-.03-.04.02.02.04.04.03.03.07.01,0,.02,0,.02-.02,0,.04.02.1,0,.12.04.04.02.13.08.13-.01.01-.04.07-.04.1.08-.06.03.13.14.12-.08.05,0,.17-.04.26,0,0,.02-.01.02-.02.02.05.06.06.09.09-.1,0-.11.08-.17.12.12.06.12-.04.22-.02-.09,0-.07.1-.15.08.08.04.04.04.14.06-.15,0-.02.04-.1.08.09.06.15.02.12.09.06.03.1-.03.1-.03.02.07-.11.03-.18.05-.02.09.1.04.17.07-.02.05-.13.1-.12.14.02,0,.03.01.06,0-.1.06.03.17-.11.24.01,0,.03,0,.04,0-.08-.01-.15-.01-.21-.01,0,.03-.09.06,0,.07,0-.02.04-.02.07-.03l-.04.03c.15.03.05-.05.15-.05-.04.07-.15.14-.11.19.15.01.04-.12.17-.05l-.07-.08c.23.06-.02-.05.23,0,.06.1-.05.12.01.22-.08.02-.13,0-.21.02-.14.15.42.12.22.22-.1.03-.32.04-.2.12l.19-.03c.04.1-.27.06-.13.16.08-.02.06-.08.08-.06.17.07-.11.05-.1.1h.18c0,.12-.13.23-.15.35.06,0,.11-.03.18,0-.08.15.06.32.21.46l-.18.05s.09.02.12,0c.08.06-.12,0-.19.03,0,.03.11.04.17.02-.14.1-.32.28-.1.38l.06-.02c.09.08-.4.09-.21.17h.03c.11.16-.08.36.26.49-.31.03.16.17-.28.18.23.1.3.07.46.21.02.04-.28.06-.32.1h.24s.05-.01.05-.01h0s-.05.01-.05.01l-.25.06.29.03-.06.04s0,.01-.02.02l.02-.02s-.11-.04-.18-.03c-.1.07.18.17.31.17l-.19.16c.07,0,.11-.02.15-.04-.13.06.29,0,.08.08-.06-.01-.15,0-.2,0,.15.04.16.13.1.2h.17c.05.11-.06.24-.05.37-.09-.05-.39-.04-.42,0l.27.02c-.17.03-.1-.04-.31.01.03.05.31.03.4,0l-.09.06c.08,0,.12-.01.23-.01-.17.03.28.11-.01.14h.08c.01.14-.08.2-.09.31-.24,0-.19.04-.38.08.08.08.28.17.26.27-.12.07-.21.02-.35.05.22,0,.21.1.37.05-.03.12-.04.15-.22.3-.09-.02-.13-.03-.21-.02-.04.03.1.06.21.06h.02c-.12.05-.07.12.03.19,2.78-.42,6.01,1.4,4.92,5.05-.16.52.49.92.91.55,3.62-3.18,5.98-16.49,3.87-21.25ZM108.21,96.25s-.07.01-.11.02c0-.08.02-.01.11-.02ZM109.57,99.92v-.03s.09.05.09.05l-.09-.03ZM146.85,99.99v.03s-.07.03-.07.03l.07-.05ZM148.23,96.35c.08,0,.1-.06.11.02-.03-.01-.07-.02-.11-.02ZM152.28,79.52s0,.04.01.05l.03.04s.04-.02.06.08l-.06-.08s-.02,0-.03-.04l-.03-.04.02-.02ZM151.65,79.57l.02.09s.02.06.03.12l-.03-.12c-.06-.17-.08.31-.16.11.04-.03.06-.27.14-.21ZM146.43,80.8l.11.26-.11-.06v-.2ZM137.33,74.53c.03.1.07.33.03.29l-.1-.38.06.09ZM137.26,74.79c.03.1.02-.09.09.14.03.31-.01.33-.11.09,0,.09.04.19.05.26-.07-.18-.17-.5-.23-.86.11.36.08.21.21.64.04.04.02-.13-.01-.28ZM136.97,74.33s0,.04.01.05l.02.04s.02-.02.05.08l-.05-.08s-.01,0-.02-.04l-.02-.04v-.02ZM136.6,74.37l.02.09s.02.06.03.12l-.03-.12c-.06-.17-.01.3-.08.11.02-.03,0-.27.06-.2ZM119.81,74.37l.02-.09c.05-.07.04.17.06.2-.07.19-.02-.28-.08-.11l-.03.12c.01-.06.02-.09.03-.12ZM119.65,74.43s.03-.08.05-.1c0,.02,0,.04-.01.06,0,0,.01-.01.02-.01,0-.01.02-.01.02,0,0,0-.02,0-.02,0-.01.02-.02.06-.05.14,0-.03.01-.08.03-.12,0,0-.02.02-.03.04-.05.12-.1.32-.14.45.01.18.09-.21.13-.23-.01.13-.02.22-.05.31.08-.12.12-.14.14.04,0,0-.11.22-.12.41.14-.17.24-.55.4-.74.25-.5.15.38.33.01.04-.14,0-.26.08-.34-.08.28-.01.19-.04.3.16-.4.06.11.18-.16-.04.1-.03.21-.03.31.01-.04.02-.08.04-.14l-.04.14h0c-.1.34.03.15-.19.63.22-.51.11.16.39-.62v-.1s.05.18.05.18h0s-.01-.06-.02-.13l.02.13c.02.07.05-.02,0,.35-.05.08-.08.07-.12.15-.04.32.17-.24.22-.24-.07.25-.08.08-.15.39.02.05.11-.13.16-.19l-.04.14c0,.34.23-.68.16-.19.02-.08.06-.17.08-.25-.02.15-.04.42-.14.58.03,0,.1-.1.16-.25.03-.21,0-.11.07-.38l.17-.1s-.05.13-.07.13c-.08.78.49-.53.38.4.05-.23.08-.2.14-.35.03.09.13.05.13.21l-.07.15c.19-.15.36-.36.41-.24.03-.07-.08.22-.11.26.16-.26-.08.65.15.06v-.05c.08.14.37-.25.53-.28-.1.36-.09.01-.22.44.04.16.23-.1.28.05-.03.04-.04.08-.06.1,0,.26.12-.36.18-.27-.07.17-.08.22-.09.32l.13-.27s-.1.26-.14.35c.18-.36.18-.06.35-.4-.03.09-.18.41-.22.55,0,.12.08,0,.16-.13h0s0,0,0,0c.07-.18.08-.16.1-.13.03-.04.06-.04.05.03-.04.04-.04,0-.05-.03-.03.03-.06.08-.1.13,0,0,0,0,0,0-.07.25.02.25-.02.28.03.14.09-.19.23-.38v-.18s.14-.04.14-.04l-.11.15c0,.15.17-.13.22-.1l.06-.21.12-.1c-.17.41.04.13-.19.59.03.25.33-.25.46-.24-.02,0-.05.08-.08.14.02.12.15-.08.29-.28-.06.12-.1.16-.15.27.07.03.15-.21.29-.3-.1.16-.13.25-.13.3.06-.15.13-.25.17-.28-.43.78-.06.37-.39.99.08-.17.37-.47.48-.81l-.05.05c.1-.22.09-.12.12-.13.04-.04.07-.06.02,0,0,0-.01,0-.02,0-.03.03-.07.08-.09.12.24-.22.25.09.47-.05-.05.08-.17.2-.17.28.07.18.35-.2.58-.34-.25.51-.18,0-.42.48.19-.05.42-.16.71-.34-.33.76.31-.23.1.39.12-.25.22-.32.27-.3h0s0,0,0,0c.03.01.04.04.05.08l-.05-.08s0,0,0,0c-.12.19-.07.22-.17.36.17-.2.35-.23.08.24.26-.45.08.07.3-.24,0-.05.03-.11.07-.22l-.02.15s-.03.05-.05.07c-.04.2.17-.03.16.15.14-.3.15-.1.24-.2-.02.02-.06.05-.08.09-.12.26.2-.17.16,0-.04.11-.16.26-.14.3.12-.2.36-.38.26-.11-.02-.01-.08.09-.14.16.39-.24.33.29.77,0l-.24.32c-.15.5.42-.51.49-.4.15.29.1.87.41.89h0s0,0,0,0v.09s0,0,0,0h0c.31-.02.26-.6.41-.89.06-.1.64.9.49.4l-.24-.32c.44.3.38-.23.77,0-.06-.07-.12-.17-.14-.16-.11-.27.14-.09.26.11.02-.04-.1-.19-.14-.3-.05-.17.28.26.16,0-.02-.04-.06-.07-.08-.09.09.11.1-.1.24.2,0-.18.2.05.16-.15-.02-.02-.03-.04-.05-.07l-.02-.15c.04.11.07.18.07.22.21.3.04-.22.3.24-.27-.47-.08-.44.08-.24-.09-.14-.04-.17-.17-.36,0,0,0,0,0,0l-.05.08s.02-.07.05-.08h0s0,0,0,0c.06-.02.15.05.27.3-.21-.62.43.37.1-.39.29.18.52.29.71.34-.24-.48-.17.02-.42-.48.23.13.51.51.58.34,0-.08-.12-.2-.17-.28.23.14.23-.17.47.05-.02-.05-.06-.09-.09-.12,0,0,0,0-.02,0-.05-.05-.02-.03.02,0,.03,0,.02-.09.12.13l-.05-.05c.11.34.4.64.48.81-.33-.62.04-.21-.39-.99.03.04.1.13.17.28,0-.05-.03-.14-.13-.3.14.09.22.34.29.3-.05-.11-.08-.14-.15-.27.13.2.26.39.29.28-.03-.06-.06-.15-.08-.14.13-.01.43.49.46.24-.24-.46-.03-.17-.19-.59l.12.1.06.21c.05-.03.23.25.22.1l-.11-.15.14.04v.18c.15.19.21.52.24.38-.03-.04.05-.03-.02-.28,0,0,0,0,0,0-.03-.05-.07-.1-.1-.13,0,.03-.01.07-.05.03,0-.07.02-.06.05-.03.01-.03.02-.04.1.13h0c.08.12.16.25.16.13-.04-.14-.19-.45-.22-.55.16.34.17.04.35.4-.04-.08-.13-.3-.14-.35l.13.27c0-.1-.02-.15-.09-.32.06-.08.18.54.18.27-.02-.02-.03-.06-.06-.1.05-.16.25.11.28-.05-.13-.43-.11-.08-.22-.44.16.04.45.42.53.28v.05c.22.59-.02-.32.14-.06-.03-.04-.13-.33-.11-.26.05-.12.22.09.41.24l-.07-.15c0-.15.1-.12.13-.21.07.15.09.11.14.35-.11-.93.46.38.38-.4-.02,0-.08-.12-.07-.13l.17.1c.07.27.03.16.07.38.06.15.13.26.16.25-.11-.16-.12-.42-.14-.58.02.08.05.17.08.25-.07-.49.16.53.16.19l-.04-.14c.05.06.14.24.16.19-.07-.31-.08-.13-.15-.39.06,0,.26.56.22.24-.04-.08-.08-.07-.12-.15-.05-.37-.02-.28,0-.35l.02-.13c0,.07,0,.1-.02.13h0s.04-.17.04-.17v.1c.28.79.17.12.4.62-.21-.48-.09-.28-.19-.63h0s-.04-.14-.04-.14c.02.06.03.1.04.14,0-.1,0-.22-.03-.31.11.27.01-.24.18.16-.03-.11.04-.02-.04-.3.08.08.04.2.08.34.18.37.08-.51.33-.01.15.19.26.57.4.74-.01-.19-.12-.41-.12-.41.01-.18.06-.16.14-.04-.03-.1-.04-.18-.05-.31.05.02.12.41.13.23-.04-.12-.09-.32-.14-.45-.01-.01-.02-.03-.03-.04.01.05.02.09.03.12-.02-.08-.03-.12-.05-.14,0,0-.02,0-.02,0,0-.01.02-.01.02,0,0,0,.01,0,.02.01,0-.02,0-.04-.01-.06.01.02.03.05.05.1.07.09.16.3.23.39-.03-.2-.09-.29-.14-.42.07.08.18.15.26.46v.09s0,.03-.01.03v-.03c0-.07-.05-.25-.07-.3-.1-.23-.04.12-.02.24l.05.07c.11.67-.16-.08-.22-.02l.13.48-.16-.39c.01.13.06.4.11.47,0,.25-.08-.16-.06.11,0,.04.01.07.02.08l-.08-.13c.03.1.07.34.08.27-.02.3-.22-.33-.16.04v.03c-.14-.14-.08-.35-.27-.75l.15.88-.1-.35s-.03.05.01.19c-.1-.23-.03-.16-.11-.38.02.33-.2-.11-.07.45-.09-.26,0-.22-.11-.39.14.61-.1-.09-.08.2.1.31.1.13.12.42-.17-.52-.07.14-.14.05.01.06.03.13.06.23,0,.02-.1-.31-.14-.45.04.13.07.19.08.22-.11-.42-.14-.15-.25-.28.04.14-.07.26-.1.43l.02.07c-.13-.42-.18-.32-.25-.39.08.25.11.35.17.45h-.05c.02.06.03.11.05.16l-.07-.15h.01c-.05-.13-.09-.2-.13-.24l.1.31c-.07,0-.23-.33-.25-.1-.09-.29-.18-.83-.33-1,.04.16.12.43.17.49-.01-.02-.07-.12-.06-.05l.12.25c0,.13-.09-.22-.11-.18.07.22.03.17.09.34.01.02,0-.1.03-.02-.02.05-.02.2.02.37.01.05.02.09.03.12-.01-.04-.02-.08-.03-.12-.04-.13-.09-.3-.13-.32-.07,0,.06.28.06.4-.06-.15-.05.02-.16-.31-.02,0,.03.16.05.26-.08-.14-.16,0-.24-.36h0s0-.02,0-.04c-.22-.3-.16.26-.31.15l.04.11c-.11-.11-.16-.03-.29-.26-.02,0,.03.22.08.35-.08-.07-.13-.19-.13.01.12.18.05.18.1.13-.03.11.02.3-.15.01.13.28.09.37.03.29l-.03-.22s-.07,0-.09.04l.15.37c.05.49-.51-.68-.31.11-.13-.25,0-.21-.15-.5-.04.07.11.62.1.63,0,.23-.28-.51-.31-.34-.04-.13-.17-.49-.29-.59-.04.07.16.58.23.67.02,0,0-.04-.01-.08-.02-.02-.04-.04-.05-.07.01,0,.03.04.05.07.04.04.08.09.12.24l-.06-.13c.03.14-.05.16.05.37-.09-.11-.11-.21-.1-.29,0,.22-.11.05-.13.21,0,.04.01.06,0,.03,0-.01,0-.02,0-.03-.02-.08-.07-.23-.08-.23-.04.2-.15-.23-.25-.26.04.21.22.47.07.33.01.15.14.35.2.45-.17-.22-.05.21-.07.27l.08.09c-.05-.05-.06-.05-.08-.04l-.09-.27c0,.05-.02.06.03.17-.1-.16-.17-.44-.32-.65.03.14-.15-.11,0,.24.03-.14.13.27.22.36-.02,0-.03,0-.02.04.01.04.03.07.05.09,0,0,0,0,0,0,.03.03.02.03,0,0,.06.34-.21-.37-.29-.33.1.19.15.37.12.34.03-.02-.13-.33-.23-.46.01.17-.11-.09-.13-.06v.05s0-.04,0-.05v-.08c-.1-.19-.12-.15-.18-.19.07.15.08.09.1.16-.2-.32.07.39-.09.19.03.14.17.36.19.46-.18-.22.06.29-.11.12-.11-.27-.07-.2-.24-.43l.2.13-.25-.34s.15.13.15.07c-.13-.19-.1-.13-.19-.35.14.41-.2-.18-.13.11l.31.63c.06.32-.3-.26-.32-.05l-.02-.13c-.14-.24-.08,0-.17-.09.11.21.13.3.18.43.02.03.03.07.06.14-.03-.05-.04-.1-.06-.14-.08-.16-.07.05-.29-.36l.1.3c-.02.15-.41-.55-.45-.44.14.21.19.38.33.52-.03.01-.03.06-.11-.08.05.14-.22-.24-.14-.04.02.03.03.04.03.03,0,.02,0,.03-.02,0,0-.02-.01-.03-.02-.04-.06-.09-.18-.3-.2-.27.02.04.06.1.06.1-.06-.1-.12-.12-.22-.36.27.69-.26.07-.02.66h.02s0,.06,0,.06c0-.02-.02-.04-.03-.06-.1-.04-.2-.06-.26-.05.04.06.06.1.06.08.04.23-.38-.56-.34-.3.15.35.15.15.19.29.38.68-.15-.04.02.39l.04.03c.09.25-.25-.2-.29-.11,0,0,.04.06.06.1-.25-.31-.41-.37-.53-.43.18.25.11.12.26.39-.05-.02-.25-.43-.36-.47.07.15.1.3.27.58l.06-.02c.2.38-.08.03-.07.11l.1.16c-.12,0-.37-.4-.44-.32l-.07-.12c-.3-.36.1.24-.14-.02l.24.41c-.09-.08-.36-.31-.47-.35.23.27.39.38.54.53-.03.02-.12.04-.27-.14.04.03.12.12.09.05-.24-.29-.39-.4-.45-.36.52.75-.04.3.32.92-.3-.21-.13.26-.29.3-.37-.61-.05,0-.47-.59-.06-.02-.06,0-.04.04v-.03s0,.02,0,.03c.07.11.36.39.43.58-.13-.27-.29-.27-.43-.58h0s.17.41.17.41c.1.19.12.11.22.25-.03.09.16.27.23.45-.15-.22-.24-.29-.22-.18l-.15-.31c-.32-.25.29.54-.03.3l.16.17c-.12-.08-.16.12-.56-.31.04.07.15.24.21.27-.05.15-.62-.32-.48.03l.12.13c-.05-.03-.24-.24-.16-.08.05.06.12.13.12.15-.05-.04-.25-.21-.21-.11l.15.14c.03.15-.14.03-.31-.1h0s0,0,0,0v-.09s0,0,0,0h0c-.17.14-.34.26-.31.1l.15-.14c.04-.1-.16.06-.21.11,0-.02.07-.09.12-.15.09-.16-.1.05-.16.08l.12-.13c.14-.35-.43.12-.48-.03.05-.03.16-.2.21-.27-.4.44-.43.24-.56.31l.16-.17c-.31.25.29-.55-.03-.3l-.15.31c.02-.1-.07-.03-.22.18.07-.18.26-.37.23-.45.09-.14.11-.06.22-.25l.17-.41h0c-.13.31-.29.31-.43.58.06-.19.35-.47.43-.58,0-.01,0-.02.01-.03v.03s0-.06-.05-.04c-.42.6-.1-.02-.47.59-.15-.04.01-.5-.29-.3.36-.62-.2-.16.32-.92-.06-.05-.21.07-.45.36-.03.07.05-.02.09-.05-.14.18-.24.17-.27.14.15-.15.32-.25.54-.53-.11.04-.37.27-.47.35l.24-.41c-.24.26.16-.34-.14.02l-.07.12c-.07-.08-.33.32-.44.32l.1-.16c.01-.08-.27.27-.07-.11l.06.02c.17-.28.2-.43.27-.58-.11.04-.3.45-.36.47.15-.27.08-.14.26-.39-.12.06-.28.12-.53.43.02-.04.06-.1.06-.1-.04-.09-.38.36-.29.11l.04-.03c.18-.42-.36.29.02-.39.05-.14.04.06.19-.29.04-.26-.38.53-.34.3,0,.03.02-.02.06-.08-.06-.01-.17.01-.26.05,0,.02-.02.04-.03.06v-.05s.03,0,.03,0c.24-.6-.29.02-.02-.66-.1.24-.17.26-.22.36,0,0,.04-.06.06-.1-.02-.03-.14.18-.2.27,0,.01,0,.02-.02.04-.02.02-.02,0-.02,0,0,.01.01,0,.03-.03.08-.21-.2.17-.14.04-.08.14-.08.09-.11.08.14-.14.18-.3.33-.52-.04-.11-.43.59-.45.44l.1-.3c-.23.41-.21.21-.29.36-.02.04-.03.08-.06.14.02-.07.04-.1.06-.14.05-.14.07-.22.18-.43-.08.09-.03-.15-.17.09l-.02.13c-.02-.21-.39.37-.32.05l.31-.63c.07-.29-.27.3-.13-.11-.09.22-.05.16-.19.35,0,.05.12-.09.15-.07l-.25.34.2-.13c-.17.23-.13.17-.24.43-.16.17.08-.34-.11-.12.02-.1.15-.32.19-.46-.16.2.11-.51-.09-.19.02-.07.03,0,.1-.16-.07.04-.08,0-.18.19v.08s0,.02,0,.05v-.05s-.15.23-.13.06c-.1.14-.26.45-.23.46-.03.04.02-.15.12-.34-.08-.04-.35.67-.29.33-.02.02-.03.02,0,0,0,0,0,0,0,0,.01-.02.03-.05.05-.09,0-.04,0-.05-.02-.04.09-.09.19-.5.22-.36.14-.35-.03-.1,0-.24-.14.22-.22.49-.32.65.05-.11.03-.12.03-.17l-.09.27s-.03-.02-.08.04l.08-.09c-.02-.06.11-.5-.07-.27.06-.1.19-.3.2-.45-.14.14.03-.12.07-.33-.1.03-.21.46-.25.26-.01,0-.06.15-.08.23,0,0,0,.02,0,.03-.01.03-.01,0,0-.03-.02-.16-.13.01-.13-.21,0,.08-.01.18-.1.29.11-.21.03-.22.05-.37l-.06.13c.04-.15.08-.2.12-.24.01-.03.03-.07.05-.07-.01.03-.03.05-.05.07-.02.04-.03.09-.01.08.08-.09.27-.6.23-.67-.11.1-.24.45-.29.59-.02-.17-.32.57-.31.34-.02,0,.13-.56.1-.63-.15.29-.02.25-.15.5.2-.79-.36.39-.31-.11l.15-.37s-.04-.07-.09-.04l-.03.22c-.06.08-.1-.02.03-.29-.18.28-.12.1-.15-.01.05.05-.02.05.1-.13,0-.2-.05-.08-.13-.01.05-.13.1-.34.08-.35-.13.22-.19.15-.29.26l.04-.11c-.15.11-.09-.45-.31-.15,0,.02,0,.03,0,.05h0c-.08.36-.16.22-.24.35.02-.09.07-.25.05-.26-.11.33-.1.16-.16.31,0-.13.13-.4.06-.4-.03.02-.09.2-.13.32,0,.04-.02.08-.03.12,0-.03.02-.07.03-.12.04-.17.04-.32.02-.37.04-.08.02.04.03.02.06-.18.02-.12.09-.34-.02-.03-.11.31-.11.18l.12-.25c0-.07-.05.03-.06.05.04-.06.12-.33.17-.49-.15.17-.23.71-.33,1-.02-.23-.18.1-.25.1l.1-.31s-.08.1-.13.24h.01s-.07.15-.07.15c.02-.06.04-.11.05-.15h-.05c.06-.12.1-.21.17-.46-.07.07-.12-.03-.25.39l.02-.07c-.02-.17-.14-.29-.1-.43-.11.12-.14-.14-.25.28.02-.02.04-.08.08-.22-.04.14-.13.46-.14.45.02-.1.04-.17.06-.23-.07.09.03-.57-.14-.05.02-.29.03-.11.12-.42.02-.29-.21.41-.08-.2-.11.17-.02.13-.11.39.13-.56-.09-.12-.07-.45-.08.22,0,.15-.11.38.04-.14.02-.17.01-.19l-.1.35.15-.88c-.19.39-.13.61-.28.75v-.03c.07-.37-.13.26-.15-.04.01.08.05-.17.08-.27l-.08.13s.02-.04.02-.08c.02-.28-.07.14-.06-.11.05-.06.1-.34.11-.47l-.16.39.13-.48c-.06-.05-.32.7-.22.02l.05-.07c.02-.11.08-.47-.02-.24-.02.04-.07.23-.08.3v.03s0-.01,0-.03v-.09c.07-.31.18-.38.25-.46-.04.13-.11.22-.14.42.07-.09.16-.29.23-.39ZM122.84,75.22l-.03.19-.08.07.11-.26ZM133.6,75.31l.11.26-.08-.07-.03-.19ZM136.63,76.33c0,.4-.05-.29-.14-.21l.06-.11c.02.13.04.3.08.32ZM136.35,76.61c-.06-.11-.07-.13-.07-.25.06.05.05.18.07.25ZM134.98,76.5v.13c-.04-.12-.01-.1,0-.13ZM134.62,77.16s-.04-.11-.11-.29l.11.29ZM134.23,77.64l-.09-.08.06.05.03.04ZM131.41,78.72l-.17-.33c.05.05.26.42.17.33ZM130.08,79.04c.09.17.12.29,0,.14.01-.04-.04-.17,0-.14ZM128.22,81.31v-.09s0,0,0,0h0c-.05.01-.09,0-.11-.03l.05-.06s.02-.12.07-.22v.09c.05.1.06.17.07.22l.05.06s-.06.04-.11.03h0s0,0,0,0ZM126.35,79.09c-.12.14-.09.02,0-.14.04-.03-.01.1,0,.14ZM125.2,78.29l-.17.33c-.09.08.12-.29.17-.33ZM122.29,77.47l-.09.08.03-.04.06-.05ZM121.92,76.78c-.07.17-.06.25-.11.29l.11-.29ZM121.45,76.54v-.13s.04,0,0,.13ZM120.15,76.26c0,.12-.01.14-.07.25.02-.07,0-.2.07-.25ZM119.95,76.03c-.09-.07-.13.61-.14.21.04-.02.07-.19.08-.32l.06.11ZM119.43,74.33l.02-.04s0-.03.01-.05v.02s-.01.04-.01.04c0,.04-.02.04-.02.04l-.05.08c.03-.09.04-.08.05-.08ZM119.16,74.97c.12-.43.1-.28.21-.64-.05.36-.16.68-.23.86.02-.07.05-.17.05-.26-.1.24-.14.21-.11-.09.06-.24.06-.05.09-.14-.03.14-.05.31-.01.28ZM119.11,74.43l.06-.09-.1.38s0-.19.03-.29ZM110.01,80.9l-.11.06.11-.26v.2ZM104.76,79.57l.02-.09c.07-.07.1.17.14.21-.07.2-.1-.28-.16-.11l-.03.12c.01-.06.02-.09.03-.12ZM104.11,79.52l.03-.04s0-.03.01-.05l.02.02-.03.04s-.02.04-.03.04l-.06.08c.03-.09.05-.08.06-.08ZM103.59,79.9c-.05.04-.03-.19,0-.29l.09-.09-.09.38ZM103.63,80.02c.06-.24.09-.05.12-.14-.03.14-.02.32.03.28.12-.44.11-.28.22-.64-.02.36-.13.68-.21.86.01-.07.05-.17.04-.26-.12.24-.19.21-.2-.1ZM105.19,81.48c.07-.02.07-.2.07-.33l.13.12c-.18-.09-.08.62-.19.2ZM105.74,81.8c.02-.07-.03-.21.05-.25.04.12.02.15-.05.25ZM108.11,81.94l-.04-.14s.08.01.04.14ZM108.88,82.54l.09-.29c-.06.18-.02.26-.09.29ZM109.52,87.75c.03-.07.09-.15.11-.24-.17.2-.23.17-.16-.14.12-.22.09-.03.15-.11-.06.13-.1.3-.04.28.23-.39.18-.24.37-.57-.11.35-.3.63-.42.79ZM109.54,86.96l.1-.07-.18.35c-.06.03.02-.19.08-.28ZM109.71,83.11l.04-.03.09-.04-.13.08ZM110.48,89.11c.07,0,.12-.17.15-.3l.08.14c-.14-.12-.24.58-.23.15ZM110.89,89.53c.04-.06.03-.21.12-.23,0,.12-.02.15-.12.23ZM112.98,90.18v-.14s.07.03,0,.14ZM113.51,90.93l.16-.26c-.1.16-.09.25-.16.26ZM114.1,91.65l.04-.02.09-.02-.14.05ZM118.28,94.34c-.12.05.16-.27.23-.3l-.23.3ZM120.17,95.6c-.16.11-.12-.02,0-.17.05-.02-.01.12,0,.17ZM123.94,100.53l.13-.04v.04s-.13,0-.13,0ZM132.36,100.63v-.04s.13.04.13.04h-.13ZM136.26,95.7c.02-.05-.05-.19,0-.17.11.15.15.28,0,.17ZM138.16,94.43l-.23-.3c.07.03.35.35.23.3ZM142.2,91.7l.09.02.04.02-.14-.05ZM142.76,90.76l.16.26c-.07-.01-.06-.1-.16-.26ZM143.45,90.14v.14c-.07-.11-.02-.1,0-.14ZM145.43,89.39c.09.02.08.17.12.23-.09-.09-.12-.11-.12-.23ZM145.73,89.05l.08-.14c.03.13.08.3.15.3.01.42-.09-.28-.23-.15ZM146.64,87.7v-.03c-.02-.07-.1-.24-.14-.27-.17-.2-.05.14-.01.25l.08.05c.22.65-.25-.02-.33.06l.24.44-.27-.33c.03.13.13.39.21.43.03.25-.14-.13-.08.14.01.04.02.06.04.08l-.13-.11c.06.09.13.32.15.24,0,.31-.36-.25-.25.11l.02.02c-.24-.08-.17-.32-.48-.66l.29.85-.17-.32s-.04.06.03.19c-.17-.19-.06-.15-.2-.34.06.34-.3-.03-.07.5-.15-.24-.01-.23-.19-.36.25.57-.15-.05-.1.25.17.28.16.09.21.39-.29-.47-.1.18-.21.11.03.06.06.13.1.22-.01.02-.17-.28-.24-.4.07.12.11.17.14.19-.2-.39-.22-.1-.4-.17.07.13-.1.31-.13.5l.04.06c-.22-.38-.29-.26-.4-.3.12.23.19.32.28.4l-.07.03s.06.08.09.13l-.11-.13h.02c-.08-.12-.14-.18-.21-.2l.17.28c-.1.03-.37-.25-.38,0-.15-.27-.31-.8-.53-.91.07.15.2.4.27.44-.02-.01-.1-.1-.09-.03l.18.22c0,.14-.14-.19-.17-.14.11.21.05.16.14.33.02.01,0-.11.05-.03-.03.06-.02.22.04.38.02.04.04.08.05.11-.02-.04-.04-.07-.05-.11-.06-.12-.15-.28-.2-.29-.1.03.1.27.11.4-.1-.13-.08.05-.25-.26-.03.02.05.16.08.25-.12-.11-.25.08-.38-.28h0s0-.02-.01-.04c-.33-.23-.23.35-.46.3l.06.1c-.16-.07-.24.05-.44-.14-.03.02.05.22.13.34-.12-.04-.19-.15-.19.08.18.14.07.17.15.09-.04.14.04.31-.23.09.19.24.13.36.04.31l-.05-.22c-.07-.01-.1.04-.13.08l.23.33c.07.51-.76-.5-.47.26-.2-.21,0-.23-.22-.47-.06.1.17.63.14.65,0,.25-.42-.43-.46-.23-.06-.13-.25-.46-.42-.51-.06.1.22.56.34.62.03,0,.01-.05-.02-.09-.03-.01-.06-.03-.07-.06.02,0,.05.03.07.06.06.03.12.06.17.21l-.09-.11c.04.15-.08.2.07.38-.14-.08-.16-.18-.15-.27,0,.24-.16.11-.2.29.01.04.02.06,0,.04,0-.02,0-.02,0-.04-.03-.08-.1-.22-.12-.21-.06.25-.22-.18-.36-.16.06.22.31.41.1.33.02.16.2.32.29.4-.25-.16-.08.27-.1.35l.12.06c-.07-.04-.09-.02-.12,0l-.13-.25c0,.06-.03.08.04.17-.14-.13-.25-.4-.45-.57.04.15-.21-.05,0,.27.05-.17.18.23.31.29-.02,0-.03.02-.03.06.02.04.05.06.07.07,0,0,0,0,0,0,.04.02.03.02,0,0,.08.35-.3-.31-.42-.22.14.16.21.35.16.32.05-.04-.18-.3-.32-.41.02.19-.16-.04-.19,0v.05s0-.05,0-.05v-.1c-.14-.16-.16-.11-.26-.13.09.14.12.06.14.13-.28-.26.09.41-.14.27.05.14.23.32.26.43-.26-.15.07.31-.16.19-.14-.25-.1-.2-.33-.37l.28.04-.35-.26s.21.07.21,0c-.19-.15-.14-.1-.26-.31.19.39-.29-.1-.19.19l.43.56c.07.34-.43-.14-.47.11l-.03-.13c-.19-.21-.12.04-.24-.02.15.18.17.27.24.41.02.03.04.06.08.13-.03-.05-.06-.09-.08-.13-.11-.14-.1.09-.41-.27l.13.3c-.04.19-.56-.42-.62-.27.2.17.25.35.44.43-.04.03-.04.09-.15-.04.07.13-.31-.17-.2.04.03.02.04.03.05.02,0,.02,0,.03-.03.02,0-.01-.01-.03-.02-.04-.08-.07-.24-.26-.28-.21.03.04.07.09.07.09-.07-.09-.17-.07-.3-.3.35.66-.37.22-.07.79,0,0,.02,0,.03,0v.06s-.02-.04-.03-.06c-.13,0-.28.03-.37.08.05.05.08.09.08.06.04.25-.51-.46-.47-.18.19.34.2.11.26.25.5.6-.21.04.01.44l.05.02c.12.25-.34-.1-.4.02,0,0,.05.05.08.09-.33-.24-.55-.23-.71-.23.24.2.15.08.34.33-.07,0-.32-.38-.47-.37.09.15.13.31.34.56l.09-.05c.25.35-.11.08-.1.17l.13.13c-.16.06-.48-.28-.59-.15l-.08-.12c-.39-.28.12.24-.19.05l.31.36c-.13-.04-.48-.19-.62-.18.29.21.51.25.71.35-.04.04-.18.11-.36-.03.05.02.15.08.12,0-.31-.22-.51-.28-.6-.19.66.64-.07.38.37.95-.4-.09-.2.39-.41.52-.46-.56-.07.04-.59-.48-.07,0-.08.03-.05.07v-.03s0,.02,0,.03c.09.1.46.29.53.49-.16-.27-.37-.18-.53-.49h0s.19.43.19.43c.13.18.16.07.27.19-.05.13.19.25.27.44-.18-.19-.31-.23-.28-.11l-.18-.3c-.41-.14.35.53-.06.39l.21.12c-.17-.03-.23.24-.73-.09.05.07.19.22.25.23-.08.21-.8-.07-.64.3l.15.11c-.07,0-.3-.17-.2-.02.06.05.15.11.14.13-.06-.03-.31-.13-.27-.02l.18.1c.04.31-.59-.08-.81-.02.41.34.43.58.44.69l.06.05c-.11.22-.61.04-.92.08.36.47-.12.51,0,.89-.06-.09-.33-.25-.4-.25.05.11-.39-.11,0,.18v-.02c.36.32.19.33.15.4l-.52-.37c.61.72-.64.26-.04.85-.16-.05-.2,0-.36-.05l.28.2c-.02.17-.03.25-.2.35l.22.11c-.04.09-.89-.45-.96-.39l.41.31c-.11.14.16.54-.33.43.06.04.19.12.22.1-.04.08.1.46-.47.05.38.25-.07.18-.29.15l.29.17c-.41-.16-.51-.22-.68-.19.02.04.16.13.17.11.04.11-.31-.12-.23.06l.21.08c-.03.09-.12.03-.37-.06-.15-.02-.03.2.23.37-.17-.09-.41-.17-.36-.08.09.07.17.09.2.1.11.25-.46,0-.24.26.09.06.14.09.16.12.06-.11.1-.2.07-.21.27.16.26.27.67.43-.24-.05-.76-.2-.68-.04.02.02.05.04.09.07h.04s-.02.05-.08.04c.03.05.05.09.04.12.22.14.06.17.05.22-.29-.17-.28-.09-.49-.28.02.02.04.01.07,0,0,0-.02,0-.03,0-.02-.02-.04-.04-.06-.06-.2-.09-.41-.18-.51-.21.38.3.53.54.78.7-.25.04-.29.25-.9.02-.09,0,.14.13.22.19.07,0,.08-.02.16.01-.19,0-.19.19-.59,0,.12.19.39.14.25.24l.13.05c.49.59-1.25-.1-.59.61-.04-.05-.06-.07-.12-.11.09.24-.06.37-.2.51v-.09c-.14-.14-.29-.27-.2-.51-.06.04-.08.06-.12.11.66-.71-1.08-.02-.59-.61l.13-.05c-.14-.1.13-.05.25-.24-.4.19-.4,0-.59,0,.09-.03.09,0,.16-.01.08-.06.31-.2.22-.19-.61.22-.65.01-.9-.02.25-.16.4-.4.78-.7-.1.04-.31.13-.51.21-.01.02-.03.03-.06.06,0,0-.02,0-.03,0,.03.02.05.03.07,0-.21.19-.2.11-.49.28-.01-.05-.17-.08.05-.22-.01-.03.01-.06.04-.12-.06.01-.09,0-.08-.03h.04s.06-.06.09-.07c.08-.16-.44-.01-.68.04.41-.15.4-.27.67-.43-.03,0,.01.1.07.21.02-.02.07-.06.16-.12.23-.26-.35,0-.24-.26.04,0,.11-.03.2-.1.04-.09-.2,0-.36.08.25-.17.38-.39.23-.37-.24.09-.34.16-.37.06l.21-.08c.08-.18-.27.06-.23-.06.01.02.15-.07.17-.11-.17-.03-.27.03-.68.19l.29-.17c-.23.03-.67.1-.29-.15-.57.41-.43.03-.47-.05.03.01.16-.06.22-.1-.49.11-.22-.29-.33-.43l.41-.31c-.07-.07-.92.48-.96.39l.22-.11c-.18-.1-.19-.18-.2-.35l.28-.2c-.16.05-.2,0-.36.05.6-.59-.64-.12-.04-.85l-.52.37c-.04-.07-.21-.08.15-.4v.02c.4-.29-.04-.07.01-.18-.07,0-.34.16-.4.25.12-.38-.37-.42,0-.89-.31-.05-.81.14-.92-.08l.06-.05c.01-.12.03-.35.44-.69-.21-.06-.85.33-.81.02l.18-.1c.04-.11-.2,0-.27.02,0-.02.08-.08.14-.13.1-.16-.13.01-.2.02l.15-.11c.16-.36-.56-.08-.64-.3.07,0,.2-.16.25-.23-.5.33-.56.06-.73.09l.21-.12c-.41.14.35-.53-.06-.39l-.18.3c.02-.12-.1-.08-.28.11.08-.19.32-.32.27-.44.12-.12.15-.01.27-.19l.19-.43h0c-.16.32-.37.23-.53.49.07-.21.44-.39.53-.49,0-.01,0-.02.02-.03v.03s0-.06-.07-.07c-.52.52-.13-.08-.59.48-.21-.14-.02-.62-.41-.52.44-.57-.29-.31.37-.95-.08-.09-.28-.03-.6.19-.03.07.07,0,.12,0-.19.15-.32.07-.36.03.2-.1.42-.14.71-.35-.14-.01-.5.13-.62.18l.31-.36c-.31.19.2-.33-.19-.05l-.08.12c-.11-.14-.43.21-.59.15l.13-.13c0-.09-.35.18-.1-.17l.09.05c.22-.25.26-.41.34-.56-.14,0-.39.37-.47.37.19-.24.11-.13.34-.33-.17,0-.38-.01-.71.23.03-.04.08-.09.08-.09-.06-.12-.52.23-.4-.02l.05-.02c.22-.41-.49.16.01-.44.06-.14.06.09.26-.25.04-.28-.51.43-.47.18,0,.03.02,0,.08-.06-.09-.05-.23-.07-.37-.08-.01.02-.02.04-.03.06v-.06s.02,0,.03,0c.31-.57-.42-.12-.07-.79-.13.23-.22.21-.3.3,0,0,.05-.05.07-.09-.03-.05-.19.14-.28.21,0,.01-.01.02-.02.04-.03.01-.03,0-.03-.02,0,.02.02,0,.05-.02.11-.2-.27.1-.2-.04-.1.13-.11.07-.15.04.19-.08.24-.26.44-.43-.07-.15-.58.46-.62.27l.13-.3c-.3.36-.3.13-.41.27-.02.04-.04.08-.08.13.03-.06.06-.1.08-.13.07-.13.09-.22.24-.41-.12.05-.05-.19-.24.02l-.03.13c-.04-.25-.55.23-.47-.11l.43-.56c.09-.29-.38.21-.19-.19-.12.21-.07.15-.26.31,0,.06.17-.05.21,0l-.35.26.28-.04c-.24.17-.19.12-.33.37-.23.11.1-.35-.16-.19.02-.1.21-.28.26-.43-.23.14.14-.53-.14-.27.02-.07.05,0,.14-.13-.1.02-.12-.03-.26.13v.1s.01.02,0,.05v-.05s-.21.19-.19,0c-.14.1-.37.37-.32.41-.05.02.02-.16.16-.32-.12-.09-.5.58-.42.22-.02.01-.04.01,0,0,0,0,0,0,0,0,.02-.01.05-.04.07-.07,0-.04-.01-.06-.03-.06.13-.06.26-.46.31-.29.2-.32-.05-.13,0-.27-.21.17-.32.44-.45.57.07-.1.04-.11.04-.17l-.13.25s-.05-.04-.12,0l.12-.06c-.03-.08.15-.51-.1-.35.09-.08.27-.23.29-.4-.21.08.04-.11.1-.33-.14-.02-.3.41-.36.16-.02-.01-.09.14-.12.21,0,.01,0,.02,0,.04-.02.02-.02,0,0-.04-.03-.18-.2-.05-.2-.29,0,.09-.01.19-.15.27.15-.18.03-.24.07-.38l-.09.11c.05-.15.12-.18.17-.21.02-.03.05-.06.07-.06-.02.03-.04.04-.07.06-.03.04-.04.08-.02.09.12-.06.39-.53.34-.62-.16.06-.36.38-.42.51-.04-.2-.46.48-.46.23-.02-.02.2-.55.14-.65-.22.25-.03.27-.22.47.29-.77-.54.25-.47-.26l.23-.33s-.06-.09-.13-.08l-.05.22c-.09.05-.15-.07.04-.31-.26.22-.19.05-.23-.09.08.08-.03.05.15-.09,0-.22-.08-.11-.19-.08.08-.11.16-.32.13-.34-.2.18-.28.07-.44.14l.06-.1c-.23.04-.12-.53-.46-.3,0,.02-.01.03-.01.05h0c-.13.35-.25.16-.38.27.04-.09.11-.24.08-.25-.17.31-.15.13-.25.26,0-.13.21-.37.11-.4-.05,0-.14.17-.2.29-.01.04-.03.07-.05.11,0-.02.03-.06.05-.11.07-.17.07-.32.04-.38.06-.07.03.05.05.03.1-.16.03-.12.14-.33-.03-.05-.17.28-.17.14l.18-.22c.01-.07-.07.01-.09.03.07-.04.2-.29.27-.44-.23.11-.38.65-.53.91-.02-.25-.28.02-.38,0l.17-.28c-.07.02-.13.08-.21.19h.02s-.11.13-.11.13c.03-.05.06-.1.09-.13l-.07-.03c.09-.08.16-.17.28-.4-.12.04-.18-.08-.4.3l.04-.06c-.03-.19-.2-.37-.13-.5-.17.08-.2-.21-.4.17.03-.02.07-.07.14-.19-.07.13-.23.43-.24.4.04-.09.07-.16.1-.22-.11.06.08-.58-.21-.11.05-.29.05-.11.21-.39.05-.29-.35.33-.1-.25-.17.13-.04.13-.19.36.23-.53-.13-.16-.07-.5-.14.2-.02.15-.2.34.07-.13.05-.17.03-.19l-.17.32.29-.85c-.31.33-.24.58-.48.66l.02-.02c.11-.36-.24.2-.25-.11.01.08.09-.15.15-.24l-.13.11s.03-.04.04-.08c.05-.28-.11.11-.08-.14.08-.05.18-.31.21-.43l-.27.33.24-.44c-.09-.08-.55.58-.33-.06l.08-.05c.04-.11.16-.45-.01-.25-.04.04-.12.2-.14.27v.03s0-.01,0-.03v-.1c.15-.28.31-.31.43-.36-.08.11-.18.18-.25.37.11-.07.27-.24.38-.3.03-.04.06-.07.08-.08,0,.02-.02.04-.03.06.01,0,.02,0,.03,0,.01,0,.02,0,.04.01-.01,0-.02,0-.04-.01-.02.01-.04.05-.08.12,0-.03.03-.07.05-.12-.02,0-.03.01-.05.02-.08.11-.18.29-.25.4,0,.19.15-.18.22-.18-.03.13-.05.21-.11.3.13-.09.2-.1.2.09,0,0-.18.18-.21.37.22-.12.41-.46.66-.6.41-.42.2.46.49.15.07-.13.02-.27.14-.32-.14.26-.03.19-.08.3.27-.34.08.14.27-.09-.06.08-.06.21-.07.31.02-.04.04-.08.07-.13l-.07.13h0c-.17.32.03.17-.32.58.37-.43.16.22.63-.48v-.11s.07.21.07.21h0s-.02-.07-.02-.15l.02.14c.03.08.08,0-.01.37-.07.06-.12.04-.19.11-.08.32.26-.17.35-.15-.12.23-.12.05-.24.34.03.06.17-.09.25-.13l-.07.13c-.02.36.38-.61.25-.13.04-.08.09-.15.13-.23-.04.16-.07.43-.24.55.04.02.15-.06.25-.2.06-.21,0-.12.12-.37l.25-.04s-.08.12-.11.11c-.15.79.75-.35.55.59.09-.22.12-.17.22-.3.04.11.19.11.19.28l-.1.13c.28-.08.54-.22.61-.07.04-.06-.12.2-.16.23.24-.21-.13.67.21.14v-.06c.11.19.55-.09.77-.06-.15.35-.13-.03-.32.38.05.2.35,0,.41.19-.05.03-.07.07-.09.08,0,.29.19-.33.27-.21-.11.15-.12.2-.14.3l.2-.24s-.15.24-.21.31c.26-.31.27.01.51-.28-.04.09-.26.37-.32.5,0,.13.12.03.24-.07.1-.16.12-.14.14-.1.05-.03.08-.02.07.05-.05.03-.06-.02-.07-.05-.04.02-.09.06-.14.1h0c-.1.25.02.28-.02.3.04.17.13-.17.34-.31v-.19s.21.02.21.02l-.16.12c-.01.17.24-.06.32,0l.08-.2.17-.05c-.24.38.06.16-.27.55.04.29.48-.11.66-.04-.03-.02-.07.06-.11.12.03.14.22-.01.41-.17-.09.11-.14.13-.21.23.1.08.21-.17.41-.2-.14.13-.19.22-.18.28.09-.14.18-.21.23-.24-.6.67-.08.38-.54.92.11-.15.52-.35.68-.67l-.07.03c.14-.2.13-.09.17-.09.06-.03.09-.04.02,0,0,0-.02,0-.02,0-.04.02-.09.05-.12.1.34-.13.35.22.67.17-.07.06-.24.14-.24.23.1.23.49-.06.81-.11-.34.46-.25-.08-.58.35.27.04.59.02.99-.05-.44.71.42-.11.15.5.16-.23.29-.26.37-.21h0s0,0,0,0c.03.03.06.07.07.11l-.07-.11s0,0-.01,0c-.17.16-.1.22-.22.33.22-.15.47-.09.12.32.35-.39.12.12.41-.12,0-.05.04-.12.09-.22l-.03.16s-.05.04-.07.06c-.05.21.24.05.23.25.18-.28.2-.04.32-.12-.02,0-.08.03-.1.07-.16.24.27-.1.22.07-.05.11-.21.23-.18.28.15-.18.48-.26.35,0-.02-.02-.1.07-.18.12.53-.09.47.5,1.04.38l-.31.25c-.19.51.55-.39.64-.23.22.45.16,1.18.67,1.3.11-.06.09-.11.2-.23,0,.06-.23.3-.05.19l.14-.16c-.26.54.71.14.16.88.39-.1.05.4.6.22-.09.18-.33.19-.3.3l.4-.07h-.03c.62-.26-.15.9.37.78h-.03c-.12.11-.21.26-.15.26.09-.06.11-.12.19-.22.35,0,.39.04.56.15-.22.08-.1.18-.33.39.19-.09.23-.23.43-.26.13.1.02.38.02.54.25-.14.23-.04.5-.25.13.12.3.11.44.28l-.09.08c.37-.22-.05.28.17.16-.12.09-.18.11-.27.19h.17c-.13.03-.46.26-.45.35.29-.12.14-.14.36-.26l-.29.26c.07.02.44-.24.48-.37.14.17.42.22.49.41l-.22.14c.14.03.23.14.09.33.06-.04.19-.1.25-.17.33-.1-.23.21,0,.16-.07.02-.13.03-.22.09l.41.02c-.15.12-.4.49-.2.48.09-.06.19-.17.19-.21h-.05s.05-.01.05,0h.12l-.33.3.38-.15.07-.05v.02s-.07.03-.07.03l-.3.22c.1.02.51-.24.52-.17-.06.32-.19.36-.38.69.6-.39.13.22.57-.04-.32.48.13.54.16.86l-.07.02c-.21.28.53-.18.48,0l-.11.03c-.22.32.18.39.51.37v.09c.34.02.73-.04.51-.37l-.11-.03c-.05-.19.69.28.48,0l-.07-.02c.03-.31.48-.38.16-.86.44.26-.02-.36.57.04-.19-.33-.33-.37-.38-.69,0-.07.42.19.52.17l-.3-.22-.07-.03v-.02s.07.05.07.05l.38.15-.33-.3h.12s.01-.02.05,0h-.05s.1.14.19.2c.2.01-.05-.36-.2-.48l.41-.02c-.09-.06-.15-.08-.22-.09.22.05-.34-.26,0-.16.06.06.18.13.25.17-.14-.18-.05-.3.09-.33l-.22-.14c.07-.19.35-.24.49-.41.04.13.41.39.48.37l-.29-.26c.22.12.07.14.36.26.02-.09-.32-.32-.45-.36h.17c-.09-.07-.15-.09-.27-.18.22.12-.2-.38.17-.16l-.09-.08c.14-.17.3-.16.44-.28.26.21.25.11.5.25,0-.16-.11-.44.02-.54.2.03.24.16.43.26-.23-.21-.11-.3-.33-.39.16-.11.2-.14.56-.15.08.1.1.16.19.22.07,0-.03-.16-.15-.25h-.03c.52.1-.25-1.06.37-.78h-.03s.4.06.4.06c.03-.11-.21-.11-.3-.3.54.18.21-.32.6-.22-.55-.74.42-.33.16-.88l.14.16c.19.11-.04-.13-.05-.19.11.12.09.18.2.23.51-.12.45-.86.67-1.3.09-.15.83.75.64.23l-.31-.25c.57.12.51-.47,1.04-.38-.08-.06-.15-.15-.18-.12-.14-.26.19-.18.35,0,.02-.05-.13-.17-.18-.28-.06-.17.38.17.22-.07-.03-.04-.08-.06-.1-.07.13.08.14-.16.32.12,0-.2.28-.04.23-.25-.02-.02-.04-.03-.07-.06l-.03-.16c.06.1.08.17.09.22.29.25.05-.27.41.12-.35-.41-.1-.47.12-.32-.12-.11-.05-.17-.22-.33,0,0,0,0-.01,0l-.07.11s.03-.09.07-.11h0s0,0,0,0c.08-.05.21-.02.37.21-.27-.61.59.21.15-.5.4.07.72.09.99.05-.33-.43-.25.11-.58-.35.32.04.71.34.81.11,0-.09-.17-.17-.24-.23.32.05.33-.3.67-.17-.03-.04-.08-.07-.12-.1,0,0-.01,0-.02,0-.07-.03-.03-.03.02,0,.04,0,.03-.12.17.09l-.07-.03c.16.32.56.52.68.67-.46-.54.06-.25-.54-.92.05.02.14.1.23.24,0-.06-.04-.15-.18-.28.2.03.3.27.41.2-.07-.1-.12-.12-.21-.23.19.15.37.31.41.17-.05-.06-.09-.14-.11-.12.18-.07.61.33.66.04-.34-.4-.04-.18-.27-.55l.17.05.08.2c.08-.06.33.17.32,0l-.16-.12.2-.02v.19c.21.14.31.48.35.31-.05-.02.08-.05-.02-.3h0c-.05-.04-.1-.08-.14-.1-.01.03-.02.08-.07.05,0-.07.03-.08.07-.05.02-.04.03-.06.14.1.12.1.24.2.24.07-.06-.13-.28-.41-.32-.5.24.29.25-.03.51.28-.07-.07-.19-.27-.21-.31l.2.24c-.01-.11-.03-.15-.14-.3.08-.12.26.5.27.21-.02-.01-.04-.06-.09-.08.07-.19.37.01.41-.19-.2-.41-.17-.03-.32-.38.23-.04.66.25.78.06v.06c.34.53-.04-.34.21-.14-.05-.03-.21-.29-.16-.23.07-.16.33,0,.61.07l-.1-.13c0-.16.15-.17.19-.28.1.13.13.08.22.3-.2-.94.7.2.55-.59-.03.01-.13-.09-.11-.11l.25.04c.11.25.05.16.12.37.1.13.21.22.25.2-.17-.12-.2-.39-.24-.55.03.08.09.15.13.23-.13-.48.27.48.25.13l-.07-.13c.08.04.22.19.25.13-.12-.29-.12-.11-.24-.34.08-.02.42.47.35.15-.07-.06-.12-.04-.19-.11-.1-.37-.04-.29-.01-.37l.02-.14c0,.07,0,.11-.02.14h0s.05-.2.05-.2v.11c.48.7.27.05.64.48-.35-.41-.15-.26-.32-.58h0s-.07-.13-.07-.13c.03.05.05.09.07.13-.01-.11-.01-.23-.07-.31.19.23,0-.25.27.09-.05-.11.06-.04-.08-.3.12.05.07.19.14.32.29.3.08-.57.49-.15.25.14.44.48.66.6-.03-.19-.21-.37-.21-.37,0-.19.08-.18.2-.09-.06-.09-.08-.17-.11-.3.07,0,.21.37.22.18-.07-.11-.17-.3-.25-.4-.02-.01-.03-.02-.05-.02.02.04.04.09.05.12-.04-.08-.06-.11-.08-.12-.01,0-.03,0-.04.01.01-.02.02-.02.04-.01,0,0,.02,0,.03,0,0-.02-.02-.04-.03-.06.02.01.05.04.08.08.11.07.27.24.38.3-.06-.19-.17-.26-.25-.37.12.05.28.08.43.36v.1s0,.03,0,.03ZM109.96,87.04c.05-.08.06-.07.08-.06l.04-.03s.02-.03.02-.05v.02s-.02.03-.02.03c-.02.03-.03.03-.04.03l-.08.06ZM110.55,87.28c.02-.05.04-.09.06-.11l.04-.09c.08-.05.04.19.07.23-.12.17-.01-.3-.11-.14l-.06.11ZM114.99,84.42l-.14.35c-.11.08.07-.3.14-.35ZM115.05,89.41l-.05.19-.12.04.17-.23ZM117.14,85.4s.03.12.06.17c-.12.15-.12,0-.06-.17ZM122.61,89.59l.11-.07.02.04-.13.03ZM133.69,89.65l.02-.04.11.07-.13-.03ZM139.24,85.66s.01-.2.06-.17c.06.18.06.31-.06.17ZM141.38,89.51l.17.23-.12-.04-.05-.19ZM141.44,84.51c.07.05.25.43.14.35l-.14-.35ZM145.71,87.41s-.02-.27.07-.23l.04.09s.03.06.06.11l-.06-.11c-.1-.15,0,.31-.11.14ZM146.33,87.02v-.02s.03.04.04.05l.04.03s.03-.02.08.06l-.08-.06s-.02,0-.04-.03l-.04-.03ZM146.81,87.6c.02.09.07.17.11.24-.12-.16-.31-.44-.42-.79.2.33.15.18.37.57.06.03.02-.15-.04-.28.05.09.03-.11.15.11.07.3,0,.34-.16.14ZM146.6,83.13l.09.04.04.03-.13-.08ZM146.79,86.99l.1.07c.05.09.14.31.08.28l-.18-.35ZM147.47,82.35l.09.29c-.07-.03-.03-.11-.09-.29ZM148.33,82.04c-.04-.12.01-.1.04-.14l-.04.14ZM150.64,81.64c.09.04.04.18.05.25-.07-.11-.09-.13-.05-.25ZM151.05,81.37l.13-.12c0,.13,0,.31.07.33-.11.41-.01-.29-.19-.2ZM152.41,80.24s0,.03-.01.03v-.03c.01-.07-.03-.26-.06-.3-.12-.24-.1.13-.08.24l.07.06c.04.68-.25-.07-.36-.02l.13.48-.19-.39c0,.13.02.41.09.47-.04.25-.1-.16-.13.12,0,.04,0,.07.02.08l-.11-.13c.03.1.04.35.08.27-.1.3-.3-.33-.29.05l.02.03c-.23-.13-.08-.35-.31-.75l.06.9-.08-.35s-.05.05-.02.19c-.12-.23-.02-.16-.1-.38-.04.34-.3-.1-.22.47-.09-.26.06-.23-.09-.4.09.62-.14-.08-.18.22.09.31.14.13.11.43-.16-.52-.15.15-.25.06.01.06.03.14.04.23-.02.02-.09-.31-.13-.45.04.13.07.19.09.22-.09-.42-.2-.15-.36-.26.04.14-.19.28-.28.45l.02.07c-.11-.42-.22-.32-.33-.39.06.25.1.35.17.46l-.08.02s.03.1.05.15l-.07-.15h.02c-.05-.14-.09-.2-.16-.24l.09.31c-.11,0-.31-.32-.4-.08-.08-.29-.08-.85-.28-1.02.03.16.09.44.15.49-.02-.02-.08-.12-.09-.05l.12.26c-.04.13-.09-.22-.13-.18.05.23,0,.17.05.35.02.02.02-.1.06-.02-.05.05-.09.21-.07.38,0,.05.02.09.02.12,0-.04-.02-.08-.02-.12-.03-.13-.07-.31-.12-.33-.11,0,.03.28,0,.42-.07-.15-.1.03-.18-.31-.03,0,0,.17.01.26-.09-.14-.28.02-.3-.36h0s0-.02,0-.04c-.28-.3-.34.28-.56.19l.03.11c-.14-.1-.27-.01-.41-.24-.03,0-.02.23.03.36-.11-.06-.15-.19-.22.03.14.18.02.18.13.12-.08.13-.05.31-.26.04.12.28.02.39-.05.31l.02-.23c-.07-.03-.11.01-.16.05l.14.37c-.08.52-.63-.68-.57.14-.14-.25.06-.22-.08-.52-.09.08-.03.66-.06.67-.07.25-.3-.51-.4-.33-.02-.14-.12-.51-.27-.6-.09.08.06.6.15.69.03,0,.03-.04.01-.09-.03-.02-.05-.04-.05-.07.02,0,.04.04.05.07.05.04.11.08.12.24l-.06-.13c0,.15-.15.18-.05.39-.12-.11-.1-.21-.07-.3-.07.23-.2.07-.29.24,0,.04,0,.06-.02.03,0-.01.01-.02.02-.03,0-.08-.04-.24-.06-.24-.14.23-.17-.23-.32-.25,0,.23.19.48,0,.35-.03.17.1.36.17.46-.21-.22-.16.25-.22.32l.1.09c-.06-.05-.09-.04-.12-.03l-.06-.28c-.02.06-.05.07-.01.18-.1-.16-.13-.45-.29-.67,0,.15-.2-.09-.09.27.1-.16.11.28.23.36-.02,0-.04.01-.06.05,0,.04.03.07.05.09,0,0,0,0,0,0,.03.03.02.03,0,0-.03.37-.21-.38-.36-.32.09.19.1.39.06.36.06-.02-.09-.34-.2-.47-.04.19-.15-.08-.2-.04l-.02.05s.01-.05.02-.05l.03-.09c-.09-.19-.13-.15-.23-.19.05.16.1.08.1.16-.21-.32-.04.42-.23.22,0,.15.14.37.13.48-.22-.21-.02.32-.23.15-.07-.28-.04-.22-.22-.44l.28.11-.28-.34c.06-.03.19.12.21.06-.15-.19-.11-.13-.17-.36.07.43-.26-.17-.25.14l.26.65c-.03.35-.39-.24-.52,0l.02-.14c-.13-.25-.13,0-.24-.07.09.22.09.31.12.46.01.03.02.07.04.14-.02-.06-.03-.1-.04-.14-.06-.16-.13.07-.33-.36l.03.32c-.1.17-.43-.55-.55-.41.14.22.14.4.31.53-.05.02-.07.08-.14-.07.03.15-.26-.24-.22-.01.02.03.04.04.04.03,0,.02,0,.03-.03.01,0-.02,0-.03,0-.04-.06-.09-.17-.31-.21-.27.01.05.05.11.05.11-.05-.11-.15-.11-.21-.37.14.74-.45.13-.32.76,0,0,.02,0,.03,0l-.02.06s0-.04-.01-.07c-.14-.03-.3-.04-.4-.01.04.06.05.11.06.08-.04.26-.37-.58-.42-.29.09.38.17.15.18.3.31.71-.23-.01-.13.44l.04.03c.04.27-.31-.18-.42-.07,0,0,.04.06.05.1-.26-.32-.48-.36-.65-.4.17.25.13.12.24.4-.07-.01-.21-.45-.35-.47.04.17.03.33.17.63l.11-.03c.14.41-.14.05-.16.14l.09.16c-.18.02-.4-.39-.55-.28l-.05-.13c-.31-.37.05.27-.21,0l.19.43c-.11-.07-.42-.3-.58-.32.23.28.44.37.61.52-.06.03-.22.07-.36-.12.05.03.13.12.12.04-.25-.29-.43-.4-.55-.33.46.79-.19.36.07,1.03-.37-.19-.33.34-.59.42-.28-.66-.08.02-.43-.62-.08,0-.09.01-.07.06v-.03s0,.02,0,.04c.06.12.37.39.38.61-.08-.3-.32-.26-.38-.61h0s.06.47.06.47c.07.2.13.11.21.25-.09.12.11.29.13.51-.12-.23-.23-.3-.25-.17l-.08-.34c-.37-.24.18.61-.19.37l.17.17c-.16-.07-.31.18-.7-.27.03.08.12.26.18.28-.15.2-.78-.25-.74.15l.11.14c-.07-.02-.25-.24-.2-.06.04.06.11.14.1.16-.05-.04-.27-.2-.26-.08l.15.14c-.06.31-.57-.22-.8-.21.3.43.25.67.22.79l.05.06c-.18.2-.63-.11-.95-.14.21.55-.29.49-.29.89-.03-.1-.25-.32-.32-.34.02.12-.35-.2-.05.18v-.02c.26.4.09.37.03.44l-.4-.49c.37.87-.73.11-.31.84-.15-.09-.2-.04-.35-.13l.22.26c-.07.17-.11.25-.32.31l.19.16c-.07.08-.74-.66-.84-.61l.3.41c-.16.12-.02.58-.47.36.05.05.15.16.19.16-.06.07-.05.48-.48-.06.3.34-.12.17-.34.09l.24.24c-.36-.26-.44-.34-.61-.35,0,.04.12.17.13.15,0,.12-.27-.19-.25,0l.18.13c-.06.09-.13,0-.35-.15-.14-.06-.09.19.11.42-.14-.13-.35-.27-.33-.16.07.09.14.13.17.14.03.28-.46-.11-.32.21.08.08.11.13.12.16.09-.1.16-.18.14-.19.21.22.17.34.53.59-.22-.11-.69-.37-.67-.2.02.02.03.05.06.09l.03.02s-.03.03-.08,0c.01.06.02.1,0,.13.17.19,0,.18-.02.23-.24-.24-.25-.16-.4-.4.01.02.04.02.07,0,0,0-.02,0-.03,0-.02-.03-.03-.05-.04-.07-.17-.13-.35-.27-.44-.33.28.39.36.67.55.88-.26-.02-.37.18-.9-.18-.09-.02.09.16.15.25.07.02.08,0,.16.05-.19-.05-.24.15-.59-.13.06.22.35.23.18.3l.12.08c.3.71-1.21-.39-.78.49-.03-.06-.04-.08-.09-.13,0,.15-.05.24-.13.32v-.09c-.08-.07-.14-.17-.13-.32-.05.05-.06.08-.09.13.43-.87-1.08.22-.78-.49l.12-.08c-.17-.07.12-.08.18-.3-.34.29-.4.09-.59.13.08-.05.09-.02.16-.05.06-.08.25-.27.15-.25-.53.36-.65.16-.9.18.19-.22.27-.5.55-.88-.09.06-.27.2-.44.33,0,.02-.02.04-.04.07,0,0-.02,0-.03,0,.04.02.06.02.07,0-.15.24-.16.16-.4.4-.03-.05-.19-.04-.02-.23-.02-.03,0-.07,0-.13-.05.02-.09.03-.08,0l.03-.02s.05-.06.06-.09c.02-.18-.44.09-.67.2.36-.25.32-.36.53-.59-.02.01.04.1.14.19.02-.03.05-.08.12-.16.14-.32-.35.07-.32-.21.03-.02.1-.05.17-.14.01-.1-.2.04-.33.16.2-.23.25-.48.11-.42-.21.15-.29.24-.35.15l.18-.13c.03-.2-.25.12-.25,0,.02.02.13-.1.13-.15-.18,0-.26.09-.61.35l.24-.24c-.22.08-.64.25-.34-.09-.44.54-.42.13-.48.06.04,0,.14-.1.19-.16-.45.22-.31-.24-.47-.36l.3-.41c-.1-.05-.77.7-.84.61l.19-.16c-.21-.06-.24-.14-.32-.31l.22-.26c-.15.09-.2.04-.35.13.41-.73-.69.03-.31-.84l-.4.49c-.07-.07-.24-.03.02-.44v.02c.31-.38-.06-.06-.04-.18-.07.02-.29.24-.32.34,0-.4-.51-.34-.29-.89-.32.02-.77.33-.95.14l.05-.06c-.03-.12-.08-.36.22-.79-.23,0-.74.52-.8.21l.15-.14c0-.12-.21.04-.26.08-.01-.02.06-.1.1-.16.05-.18-.13.04-.2.06l.11-.14c.04-.4-.59.05-.74-.15.07-.02.15-.2.18-.28-.4.45-.55.2-.7.27l.17-.17c-.37.23.18-.61-.19-.37l-.08.34c-.02-.12-.13-.06-.25.17.02-.21.22-.39.13-.51.08-.14.14-.05.21-.25l.06-.47h0c-.06.35-.3.31-.38.62,0-.22.32-.49.38-.61,0-.01,0-.02,0-.04v.03s0-.06-.08-.06c-.36.64-.16-.04-.43.62-.26-.08-.22-.61-.59-.42.26-.66-.39-.24.07-1.03-.11-.07-.3.04-.55.33-.01.08.07-.01.12-.04-.14.19-.3.15-.36.12.17-.15.38-.24.61-.52-.15.02-.46.25-.58.32l.19-.43c-.25.26.1-.37-.21,0l-.05.13c-.15-.11-.37.3-.55.28l.09-.16c-.02-.09-.3.26-.16-.14l.11.03c.14-.3.13-.47.17-.63-.15.02-.28.46-.35.47.12-.29.07-.15.24-.4-.17.04-.39.08-.65.4.02-.05.05-.1.05-.1-.1-.11-.46.34-.42.07l.04-.03c.09-.45-.44.27-.13-.44.01-.15.1.08.18-.3-.05-.29-.38.54-.42.29,0,.03.02-.01.06-.08-.1-.03-.26-.02-.4.01,0,.02,0,.04-.01.07l-.02-.06s.02,0,.03,0c.13-.63-.46-.02-.32-.76-.06.26-.16.26-.21.37,0,0,.03-.06.05-.11-.05-.04-.15.18-.21.27,0,.01,0,.02,0,.04-.03.02-.03,0-.03-.01,0,.02.02,0,.04-.03.04-.22-.25.16-.22.01-.06.15-.09.09-.14.07.17-.13.17-.31.31-.53-.12-.13-.45.59-.55.41l.03-.32c-.2.43-.27.2-.33.36,0,.04-.02.09-.04.14.01-.07.02-.11.04-.14.03-.15.02-.24.12-.46-.1.08-.11-.18-.24.07l.02.14c-.13-.24-.49.35-.52,0l.26-.65c0-.31-.32.29-.25-.14-.05.23-.02.17-.17.36.02.06.15-.09.21-.06l-.28.34.28-.11c-.19.23-.16.16-.22.44-.2.17-.01-.37-.23-.15,0-.11.13-.33.13-.48-.19.2-.03-.54-.23-.22,0-.08.05,0,.1-.16-.09.04-.13,0-.23.19l.03.09s.02.02.02.05l-.02-.05s-.15.23-.2.04c-.11.13-.26.45-.2.47-.04.03-.03-.16.06-.36-.15-.06-.33.68-.36.32-.02.02-.03.02,0,0,0,0,0,0,0,0,.02-.02.04-.05.05-.09-.01-.04-.03-.06-.06-.05.12-.08.13-.52.23-.36.11-.36-.09-.11-.09-.27-.16.21-.19.51-.29.67.04-.11,0-.12-.01-.18l-.06.28s-.06-.02-.12.03l.1-.09c-.05-.07,0-.53-.22-.32.07-.1.21-.29.17-.46-.19.13,0-.12,0-.35-.15.02-.18.47-.32.25-.02,0-.05.16-.06.24,0,.01.01.02.02.03-.02.03-.02,0-.02-.03-.09-.17-.22,0-.29-.24.03.09.05.19-.07.3.1-.21-.04-.24-.05-.39l-.06.13c0-.16.07-.2.12-.24.01-.03.03-.07.05-.07,0,.03-.03.05-.05.07-.02.05-.02.09.01.09.1-.09.24-.61.15-.69-.15.09-.25.46-.27.6-.1-.19-.33.58-.4.33-.03-.01.03-.59-.06-.67-.15.29.06.27-.08.52.07-.83-.48.37-.57-.14l.14-.37s-.09-.08-.16-.05l.02.23c-.08.07-.18-.03-.05-.31-.2.28-.18.09-.26-.04.11.06-.01.05.13-.12-.07-.22-.11-.09-.22-.03.05-.13.06-.35.03-.36-.15.22-.27.13-.41.24l.03-.11c-.22.09-.29-.48-.56-.19,0,.02,0,.03,0,.05h0c-.03.37-.21.21-.3.35.01-.1.04-.26.01-.26-.09.34-.12.16-.18.31-.04-.13.11-.41,0-.42-.05.02-.1.2-.12.33,0,.04,0,.08-.02.12,0-.03,0-.07.02-.12.02-.18-.02-.33-.07-.38.04-.09.05.04.06.02.05-.18,0-.12.05-.35-.05-.04-.1.31-.13.18l.12-.26c-.01-.07-.07.03-.09.05.06-.06.11-.33.15-.49-.2.16-.2.72-.28,1.02-.09-.24-.29.09-.4.08l.09-.31c-.06.04-.11.1-.16.23h.02s-.07.15-.07.15c.02-.06.04-.11.05-.15l-.08-.02c.07-.1.11-.2.17-.46-.11.07-.21-.03-.33.39l.02-.07c-.09-.18-.32-.31-.28-.45-.16.12-.27-.16-.36.26.02-.02.05-.08.09-.22-.04.14-.11.47-.13.45.01-.1.02-.17.04-.23-.1.09-.09-.58-.25-.06-.04-.3.02-.12.11-.43-.04-.3-.27.4-.18-.22-.14.17,0,.13-.09.4.08-.57-.18-.13-.22-.47-.09.22.02.15-.1.38.03-.14,0-.18-.02-.19l-.08.35.06-.9c-.23.4-.08.62-.31.75l.02-.03c0-.38-.19.26-.29-.05.04.08.05-.17.08-.27l-.11.13s.02-.04.02-.08c-.03-.28-.09.14-.13-.12.07-.06.1-.34.09-.47l-.19.39.13-.48c-.11-.06-.41.7-.36.02l.07-.06c.01-.12.03-.48-.08-.24-.03.04-.07.23-.07.3v.03s0-.01,0-.03l-.03-.09c.08-.31.24-.38.35-.46-.05.13-.14.22-.15.42.1-.09.21-.29.31-.39.02-.05.04-.08.06-.1,0,.02,0,.04-.01.06,0,0,.02-.01.03-.01.01-.01.02-.01.04,0-.01,0-.03,0-.04,0-.02.02-.03.06-.05.14,0-.03,0-.08.02-.12-.01,0-.03.02-.04.04-.05.12-.11.32-.14.45.06.18.1-.21.17-.23,0,.13,0,.22-.03.32.11-.12.18-.14.24.04,0,0-.14.22-.11.41.19-.17.29-.55.51-.74.3-.51.34.4.55.03.03-.14-.06-.27.05-.34-.07.28.02.19,0,.31.18-.4.13.12.26-.15-.04.1,0,.22.02.32,0-.04.02-.08.04-.14l-.04.14h0c-.08.35.08.16-.16.64.25-.5.23.18.51-.61l-.02-.11.12.19h0s-.04-.07-.06-.14l.06.13c.05.07.08-.02.09.36-.06.08-.11.07-.16.15.01.33.22-.23.31-.23-.06.26-.11.07-.15.39.05.05.15-.12.22-.19l-.04.14c.08.35.21-.68.22-.19.01-.08.05-.17.06-.26.01.16.05.43-.08.59.05.01.14-.1.2-.25,0-.22-.03-.12,0-.39l.25-.1s-.05.13-.08.13c.08.81.67-.51.74.45.02-.24.07-.2.14-.35.08.09.23.07.28.23l-.07.15c.27-.14.49-.35.61-.21.03-.07-.06.23-.1.26.18-.26.07.69.26.08l-.03-.06c.18.16.54-.22.79-.24-.05.38-.14,0-.22.45.11.18.35-.08.48.08-.04.04-.05.08-.07.1.09.28.09-.37.21-.27-.06.18-.07.22-.05.33l.13-.28s-.08.27-.12.35c.18-.36.28-.05.44-.39-.02.09-.15.42-.18.56.04.13.13,0,.22-.12.06-.18.08-.17.11-.13.04-.04.08-.04.09.03-.04.04-.07,0-.09-.03-.03.03-.07.08-.11.13h0c-.03.27.11.27.07.3.09.16.08-.19.25-.38l-.05-.19.21-.02-.13.15c.04.16.23-.12.32-.08l.02-.22.16-.09c-.13.43.11.14-.11.61.14.27.46-.23.66-.2-.03-.01-.05.08-.08.14.08.13.22-.06.36-.26-.06.13-.1.16-.14.27.13.05.16-.21.35-.29-.1.16-.12.26-.1.31.05-.16.12-.25.16-.29-.41.8.04.39-.27,1.03.07-.17.43-.46.48-.82l-.06.05c.08-.23.1-.12.15-.12.05-.04.08-.06.02,0,0,0-.02,0-.02,0-.04.03-.08.08-.09.12.31-.2.43.12.74,0-.05.08-.2.19-.17.28.18.21.48-.17.79-.29-.2.53-.28-.02-.48.48.29-.03.61-.12.99-.28-.22.8.39-.21.31.46.09-.26.22-.32.31-.29h0s.01,0,.01,0c.04.02.08.05.1.1l-.1-.1s0,0-.01,0c-.12.19-.03.24-.12.38.18-.2.45-.2.22.29.23-.47.16.09.37-.22,0-.05,0-.12.03-.24l.02.17s-.03.05-.05.07c.02.22.26-.01.32.18.09-.3.17-.12.27-.17-.02.02-.05.04-.06.07-.08.28.25-.16.25.02-.02.12-.14.27-.1.32.1-.21.4-.37.35-.08-.03-.02-.08.09-.14.16.5-.21.64.38,1.18.12l-.24.32c-.03.55.43-.51.57-.38.18.2.32.48.48.71.16.23.34.42.62.42.09-.08.05-.13.13-.28.01.06-.14.36.01.2l.09-.19c-.09.6.77-.04.45.83.36-.19.18.39.67.08-.03.2-.27.27-.21.37l.38-.17-.03.02c.54-.43.13.92.62.68l-.03.02c-.09.12-.13.3-.07.28.07-.08.07-.14.12-.26.35-.07.41-.05.61.01-.2.14-.04.2-.2.46.16-.14.15-.28.34-.35.16.07.14.37.19.54.2-.19.22-.09.42-.36.17.09.34.03.53.17l-.06.1c.3-.31.04.29.22.12-.09.12-.15.15-.21.25l.17-.05c-.12.07-.37.38-.33.47.25-.19.1-.18.28-.35l-.21.33c.08,0,.36-.34.36-.48.19.14.49.12.62.29l-.17.19c.15,0,.28.09.19.31.05-.06.15-.15.19-.23.3-.18-.17.27.04.17-.06.03-.12.06-.19.15l.42-.08c-.11.15-.24.59-.04.52.07-.08.13-.21.12-.25h-.05s.04-.01.05,0l.12-.03-.23.38.33-.24.05-.07v.02s-.05.04-.05.04l-.23.29c.11,0,.43-.36.47-.29.04.33-.07.4-.16.78.47-.53.2.19.56-.17-.16.55.3.52.44.83l-.06.03c-.12.33.47-.31.48-.11l-.1.06c-.12.4.35.35.68.24-.1.05-.24.23-.18.25.13-.07.3-.39.29-.23-.06.03-.16.16-.14.18l.31-.2c.02.35.06.72.39.75-.05.12-.17.19-.26.27.18.07.47.03.66.08h0s0,0,0,0v.09s0,0,0,0h0c.19-.05.48,0,.66-.08-.09-.08-.21-.15-.26-.27.33-.03.37-.41.39-.75l.31.2s-.08-.14-.14-.18c-.02-.16.16.16.29.23.06-.02-.08-.2-.18-.25.33.11.8.16.68-.24l-.1-.06c.01-.2.6.44.48.11l-.06-.03c.13-.31.6-.27.44-.83.36.36.09-.36.56.17-.09-.38-.21-.44-.16-.78.03-.07.36.28.47.29l-.23-.29-.06-.04v-.02s.06.07.06.07l.33.24-.23-.38.12.03s.02-.01.05.01h-.05s.05.15.12.23c.2.06.07-.37-.04-.52l.42.08c-.07-.09-.13-.11-.19-.15.21.1-.26-.34.04-.17.04.08.14.17.19.23-.08-.22.04-.31.19-.31l-.17-.19c.13-.17.44-.16.62-.29,0,.14.28.49.36.48l-.21-.33c.18.17.03.16.28.35.04-.09-.21-.39-.33-.47l.17.05c-.06-.1-.12-.13-.21-.25.18.17-.08-.42.22-.12l-.06-.1c.19-.14.36-.08.53-.17.2.27.22.17.42.36.05-.16.03-.47.19-.54.19.07.19.22.34.35-.16-.26,0-.33-.2-.46.2-.07.25-.09.61-.01.05.12.05.18.12.26.07.02.02-.16-.07-.28l-.03-.02c.49.24.08-1.11.62-.68l-.03-.02.38.17c.07-.1-.18-.16-.21-.37.49.31.31-.27.67-.08-.32-.86.54-.22.45-.83l.09.19c.15.15,0-.14.01-.2.08.15.04.2.13.28.28,0,.46-.19.62-.42.16-.23.3-.51.48-.71.14-.13.6.93.57.38l-.24-.32c.54.25.68-.33,1.18-.12-.06-.07-.11-.18-.14-.16-.05-.29.25-.13.35.08.04-.05-.08-.2-.1-.32,0-.18.33.25.25-.02,0-.03-.03-.06-.06-.07.09.05.18-.12.27.17.06-.2.3.03.32-.18-.02-.02-.03-.04-.05-.07l.02-.17c.03.12.03.19.03.24.22.31.14-.25.37.22-.23-.49.04-.49.22-.29-.09-.14,0-.18-.12-.38,0,0,0,0-.01,0l-.1.1s.06-.08.1-.1h.01s0,0,0,0c.09-.03.22.03.31.29-.09-.66.53.34.31-.46.38.17.7.25.99.28-.21-.5-.29.05-.48-.48.31.12.61.5.79.29.03-.09-.12-.21-.17-.28.31.12.43-.21.74,0-.02-.05-.06-.09-.09-.12,0,0-.01,0-.02,0-.06-.05-.03-.03.02,0,.05,0,.07-.11.15.12l-.06-.05c.06.35.41.64.48.82-.31-.64.14-.23-.27-1.03.04.03.11.13.16.29.02-.06,0-.15-.1-.31.19.08.23.34.35.29-.04-.11-.08-.15-.14-.27.14.19.29.39.36.26-.03-.07-.05-.16-.08-.14.2-.03.52.47.66.2-.22-.47.02-.18-.11-.61l.16.09.02.22c.1-.04.28.24.32.08l-.13-.15.21.02-.05.19c.17.19.16.54.25.38-.04-.04.1-.03.07-.3h0c-.04-.05-.08-.1-.11-.13-.02.03-.05.07-.09.03.02-.07.05-.07.09-.03.03-.04.05-.05.11.13.09.12.18.25.22.12-.02-.14-.16-.47-.18-.56.16.34.26.03.44.39-.05-.08-.12-.31-.12-.35l.13.28c.02-.11.01-.15-.05-.33.12-.09.12.55.21.27-.02-.02-.03-.07-.07-.1.13-.17.37.1.48-.08-.08-.44-.16-.07-.22-.45.24.02.6.4.79.24l-.03.06c.19.6.08-.34.26-.08-.04-.04-.12-.33-.1-.26.12-.14.34.07.61.21l-.07-.15c.05-.16.21-.13.28-.23.07.15.11.11.14.35.07-.96.66.36.74-.45-.03,0-.1-.12-.08-.13l.25.1c.04.27,0,.17,0,.39.06.15.15.26.2.25-.14-.16-.09-.43-.08-.59.01.08.05.17.06.26.01-.5.14.54.22.19l-.04-.14c.07.06.17.24.22.19-.04-.32-.09-.13-.15-.39.09,0,.3.56.31.23-.06-.08-.11-.07-.16-.15.01-.38.04-.29.09-.36l.06-.13c-.02.07-.04.11-.06.13h0s.12-.18.12-.18l-.02.11c.28.79.26.11.51.61-.24-.48-.08-.29-.16-.64h0s-.04-.14-.04-.14c.02.06.03.1.04.14.02-.11.06-.23.02-.32.13.27.08-.25.26.15-.02-.11.07-.03,0-.31.11.07.02.2.05.34.21.36.25-.54.55-.03.22.19.31.57.51.74.02-.19-.11-.41-.11-.41.06-.18.13-.16.24-.04-.03-.1-.03-.18-.03-.32.07.02.11.41.17.23-.04-.13-.09-.33-.14-.45-.02-.01-.03-.03-.04-.04.01.05.02.09.02.12-.02-.08-.03-.12-.05-.14-.01,0-.03,0-.04,0,.02-.01.03-.01.04,0,.01,0,.02,0,.03.01,0-.02,0-.04-.01-.06.02.02.04.05.06.1.1.09.21.29.31.39,0-.2-.1-.3-.15-.42.11.08.27.14.35.46l-.03.09ZM152.6,80.22c0,.09.03.19.04.26-.08-.18-.19-.5-.21-.86.11.37.1.21.22.64.05.04.06-.14.03-.28.03.1.06-.1.12.14-.02.31-.09.33-.2.1ZM152.84,80l-.09-.38.09.09c.03.1.05.33,0,.29Z"/>
  <path d="M144.09,104.14c.08-.03.15-.06.07-.09-.02,0-.03,0-.05,0,0,.02-.01.05-.02.09Z"/>
  <polygon points="144.57 100.9 144.57 100.9 144.57 100.9 144.57 100.9"/>
  <path d="M144.88,104.34s.07.03.12.05c0-.02-.01-.04-.01-.06-.06,0-.11,0-.11.02Z"/>
  <path d="M143.94,104.12s.01-.02.02-.04c0,0,.01,0,.02,0-.03,0-.06,0-.08,0-.03.02,0,.03.04.03Z"/>
  <path d="M144.99,104.25h0s0-.03,0-.04c0,0,0,.02,0,.04Z"/>
  <path d="M144.1,104.06h.01s0-.01,0-.01c0,0,0,.01-.02.01Z"/>
  <path d="M207.24,122.95c-3.74-3.96-8.99-6.16-14.77-6.17h-.09c-11.66,0-18.35,6.72-24.21,14.19-1.39,1.62-4.07,3.81-7.52,1.95-2.03-1.08-2.75-3.54-1.62-5.46.85-1.43,2.77-1.95,4.29-1.14.53.28.91.74,1.09,1.3.16.56.09,1.14-.21,1.64-.2.34-.54.56-.9.67-.15-.77-.91-1.31-1.73-1.19-.85.12-1.43.87-1.3,1.67,0,.08.1.12.12.19-.1.46.04.95.5,1.19,1.91,1.01,4.33.37,5.41-1.43.61-1.03.76-2.23.43-3.36-.32-1.14-1.1-2.08-2.2-2.66-2.67-1.42-6.05-.52-7.53,2-1.79,3.01-.66,6.84,2.52,8.54,1.25.66,2.53.99,3.8.99.42,0,.83-.09,1.24-.16-1.19,1.59-2.38,3.18-3.62,4.65-2.74,3.28-5.1,6.02-7.39,8.11-.27.02-.53.08-.73.27-4.78,4.23-9.75,4.8-13.98,1.61-3.29-2.49-3.86-7.06-1.23-10.19,2.02-2.4,5.73-2.81,8.27-.89.93.71,1.52,1.71,1.65,2.84.14,1.12-.2,2.23-.94,3.11-.5.61-1.24.98-2.05,1.12.1-.26.18-.55.18-.85,0-1.45-1.35-2.61-2.94-2.38-.95.14-1.74.83-2.02,1.7-.23.73-.07,1.31.25,1.83,0,.32.13.63.42.84,1.19.9,2.67,1.31,4.2,1.14,1.51-.16,2.87-.87,3.83-2,1.13-1.36,1.66-3.05,1.45-4.78-.2-1.72-1.1-3.27-2.52-4.35-3.56-2.69-8.78-2.13-11.62,1.25-3.4,4.06-2.72,9.96,1.49,13.25-1.86-.85-3.49-2.09-4.74-3.75-2.06-2.72-2.88-6.16-2.25-9.44.49-2.53,1.97-4.72,4.2-6.19,2.22-1.46,4.91-2.03,7.59-1.57.69.1,1.37-.37,1.39-1.07.02-.57-.45-1.07-1.05-1.17-3.25-.54-6.56.15-9.29,1.95-1.21.8-2.23,1.81-3.06,2.93-.42.57-1.1.9-1.83.89h0c-.7-.01-1.34-.34-1.74-.87-2.72-3.66-7.5-5.73-12.41-4.88-.65.11-1.09.69-.97,1.31.11.61.73,1,1.39.91,5.48-.94,10.79,2.54,11.78,7.76.62,3.29-.2,6.73-2.25,9.45-1.26,1.66-2.89,2.9-4.75,3.75,4.22-3.29,4.9-9.2,1.49-13.26-2.84-3.38-8.04-3.94-11.61-1.25-1.43,1.08-2.33,2.63-2.54,4.35-.2,1.72.3,3.41,1.45,4.77,1.96,2.34,5.57,2.73,8.04.87.29-.21.4-.52.43-.84.33-.56.49-1.19.18-1.96-.34-.83-1.12-1.48-2.06-1.58-1.53-.17-2.84.96-2.84,2.39,0,.29.08.57.18.84-.78-.13-1.52-.49-2.06-1.12-.73-.89-1.08-1.99-.93-3.12.15-1.12.72-2.13,1.66-2.83,2.54-1.92,6.25-1.51,8.26.89,2.62,3.12,2.08,7.7-1.23,10.19-4.23,3.19-9.19,2.62-13.97-1.62-.21-.18-.47-.24-.73-.26-2.29-2.11-4.66-4.85-7.39-8.12-1.24-1.47-2.43-3.06-3.63-4.65.41.07.82.16,1.24.16,1.26,0,2.55-.32,3.79-.99,3.18-1.69,4.31-5.52,2.53-8.54-1.5-2.51-4.88-3.41-7.53-1.99-1.09.58-1.87,1.52-2.2,2.66-.33,1.14-.19,2.33.43,3.36.51.87,1.36,1.51,2.39,1.78,1.01.27,2.09.15,3.01-.34.46-.24.59-.72.49-1.18.02-.08.1-.12.12-.2.11-.81-.47-1.55-1.31-1.67-.82-.12-1.58.42-1.72,1.2-.38-.12-.71-.34-.91-.67-.3-.5-.37-1.09-.2-1.65.16-.56.54-1.02,1.08-1.3,1.5-.8,3.45-.3,4.28,1.13,1.14,1.93.43,4.38-1.62,5.47-3.43,1.83-6.08-.29-7.48-1.91-5.86-7.49-12.58-14.23-24.26-14.23h-.09c-5.78.02-11.02,2.21-14.76,6.17-4.12,4.38-6.07,10.53-5.34,16.88.54,4.78,3.03,9.06,6.98,12.07,3.4,2.6,7.55,3.97,11.84,3.97.15,0,.3-.02.46-.02.02,0,.04.03.07.03.06,0,.1,0,.15,0,.07,0,.12-.03.18-.04.41-.02.82-.02,1.24-.07,8.45-.87,14.58-8.1,13.66-16.12-.75-6.53-6.93-11.27-13.87-10.56-.65.07-1.13.62-1.05,1.24.08.62.59,1.08,1.31,1,5.56-.59,10.62,3.26,11.23,8.56.47,4.02-1.2,7.76-4.07,10.33,1.18-2.35,1.55-5.19.9-8.11-.55-2.49-2.09-4.61-4.33-6-2.15-1.32-4.7-1.81-7.21-1.39-1.85.31-3.59,1.19-4.83,2.53-1.76,1.92-2.44,4.4-1.89,6.8.37,1.69,1.43,3.15,2.95,4.09,1.53.95,3.36,1.29,5.17.92,1.5-.31,2.79-1.14,3.63-2.36.66-.97.86-2.09.8-3.22,0-.04.03-.07.03-.12,0-.06-.03-.1-.04-.16-.02-.19.04-.38,0-.57-.02-.08-.1-.11-.14-.19-.36-.87-1.26-1.5-2.3-1.52-1.4-.02-2.55,1.04-2.57,2.37-.02,1.18.89,2.13,2.07,2.35-.49.6-1.14,1.03-1.93,1.2-1.17.25-2.37.03-3.37-.59-1-.62-1.69-1.56-1.92-2.66-.4-1.83.14-3.7,1.59-5.1.83-.8,1.94-1.33,3.11-1.54,1.95-.35,3.92.02,5.59,1.04,1.71,1.06,2.88,2.68,3.31,4.57.65,2.93.15,5.78-1.37,7.81-1.26,1.68-3.25,2.75-5.68,3.14-4.06.19-7.99-.95-11.2-3.38-3.47-2.64-5.64-6.38-6.11-10.56-.65-5.72,1.08-11.23,4.75-15.13,3.28-3.48,7.9-5.41,12.99-5.42h.08c10.42,0,16.67,6.14,22.12,13.07.01.01,0,.02.01.04.04.04.08.07.1.11.99,1.25,1.95,2.51,2.9,3.78.25.34.5.64.75.97-1.89-.34-3.8.03-5.58,1.15-3.04,1.92-3.87,5.81-1.86,8.68,1.06,1.51,2.82,2.33,4.61,2.33,1.05,0,2.11-.28,3.06-.87,1.04-.66,1.75-1.65,2-2.81.24-1.16,0-2.34-.69-3.31-1.21-1.71-3.69-2.18-5.49-1.04-.37.24-.48.63-.45,1.01-.04.11-.15.18-.16.29-.07.81.55,1.52,1.42,1.6.8.07,1.47-.48,1.62-1.23.43.06.84.26,1.09.63.33.47.46,1.04.33,1.6-.11.56-.47,1.06-.98,1.37-1.43.92-3.4.55-4.36-.82-1.29-1.83-.75-4.32,1.19-5.55,3.46-2.16,6.41.07,7.84,1.6,0,0,.02,0,.02,0,.04.04.07.1.1.13,6.74,8.05,12.5,14.99,22.47,13.55,3.94-.57,7.43-2.61,9.79-5.74.21-.29.4-.59.58-.9.33-.57.94-.94,1.63-.96h.1c.71-.02,1.36.34,1.7.93.19.32.39.63.61.93,2.36,3.12,5.84,5.17,9.78,5.73,9.91,1.45,15.73-5.51,22.46-13.55.05-.04.08-.09.1-.13,0,0,0,0,0,0,1.46-1.53,4.4-3.77,7.85-1.6,1.94,1.22,2.48,3.72,1.19,5.55-.96,1.37-2.91,1.73-4.37.82-.51-.32-.86-.8-.97-1.37-.12-.56,0-1.14.33-1.6.24-.34.59-.56,1-.64.04,0,.06.02.1.02.14.73.82,1.28,1.62,1.23.86-.07,1.49-.78,1.42-1.6,0-.12-.12-.19-.16-.3.03-.39-.08-.77-.45-1.01-.89-.56-1.94-.75-2.98-.56-1.05.2-1.93.77-2.52,1.6-.69.98-.92,2.16-.69,3.31.25,1.16.95,2.16,1.99,2.81.94.59,2.01.87,3.07.87,1.79,0,3.55-.82,4.61-2.33,2.02-2.88,1.19-6.77-1.86-8.68-1.78-1.12-3.68-1.49-5.57-1.15.25-.33.5-.63.74-.97.96-1.28,1.93-2.54,2.92-3.8.03-.03.06-.05.09-.09,0,0,0-.02,0-.03,5.46-6.93,11.7-13.08,22.13-13.08h.07c5.11.01,9.72,1.94,13,5.42,3.68,3.9,5.42,9.41,4.75,15.13-.48,4.17-2.65,7.93-6.1,10.56-3.2,2.43-7.14,3.58-11.2,3.38-2.46-.4-4.43-1.46-5.69-3.15-1.52-2.03-2.02-4.87-1.36-7.81.42-1.89,1.6-3.52,3.31-4.57,1.71-1.06,3.75-1.42,5.76-1.01,1.53.31,2.86,1.17,3.71,2.42.86,1.25,1.15,2.74.82,4.19-.24,1.1-.92,2.05-1.92,2.66-1,.62-2.2.83-3.37.59-.79-.16-1.46-.6-1.93-1.2,1.18-.22,2.08-1.16,2.07-2.35-.02-1.33-1.17-2.39-2.57-2.37-1.07.01-1.94.63-2.31,1.51-.04.08-.12.11-.14.19-.05.19.01.37,0,.56,0,.06-.04.1-.04.16,0,.04.03.08.03.11-.07,1.13.15,2.26.81,3.23.84,1.22,2.12,2.04,3.62,2.35,1.79.36,3.63.04,5.16-.92,1.53-.94,2.58-2.4,2.95-4.08.46-2.04.05-4.14-1.15-5.89-1.2-1.75-3.05-2.96-5.22-3.39-2.62-.53-5.3-.05-7.54,1.33-2.25,1.38-3.79,3.51-4.34,6-.66,2.92-.29,5.78.91,8.13-.46-.4-.9-.79-1.3-1.26-2.18-2.57-3.18-5.8-2.8-9.09.62-5.29,5.67-9.16,11.24-8.56.7.07,1.25-.38,1.3-1,.08-.62-.4-1.17-1.06-1.24-6.92-.74-13.12,4.03-13.86,10.56-.45,3.88.72,7.7,3.3,10.74,2.59,3.04,6.25,4.95,10.36,5.37.41.04.83.04,1.24.06.07.01.11.03.18.04.05,0,.1,0,.15,0,.03,0,.05-.02.07-.03.15,0,.3.03.46.03,4.3,0,8.45-1.38,11.85-3.97,3.96-3.01,6.44-7.31,6.98-12.08.72-6.34-1.23-12.49-5.35-16.86Z"/>
  <g>
    <path d="M202.85,115.29s-.69.36-1.75.7c-.94.3-1.58-.03-.88-.27,1.02-.35,2.4-1.17,2.39-1.23-.13-1.21-.14-3.69,1.54-5.22,2.28-2.08,5.48-.52,7.12-2.71,2.2,3.82.73,8.07-1.75,9.54-2.37,1.41-4.94.25-6.07-.42,0,0,4.79-2.7,5.29-4.13-1.76,1.63-5.89,3.73-5.89,3.73Z"/>
    <path d="M47.7,111.56c.5,1.43,5.29,4.13,5.29,4.13-1.13.67-3.7,1.83-6.07.42-2.49-1.48-3.96-5.73-1.75-9.54,1.64,2.19,4.83.63,7.12,2.71,1.68,1.53,1.66,4.01,1.54,5.22,0,.06,1.37.89,2.39,1.23.7.24.06.57-.88.27-1.06-.33-1.75-.7-1.75-.7,0,0-4.13-2.1-5.89-3.73Z"/>
  </g>
  <g>
    <g>
      <path d="M42.48,151.81c-.68-1.58-1.82-3.14-3.43-3.81-.18-.08-.39-.13-.6-.18-.43.64-.92,1.15-1.49,1.58-.49.36-1.01.65-1.54.87.15.11.31.2.48.29.67.35,1.39.66,2.09.99-.66-.18-1.42-.25-2.05-.48-.39-.14-.76-.34-1.1-.58-1.01.34-2.07.51-3.13.64.86,1.42,2.68,2.56,4.06,3.08,1.44.54,3.06.61,4.66.77.98.1,2.04.47,2.82.89.18.1.37-.06.3-.26-.38-1.23-.58-2.61-1.08-3.79Z"/>
      <path d="M24.91,151.32c1.8-.98,3.87-1.1,5.9-1.33.99-.11,1.97-.26,2.9-.54.2-.06.4-.13.6-.21.59-.22,1.16-.52,1.69-.91.5-.37.91-.81,1.26-1.29.55-.77.94-1.66,1.25-2.58.58-1.67.84-3.45.79-5.21-.02-.72-.03-1.46-.21-2.16-.04-.15-.08-.35-.2-.46-.16-.15-.44,0-.37.22.45,1.55.17,3.35-.46,4.83-.72,1.7-2.11,2.71-3.81,3.32-.45.16-.91.31-1.38.44,0,0-.02,0-.03,0-.09,0-.13-.14-.04-.18.55-.25,1.1-.5,1.62-.77,2.56-1.33,3.67-4.44,2.72-4.44-.08,0-.17.02-.27.06-1.48.61-3.24.62-4.86.92-.57.1-1.13.25-1.65.46-2.07.87-3.56,2.56-4.44,4.59-.66,1.52-.91,3.31-1.41,4.89-.06.2.08.38.25.38.04,0,.09,0,.14-.04Z"/>
    </g>
    <g>
      <path d="M212.87,155.6c-.06.2.13.36.3.26.78-.43,1.84-.79,2.82-.89,1.6-.17,3.23-.23,4.66-.77,1.38-.52,3.2-1.66,4.06-3.08-1.06-.13-2.11-.29-3.13-.64-.34.24-.7.44-1.1.58-.63.23-1.39.3-2.05.48.7-.33,1.43-.64,2.09-.99.17-.09.33-.18.48-.29-.53-.22-1.05-.51-1.54-.87-.57-.42-1.06-.94-1.49-1.58-.21.05-.42.1-.6.18-1.6.67-2.75,2.23-3.43,3.81-.51,1.18-.7,2.56-1.08,3.79Z"/>
      <path d="M231.66,151.35c.18,0,.32-.17.25-.38-.5-1.58-.75-3.37-1.41-4.89-.88-2.04-2.36-3.73-4.44-4.59-.52-.22-1.08-.36-1.65-.46-1.63-.3-3.38-.31-4.86-.92-.1-.04-.2-.06-.27-.06-.96,0,.16,3.11,2.72,4.44.52.27,1.07.52,1.62.77.1.04.06.18-.04.18,0,0-.02,0-.03,0-.47-.14-.93-.28-1.38-.44-1.7-.62-3.09-1.63-3.81-3.32-.63-1.48-.91-3.28-.46-4.83.06-.22-.22-.37-.37-.22-.12.11-.16.31-.2.46-.18.7-.19,1.44-.21,2.16-.05,1.77.21,3.54.79,5.21.32.92.7,1.81,1.25,2.58.35.48.76.92,1.26,1.29.54.39,1.1.69,1.69.91.2.08.4.14.6.21.93.28,1.91.42,2.9.54,2.03.23,4.09.35,5.9,1.33.05.03.1.04.14.04Z"/>
    </g>
  </g>
  <g>
    <path d="M45.56,181.5l-.26.15-.3.17-.44.1-.85.24c-.24.05-.49.08-.76.08h-.42c-.26-.32-.42-.48-.47-.49l-.61-.3-.29-.19-.16-.14c-.21-.21-.31-.31-.31-.32l-.11-.55-.45-.14-.39-.47-.47-.15-.27-.31-.19-.05-.17-.15-.39-.26-.23-.21-.33-.15-.42-.4-.25-.2c.04-.08.06-.15.06-.21,0-.15-.07-.24-.2-.26l-.58-.1-.17-.16-.69-.42-.33-.42-.42-.17-.35-.26-.31-.1-.76-.47-.24-.06-.08.25-.12.24-.02.45c.11.05.17.12.17.19,0,.07,0,.12-.02.15l-.1.23-.05.56-.05.44.05.27-.1.24.17.24-.02.19-.07.51.02.32.25,1.57v.06c0,.12-.05.22-.16.3l-.24.17-.2.15h-.41c-.14,0-.26.05-.37.14l-.63.42s-.11.04-.23.04c-.16,0-.24-.04-.24-.12,0-.05.1-.24.29-.58.09-.12.13-.29.13-.49l.02-.66.14-.33-.07-.72.12-.17.19.02c.1,0,.17-.03.21-.08.04-.05.06-.16.06-.31l-.17-.13c-.18-.11-.27-.24-.27-.38l.07-.38-.12-.12-.02-.32.02-.44.1-.74-.1-.94.07-.45-.14-.25c.02-.09.17-.17.44-.24v-.36c-.11-.12-.22-.17-.32-.17l-.02-.43-.05-.75.07-.38c-.1-.15-.17-.29-.21-.4-.04-.11-.05-.27-.05-.47v-.43l-.08-.06.08-.72c0-.19-.08-.37-.23-.55l-.47-.22.05-.26.25-.06.17-.06c.51-.17,1.01-.26,1.52-.28l.86-.04.37-.04c.16.12.28.18.36.18h.02l1.2-.18.26.13s.04,0,.05,0c.01,0,.03,0,.04.01l.3-.02.84.02h1.68l1.26.17.81.04.66.28.74.17c.27.06.48.19.61.37.14.18.21.4.21.66,0,.23-.07.51-.21.83l-.42-.06c.02.16.1.27.21.33l-.12.22-.26.21-.16.16s-.16.04-.38.04c-.03.04-.05.08-.05.14l.1.16-.16.15-.26.12-.54.5-.39.12-.39.21-.24.02c-.07.17-.19.29-.35.36l-.29.1-.37.11h-.3l-.58.15-.17.02h-.1l-.35.22c-.07-.04-.14-.06-.19-.06s-.11.01-.16.04c-.02.03-.02.05-.02.08,0,.06.06.13.18.21l-.08.16c-.16.11-.24.19-.24.25,0,0,.02.04.05.11h.25c.1-.08.21-.13.36-.14l.25.22-.12.08c.02.2.1.3.24.3l.24-.02.25.25.68.62.47.34.51.49-.07.25.51.22c.06.12.11.2.15.23.04.03.16.1.36.23l.54.47.37.34.19.17v.13c0,.12.04.23.12.31l.49.13.23.14.42.32,1.22.61.25.2s.05,0,.07,0c.01,0,.02,0,.03.01l.75-.1h.02c.11,0,.27.07.47.21ZM40.28,170.91c0-.28-.1-.48-.3-.6l-.38-.24-.42-.25-.39-.02-.56-.16-.12-.02h-.2l-.14-.27-.32-.04-.17.23-1.68-.12-.16.1-.19-.02-1.66.15h-.25l-.19.18c-.17,0-.28.05-.35.16-.06.11-.1.33-.1.67l.02.63.02.42v.26c-.23.15-.35.27-.35.38,0,.15.15.26.44.32l.1.21-.05.32v.28l-.1.45c.02.15.19.29.51.4l-.02.08,1.07-.02.16.12.21-.04.39-.04.78-.24.27.09.26-.11,1.07-.31.39-.22.81-.28.58-.78.66-.58.05-.32.23-.49.05-.27Z"/>
    <path d="M62.54,180.74l-.16.42-.26-.02c-.1,0-.16.02-.2.06l-.24.42-.32.18-.1.1-.44-.04-.51.2h-.02l-.58-.15-.07-.02-1.35.04-.38-.04-.13-.15c-.49.08-.76.12-.82.12l-.44-.02-.3.04-.1-.19h-.14l-.12.02-.42.17-2.35.02-.35.14c-.26-.14-.47-.21-.61-.21l-.12.02-.61.14-.69-.12-2.1.06c-.07,0-.37-.08-.89-.23l.12-.22.29-.55.05-.52.13-.47v-.73l.07-.28-.05-2.24.05-.57-.02-.21-.07-.22.49-.02c-.09-.15-.16-.26-.23-.33-.06-.06-.18-.14-.33-.24l-.06-.16.06-.72-.11-1.23.11-.47.05-.19-.25-.06-.1-.2-.05-.63-.14-.2-.02-.1.02-.24.1-.12.66.14-.19-.14c-.12-.07-.18-.14-.18-.19,0-.03.02-.09.05-.16l-.19-.06-.24.06c-.02-.32-.05-.53-.08-.63-.03-.1-.08-.16-.15-.18l-.47-.15.12-.2c.06-.05.19-.11.39-.17l.23-.06c.39-.15.69-.22.89-.22h.02s.02,0,.04.02l1.75.24.81.06.45.12c.29-.09.49-.14.6-.14.05,0,.08,0,.1.02l1.8.15,1.59-.08.62.15.36-.07v-.12c.55-.04.95-.1,1.2-.17.35-.11.56-.16.63-.16l.24.04c-.04.15-.09.25-.15.31-.06.06-.19.13-.39.21-.02.12-.04.2-.08.24-.04.05-.16.11-.35.19-.41.15-.76.23-1.03.23h-.13l-.63-.04-.54.06-1.1-.1-.25-.02c-.22-.12-.44-.17-.66-.17-.17.15-.48.23-.93.23l-.36-.02-.06-.17-.24.06-.35.12-1.63-.12-.26.32.1.08v.08l.05.51-.1.75.05.28.02.21.24.06,1.63.13c.11,0,.27.06.49.19l.37-.06c.22-.06.39-.1.49-.1h.02l1.28.06.75.02h.68c.14,0,.26,0,.36-.03.1-.02.21-.05.33-.11l.91.14.21-.04.51-.1.93-.02.98-.11c.11.03.22.07.33.15l.25-.13c.16-.1.31-.15.44-.15l.26.02.27-.02v.3l-.32.17-.73.51c-.09.06-.17.09-.25.09h-.05l-.8-.09-1.03.03-.56-.11-2,.11-.37-.03c-.09-.13-.19-.19-.3-.19-.06,0-.11,0-.14.02l-.54.17-1.56-.14-.76.22-.54-.13-.44.22-1.31-.08-.1.14.05.51-.2.52.11.15.17.17-.17.42c.12.18.19.31.21.4l-.05.32.1.89v.02c0,.08-.09.22-.26.4.21.21.31.39.31.52,0,.04-.02.08-.05.14l-.32.55.35.49.14,1.85.37.06,1.61.45.54-.06c.13,0,.31.05.54.15.16-.12.27-.17.35-.17h.05l1.1.17.67-.06.58.1,1.42-.08.41.06.69.02.24.07-.07-.15.27-.04,1.12-.02.24-.08,1.4-.2s.13-.02.27-.05c.14-.03.23-.04.26-.04.05,0,.15.02.3.06Z"/>
    <path d="M77.7,168.95c-.02.33-.12.57-.27.73l-.51.57-.51.79-.39.21-.41.87-.18.14-.26.32-.3.15c-.11.09-.17.17-.17.24v.25l-.32.4-.31.47-.2.13-.49.76c-.06.12-.28.28-.66.5l-.25.14.18.3-.18.19-.43.45-.25.36-.19.14-.02.38c-.02.19-.05.33-.09.41-.04.08-.15.17-.3.29.04.13.08.22.13.27.05.05.14.11.26.16l-.07.97-.16-.04-.17.11.07.51.19.02.06.89-.25.06v.16c.23.14.35.26.35.38,0,.02-.02.08-.07.17h-.49l-.27.06c-.15.03-.36.08-.61.14s-.43.1-.51.1c-.17,0-.32-.08-.47-.24l.05-.23.14-.72.08-.47v-.07l-.06-.73s.06-.14.18-.28l.07-.15-.07-.06-.3-.03.05-.23.2-.22.05-.21-.02-.38.02-.3h.19c0-.14-.01-.23-.04-.29-.03-.05-.09-.12-.2-.19l.14-.08-.12-.22-.58-.38-.54-.55c-.14-.06-.3-.1-.47-.12,0-.28-.05-.46-.16-.54l-.85-.63-.02-.55c0-.08-.04-.15-.11-.21-.08-.06-.15-.09-.23-.09-.02,0-.12.01-.3.04,0-.17-.04-.29-.11-.36-.06-.07-.21-.15-.45-.25l-.17.06-.32-.3-1.03-.87-.39-.43-.21-.2c.23-.02.35-.08.35-.19,0-.06-.03-.12-.1-.17-.07-.05-.15-.07-.24-.07-.02,0-.12.01-.3.04-.5-.52-.75-.92-.75-1.23,0-.12.04-.24.11-.36.07-.12.15-.2.24-.23l.73-.28.58-.25.16-.02.17.04.19-.02.13.12-.18.44.05.15v.16l.49.45.05.19-.02.34.39.26-.1.29c-.05.1-.07.19-.07.26,0,.05.05.11.14.2l.49-.07c.33,0,.55.07.66.22l.35.49.24.32.08.19-.18.11c.18.22.34.33.47.33.03,0,.06-.01.08-.01.02,0,.06,0,.12,0,.29.32.53.56.72.73.18.16.45.35.79.57l-.17.08c.1.2.24.34.44.44l.12-.1.69.55c.05.32.2.47.47.47.09,0,.19-.03.31-.1,0,0,.11-.07.3-.2l.24-.17.74-.83.29-.26.63-.93.62-.68.19-.49.27-.42.17-.57.49-.6.07-.19.61.06c0-.14-.04-.24-.1-.28s-.17-.08-.35-.1l.11-.19c.14-.28.27-.46.38-.52l.49-.25c.51-.27.87-.42,1.1-.44,0,0,.05.01.18.04Z"/>
    <path d="M100.19,181.06c0,.19-.06.37-.17.53l-.23-.02-.17.02-.32.14-.82-.1-.81.23h-1.24l-1.54.15h-.08l-.51-.04c-.42.17-.8.26-1.12.26l-.24-.02-.76-.08-1.73-.06-.47-.09-.66-.1-.32-.06-.1-.24c-.15,0-.27-.04-.35-.12-.18.06-.29.1-.33.1-.09,0-.23-.05-.44-.15l-.25-.1c-.02-.17-.09-.32-.21-.44-.16.05-.27.08-.35.08-.05,0-.09-.01-.12-.04l-.12-.1-.54-.42-.32-.52-.3-.27-.33-.4-.18-.34c.12-.18.19-.36.2-.53l-.13-.15-.43-.06-.2-.36c-.08-.1-.12-.19-.12-.27,0-.06,0-.12.02-.18v-.02l-.17-.77c-.02-.05-.02-.14-.02-.25,0-.16.04-.34.12-.52l-.14-.19.14-.62c.02-.23.06-.41.1-.54.04-.13.11-.25.21-.37-.02-.03-.02-.06-.02-.1,0-.05.05-.15.16-.3l.07-.21.47-.16-.02-.34c0-.08.02-.13.05-.15l.61-.63.3-.44.31-.22.32-.38.58-.36.19-.27,1.13-.38.38-.24.44-.06.16-.1.21-.13.24-.1c.43-.13.77-.21,1.03-.23l1.06-.02.51-.18.99-.08.62-.1,1.15.12h.37c.21.19.33.28.36.28.11,0,.22-.06.32-.18h.12l.05-.08.27.04.68.24.47.02c.2,0,.3.06.3.19,0,.1-.12.19-.35.26-.25.15-.43.23-.54.23l-.21-.06c-.15.25-.31.38-.49.38h-.11l-.47-.14-.54-.12-.38-.22-.56-.12-.54-.16-1.4.09-.81.02c-.45.02-.8.08-1.03.19l-.8.4-.79.3-.98.55-.42.15-.26.44c-.39.06-.58.17-.58.33,0,.08.03.16.1.24l-.23.23c-.1.14-.21.24-.36.3l.07.28-.12.23-.39,1.03-.14.3-.11.36.05.21v.2l-.07.17-.1-.04.05.15c-.19.1-.29.2-.29.28,0,.06.06.15.19.26l.37.1v.25c0,.1.02.19.07.28-.15.1-.23.2-.23.28,0,.04.02.08.06.12l.31-.1.12.19.25.66.26.38-.1.36.14.19h.13c.14,0,.26.04.35.11s.17.2.26.39l.1.2.12.1-.29.14.17.11.44-.09.32.18.24.12.27.2.47.14.82.42.42.12-.07.2c.29.03.47.05.56.08l.37.1,1,.02.24.13.25-.09.89-.06.49-.06.25-.02c.11,0,.24.03.39.1l.24-.12c.25-.09.43-.14.54-.14h.02l.37.02.47-.06-.02-.11.21-.08c.21-.05.33-.09.38-.11.04-.02.12-.08.23-.17l.05.07c.28-.08.42-.18.42-.3l-.1-.3.02-.75-.1-1.08.19-.34v-.08c0-.14-.09-.25-.26-.36l-.05-.2-.05-.36.05-.21-.25-.02-.91-.06-.61-.04-.24.02-.51.04s-.12-.02-.25-.06l.07-.28c.11-.03.18-.05.21-.07.03-.02.09-.09.18-.21l.18-.15c.23.08.45.12.66.12h.19l2.82-.14.33.02c.18.24.27.44.27.57,0,.09-.08.17-.25.24v.17h.16l-.02.36.02.2c0,.1-.01.18-.04.23-.03.05-.09.1-.18.17l.13.47c.11.12.17.27.17.45s-.03.36-.1.53c-.18.01-.3.04-.36.09-.06.05-.08.16-.08.32l.61.44-.02.62.02.17Z"/>
    <path d="M119.27,169.27l-.02.59-.24.72.02.36-.05.27.14.45v.02c0,.12-.09.3-.27.54l-.17.25-.26.06.17.2c.18.2.3.34.36.41.06.07.08.15.08.22l-.12.58v.32l-.16.04.1.1-.1.32v.04l.23,1.17-.07.23c-.2.07-.3.16-.3.26s.11.22.32.36l.02.83-.11.23c-.03.1-.05.15-.05.14,0,.07.05.18.16.33.08.14.12.27.12.4,0,.11-.06.24-.17.38.16.14.25.24.29.28l-.02.77.05.97v.13c-.2.03-.36.08-.49.14-.13.06-.38.21-.75.45l-.11.14-.21-.02-.47.3c-.08-.14-.12-.27-.12-.4,0-.23.06-.4.19-.51h.18c0-.1-.03-.17-.07-.21-.04-.04-.13-.07-.27-.11l.02-.97.1-.07-.07-.45c-.07-.04-.14-.06-.19-.06-.02,0-.03,0-.05,0s-.05,0-.08.01l-.12.11h-.19c-.1,0-.18.02-.23.06l-.29.15-.49.17-1.79,1-.58.17-.78.34-1.05.3-.81.19c-.31.12-.55.18-.73.18h-.44l-.74.19-.66.02-.42.04-.37-.04-.87-.14-.54-.2-.39-.1-.49-.38-.19-.17-.39.04-.25-.15-.12-.2-.44-.28c-.08-.1-.12-.3-.12-.61v-.15l-.37-.16-.14-.34-.17-.59-.13-.22.35-.49c-.21-.14-.35-.27-.44-.39-.08-.12-.13-.26-.13-.42s.03-.29.1-.4l.3-.57.02-.77.19-.15c.16.03.27.04.32.04.11,0,.17-.04.17-.13s-.08-.15-.24-.21v-.4l-.25-.06.3-1.19.12-.22.12-.17.27-.68.19-.23.1-.22.3-.23c-.03-.11-.05-.22-.05-.32,0-.23.18-.55.54-.97l-.23-.13-.26.13c-.06-.22-.1-.34-.1-.38,0-.1.07-.19.2-.28.13-.08.28-.12.46-.12l.3.02.1-.18.31-.04,1.18-.45.33-.12c.17.16.25.3.25.42,0,.07-.03.12-.1.15l-.25.16-.51.61-.17.1-.02.3-.32.4-.44.49-.26.34-.3.95-.29.73-.06.57-.33.77-.02.36-.2.73.11.47-.13.36.42,1.09.02.21c-.1,0-.18.05-.24.12-.06.07-.1.16-.1.26,0,.12.14.2.41.24l.13.23.21.45.56.64.1.21.25.09.44.29,1.12.28.73.15.44.13c.21.19.36.29.47.29.09,0,.2-.12.35-.35l1.38-.07.25.18.26-.1.86-.26.32-.2.91-.33.61-.42.29-.04.81-.42.56-.13.1-.12-.21-.12.26-.15.39-.25.74-.96.36-.23c.06-.07.1-.2.1-.4v-.7l.02-.72c.12-.08.19-.14.23-.2.03-.05.05-.16.05-.31l-.42-.25-.12-2.17.14-.19c-.08-.12-.12-.21-.12-.28,0-.11.04-.25.12-.42l-.12-.08-.02-.24-.1-.83c0-.08.06-.2.19-.38l-.54-.45.14-.31h.23c.25-.21.45-.33.61-.38l.27-.08.24-.13.32.04c.14-.19.23-.3.3-.34.06-.04.19-.06.38-.06l.12.26v.22Z"/>
    <path d="M138.06,180.74l-.16.42-.26-.02c-.1,0-.16.02-.2.06l-.24.42-.32.18-.1.1-.44-.04-.51.2h-.02l-.58-.15-.07-.02-1.35.04-.38-.04-.13-.15c-.49.08-.76.12-.82.12l-.44-.02-.3.04-.1-.19h-.14l-.12.02-.42.17-2.35.02-.35.14c-.26-.14-.47-.21-.61-.21l-.12.02-.61.14-.69-.12-2.1.06c-.07,0-.37-.08-.89-.23l.12-.22.29-.55.05-.52.13-.47v-.73l.07-.28-.05-2.24.05-.57-.02-.21-.07-.22.49-.02c-.09-.15-.16-.26-.23-.33-.06-.06-.18-.14-.33-.24l-.06-.16.06-.72-.11-1.23.11-.47.05-.19-.25-.06-.1-.2-.05-.63-.14-.2-.02-.1.02-.24.1-.12.66.14-.19-.14c-.12-.07-.18-.14-.18-.19,0-.03.02-.09.05-.16l-.19-.06-.24.06c-.02-.32-.05-.53-.08-.63-.03-.1-.08-.16-.15-.18l-.47-.15.12-.2c.06-.05.19-.11.39-.17l.23-.06c.39-.15.69-.22.89-.22h.02s.02,0,.04.02l1.75.24.81.06.45.12c.29-.09.49-.14.6-.14.05,0,.08,0,.1.02l1.8.15,1.59-.08.62.15.36-.07v-.12c.55-.04.95-.1,1.2-.17.35-.11.56-.16.63-.16l.24.04c-.04.15-.09.25-.15.31-.06.06-.19.13-.39.21-.02.12-.04.2-.08.24-.04.05-.16.11-.35.19-.41.15-.76.23-1.03.23h-.13l-.63-.04-.54.06-1.1-.1-.25-.02c-.22-.12-.44-.17-.66-.17-.17.15-.48.23-.93.23l-.36-.02-.06-.17-.24.06-.35.12-1.63-.12-.26.32.1.08v.08l.05.51-.1.75.05.28.02.21.24.06,1.63.13c.11,0,.27.06.49.19l.37-.06c.22-.06.39-.1.49-.1h.02l1.28.06.75.02h.68c.14,0,.26,0,.36-.03.1-.02.21-.05.33-.11l.91.14.21-.04.51-.1.93-.02.98-.11c.11.03.22.07.33.15l.25-.13c.16-.1.31-.15.44-.15l.26.02.27-.02v.3l-.32.17-.73.51c-.09.06-.17.09-.25.09h-.05l-.8-.09-1.03.03-.56-.11-2,.11-.37-.03c-.09-.13-.19-.19-.3-.19-.06,0-.11,0-.14.02l-.54.17-1.56-.14-.76.22-.54-.13-.44.22-1.31-.08-.1.14.05.51-.2.52.11.15.17.17-.17.42c.12.18.19.31.21.4l-.05.32.1.89v.02c0,.08-.09.22-.26.4.21.21.31.39.31.52,0,.04-.02.08-.05.14l-.32.55.35.49.14,1.85.37.06,1.61.45.54-.06c.13,0,.31.05.54.15.16-.12.27-.17.35-.17h.05l1.1.17.67-.06.58.1,1.42-.08.41.06.69.02.24.07-.07-.15.27-.04,1.12-.02.24-.08,1.4-.2s.13-.02.27-.05c.14-.03.23-.04.26-.04.05,0,.15.02.3.06Z"/>
    <path d="M155.45,181.5l-.26.15-.3.17-.44.1-.85.24c-.24.05-.49.08-.76.08h-.42c-.26-.32-.42-.48-.47-.49l-.61-.3-.29-.19-.16-.14c-.21-.21-.31-.31-.31-.32l-.11-.55-.45-.14-.39-.47-.47-.15-.27-.31-.19-.05-.17-.15-.39-.26-.23-.21-.33-.15-.42-.4-.25-.2c.04-.08.06-.15.06-.21,0-.15-.07-.24-.2-.26l-.58-.1-.17-.16-.69-.42-.33-.42-.42-.17-.35-.26-.31-.1-.76-.47-.24-.06-.08.25-.12.24-.02.45c.11.05.17.12.17.19,0,.07,0,.12-.02.15l-.1.23-.05.56-.05.44.05.27-.1.24.17.24-.02.19-.07.51.02.32.25,1.57v.06c0,.12-.05.22-.16.3l-.24.17-.2.15h-.41c-.14,0-.26.05-.37.14l-.63.42s-.11.04-.23.04c-.16,0-.24-.04-.24-.12,0-.05.1-.24.29-.58.09-.12.13-.29.13-.49l.02-.66.14-.33-.07-.72.12-.17.19.02c.1,0,.17-.03.21-.08.04-.05.06-.16.06-.31l-.17-.13c-.18-.11-.27-.24-.27-.38l.07-.38-.12-.12-.02-.32.02-.44.1-.74-.1-.94.07-.45-.14-.25c.02-.09.17-.17.44-.24v-.36c-.11-.12-.22-.17-.32-.17l-.02-.43-.05-.75.07-.38c-.1-.15-.17-.29-.21-.4-.04-.11-.05-.27-.05-.47v-.43l-.08-.06.08-.72c0-.19-.08-.37-.23-.55l-.47-.22.05-.26.25-.06.17-.06c.51-.17,1.01-.26,1.52-.28l.86-.04.37-.04c.16.12.28.18.36.18h.02l1.2-.18.26.13s.04,0,.05,0c.01,0,.03,0,.04.01l.3-.02.84.02h1.68l1.26.17.81.04.66.28.74.17c.27.06.48.19.61.37.14.18.21.4.21.66,0,.23-.07.51-.21.83l-.42-.06c.02.16.1.27.21.33l-.12.22-.26.21-.16.16s-.16.04-.38.04c-.03.04-.05.08-.05.14l.1.16-.16.15-.26.12-.54.5-.39.12-.39.21-.24.02c-.07.17-.19.29-.35.36l-.29.1-.37.11h-.3l-.58.15-.17.02h-.1l-.35.22c-.07-.04-.14-.06-.19-.06s-.11.01-.16.04c-.02.03-.02.05-.02.08,0,.06.06.13.18.21l-.08.16c-.16.11-.24.19-.24.25,0,0,.02.04.05.11h.25c.1-.08.21-.13.36-.14l.25.22-.12.08c.02.2.1.3.24.3l.24-.02.25.25.68.62.47.34.51.49-.07.25.51.22c.06.12.11.2.15.23.04.03.16.1.36.23l.54.47.37.34.19.17v.13c0,.12.04.23.12.31l.49.13.23.14.42.32,1.22.61.25.2s.05,0,.07,0c.01,0,.02,0,.03.01l.75-.1h.02c.11,0,.27.07.47.21ZM150.18,170.91c0-.28-.1-.48-.3-.6l-.38-.24-.42-.25-.39-.02-.56-.16-.12-.02h-.2l-.14-.27-.32-.04-.17.23-1.68-.12-.16.1-.19-.02-1.66.15h-.25l-.19.18c-.17,0-.28.05-.35.16-.06.11-.1.33-.1.67l.02.63.02.42v.26c-.23.15-.35.27-.35.38,0,.15.15.26.44.32l.1.21-.05.32v.28l-.1.45c.02.15.19.29.51.4l-.02.08,1.07-.02.16.12.21-.04.39-.04.78-.24.27.09.26-.11,1.07-.31.39-.22.81-.28.58-.78.66-.58.05-.32.23-.49.05-.27Z"/>
    <path d="M171.7,181.5l-.26.15-.3.17-.44.1-.85.24c-.24.05-.49.08-.76.08h-.42c-.26-.32-.42-.48-.47-.49l-.61-.3-.29-.19-.16-.14c-.21-.21-.31-.31-.31-.32l-.11-.55-.45-.14-.39-.47-.47-.15-.27-.31-.19-.05-.17-.15-.39-.26-.23-.21-.33-.15-.42-.4-.25-.2c.04-.08.06-.15.06-.21,0-.15-.07-.24-.2-.26l-.58-.1-.17-.16-.69-.42-.33-.42-.42-.17-.35-.26-.31-.1-.76-.47-.24-.06-.08.25-.12.24-.02.45c.11.05.17.12.17.19,0,.07,0,.12-.02.15l-.1.23-.05.56-.05.44.05.27-.1.24.17.24-.02.19-.07.51.02.32.25,1.57v.06c0,.12-.05.22-.16.3l-.24.17-.2.15h-.41c-.14,0-.26.05-.37.14l-.63.42s-.11.04-.23.04c-.16,0-.24-.04-.24-.12,0-.05.1-.24.29-.58.09-.12.13-.29.13-.49l.02-.66.14-.33-.07-.72.12-.17.19.02c.1,0,.17-.03.21-.08.04-.05.06-.16.06-.31l-.17-.13c-.18-.11-.27-.24-.27-.38l.07-.38-.12-.12-.02-.32.02-.44.1-.74-.1-.94.07-.45-.14-.25c.02-.09.17-.17.44-.24v-.36c-.11-.12-.22-.17-.32-.17l-.02-.43-.05-.75.07-.38c-.1-.15-.17-.29-.21-.4-.04-.11-.05-.27-.05-.47v-.43l-.08-.06.08-.72c0-.19-.08-.37-.23-.55l-.47-.22.05-.26.25-.06.17-.06c.51-.17,1.01-.26,1.52-.28l.86-.04.37-.04c.16.12.28.18.36.18h.02l1.2-.18.26.13s.04,0,.05,0c.01,0,.03,0,.04.01l.3-.02.84.02h1.68l1.26.17.81.04.66.28.74.17c.27.06.48.19.61.37.14.18.21.4.21.66,0,.23-.07.51-.21.83l-.42-.06c.02.16.1.27.21.33l-.12.22-.26.21-.16.16s-.16.04-.38.04c-.03.04-.05.08-.05.14l.1.16-.16.15-.26.12-.54.5-.39.12-.39.21-.24.02c-.07.17-.19.29-.35.36l-.29.1-.37.11h-.3l-.58.15-.17.02h-.1l-.35.22c-.07-.04-.14-.06-.19-.06s-.11.01-.16.04c-.02.03-.02.05-.02.08,0,.06.06.13.18.21l-.08.16c-.16.11-.24.19-.24.25,0,0,.02.04.05.11h.25c.1-.08.21-.13.36-.14l.25.22-.12.08c.02.2.1.3.24.3l.24-.02.25.25.68.62.47.34.51.49-.07.25.51.22c.06.12.11.2.15.23.04.03.16.1.36.23l.54.47.37.34.19.17v.13c0,.12.04.23.12.31l.49.13.23.14.42.32,1.22.61.25.2s.05,0,.07,0c.01,0,.02,0,.03.01l.75-.1h.02c.11,0,.27.07.47.21ZM166.43,170.91c0-.28-.1-.48-.3-.6l-.38-.24-.42-.25-.39-.02-.56-.16-.12-.02h-.2l-.14-.27-.32-.04-.17.23-1.68-.12-.16.1-.19-.02-1.66.15h-.25l-.19.18c-.17,0-.28.05-.35.16-.06.11-.1.33-.1.67l.02.63.02.42v.26c-.23.15-.35.27-.35.38,0,.15.15.26.44.32l.1.21-.05.32v.28l-.1.45c.02.15.19.29.51.4l-.02.08,1.07-.02.16.12.21-.04.39-.04.78-.24.27.09.26-.11,1.07-.31.39-.22.81-.28.58-.78.66-.58.05-.32.23-.49.05-.27Z"/>
    <path d="M188.69,180.74l-.16.42-.26-.02c-.1,0-.16.02-.2.06l-.24.42-.32.18-.1.1-.44-.04-.51.2h-.02l-.58-.15-.07-.02-1.35.04-.38-.04-.13-.15c-.49.08-.76.12-.82.12l-.44-.02-.3.04-.1-.19h-.14l-.12.02-.42.17-2.35.02-.35.14c-.26-.14-.47-.21-.61-.21l-.12.02-.61.14-.69-.12-2.1.06c-.07,0-.37-.08-.89-.23l.12-.22.29-.55.05-.52.13-.47v-.73l.07-.28-.05-2.24.05-.57-.02-.21-.07-.22.49-.02c-.09-.15-.16-.26-.23-.33-.06-.06-.18-.14-.33-.24l-.06-.16.06-.72-.11-1.23.11-.47.05-.19-.25-.06-.1-.2-.05-.63-.14-.2-.02-.1.02-.24.1-.12.66.14-.19-.14c-.12-.07-.18-.14-.18-.19,0-.03.02-.09.05-.16l-.19-.06-.24.06c-.02-.32-.05-.53-.08-.63-.03-.1-.08-.16-.15-.18l-.47-.15.12-.2c.06-.05.19-.11.39-.17l.23-.06c.39-.15.69-.22.89-.22h.02s.02,0,.04.02l1.75.24.81.06.45.12c.29-.09.49-.14.6-.14.05,0,.08,0,.1.02l1.8.15,1.59-.08.62.15.36-.07v-.12c.55-.04.95-.1,1.2-.17.35-.11.56-.16.63-.16l.24.04c-.04.15-.09.25-.15.31-.06.06-.19.13-.39.21-.02.12-.04.2-.08.24-.04.05-.16.11-.35.19-.41.15-.76.23-1.03.23h-.13l-.63-.04-.54.06-1.1-.1-.25-.02c-.22-.12-.44-.17-.66-.17-.17.15-.48.23-.93.23l-.36-.02-.06-.17-.24.06-.35.12-1.63-.12-.26.32.1.08v.08l.05.51-.1.75.05.28.02.21.24.06,1.63.13c.11,0,.27.06.49.19l.37-.06c.22-.06.39-.1.49-.1h.02l1.28.06.75.02h.68c.14,0,.26,0,.36-.03.1-.02.21-.05.33-.11l.91.14.21-.04.51-.1.93-.02.98-.11c.11.03.22.07.33.15l.25-.13c.16-.1.31-.15.44-.15l.26.02.27-.02v.3l-.32.17-.73.51c-.09.06-.17.09-.25.09h-.05l-.8-.09-1.03.03-.56-.11-2,.11-.37-.03c-.09-.13-.19-.19-.3-.19-.06,0-.11,0-.14.02l-.54.17-1.56-.14-.76.22-.54-.13-.44.22-1.31-.08-.1.14.05.51-.2.52.11.15.17.17-.17.42c.12.18.19.31.21.4l-.05.32.1.89v.02c0,.08-.09.22-.26.4.21.21.31.39.31.52,0,.04-.02.08-.05.14l-.32.55.35.49.14,1.85.37.06,1.61.45.54-.06c.13,0,.31.05.54.15.16-.12.27-.17.35-.17h.05l1.1.17.67-.06.58.1,1.42-.08.41.06.69.02.24.07-.07-.15.27-.04,1.12-.02.24-.08,1.4-.2s.13-.02.27-.05c.14-.03.23-.04.26-.04.05,0,.15.02.3.06Z"/>
    <path d="M206.08,181.5l-.26.15-.3.17-.44.1-.85.24c-.24.05-.49.08-.76.08h-.42c-.26-.32-.42-.48-.47-.49l-.61-.3-.29-.19-.16-.14c-.21-.21-.31-.31-.31-.32l-.11-.55-.45-.14-.39-.47-.47-.15-.27-.31-.19-.05-.17-.15-.39-.26-.23-.21-.33-.15-.42-.4-.25-.2c.04-.08.06-.15.06-.21,0-.15-.07-.24-.2-.26l-.58-.1-.17-.16-.69-.42-.33-.42-.42-.17-.35-.26-.31-.1-.76-.47-.24-.06-.08.25-.12.24-.02.45c.11.05.17.12.17.19,0,.07,0,.12-.02.15l-.1.23-.05.56-.05.44.05.27-.1.24.17.24-.02.19-.07.51.02.32.25,1.57v.06c0,.12-.05.22-.16.3l-.24.17-.2.15h-.41c-.14,0-.26.05-.37.14l-.63.42s-.11.04-.23.04c-.16,0-.24-.04-.24-.12,0-.05.1-.24.29-.58.09-.12.13-.29.13-.49l.02-.66.14-.33-.07-.72.12-.17.19.02c.1,0,.17-.03.21-.08.04-.05.06-.16.06-.31l-.17-.13c-.18-.11-.27-.24-.27-.38l.07-.38-.12-.12-.02-.32.02-.44.1-.74-.1-.94.07-.45-.14-.25c.02-.09.17-.17.44-.24v-.36c-.11-.12-.22-.17-.32-.17l-.02-.43-.05-.75.07-.38c-.1-.15-.17-.29-.21-.4-.04-.11-.05-.27-.05-.47v-.43l-.08-.06.08-.72c0-.19-.08-.37-.23-.55l-.47-.22.05-.26.25-.06.17-.06c.51-.17,1.01-.26,1.52-.28l.86-.04.37-.04c.16.12.28.18.36.18h.02l1.2-.18.26.13s.04,0,.05,0c.01,0,.03,0,.04.01l.3-.02.84.02h1.68l1.26.17.81.04.66.28.74.17c.27.06.48.19.61.37.14.18.21.4.21.66,0,.23-.07.51-.21.83l-.42-.06c.02.16.1.27.21.33l-.12.22-.26.21-.16.16s-.16.04-.38.04c-.03.04-.05.08-.05.14l.1.16-.16.15-.26.12-.54.5-.39.12-.39.21-.24.02c-.07.17-.19.29-.35.36l-.29.1-.37.11h-.3l-.58.15-.17.02h-.1l-.35.22c-.07-.04-.14-.06-.19-.06s-.11.01-.16.04c-.02.03-.02.05-.02.08,0,.06.06.13.18.21l-.08.16c-.16.11-.24.19-.24.25,0,0,.02.04.05.11h.25c.1-.08.21-.13.36-.14l.25.22-.12.08c.02.2.1.3.24.3l.24-.02.25.25.68.62.47.34.51.49-.07.25.51.22c.06.12.11.2.15.23.04.03.16.1.36.23l.54.47.37.34.19.17v.13c0,.12.04.23.12.31l.49.13.23.14.42.32,1.22.61.25.2s.05,0,.07,0c.01,0,.02,0,.03.01l.75-.1h.02c.11,0,.27.07.47.21ZM200.81,170.91c0-.28-.1-.48-.3-.6l-.38-.24-.42-.25-.39-.02-.56-.16-.12-.02h-.2l-.14-.27-.32-.04-.17.23-1.68-.12-.16.1-.19-.02-1.66.15h-.25l-.19.18c-.17,0-.28.05-.35.16-.06.11-.1.33-.1.67l.02.63.02.42v.26c-.23.15-.35.27-.35.38,0,.15.15.26.44.32l.1.21-.05.32v.28l-.1.45c.02.15.19.29.51.4l-.02.08,1.07-.02.16.12.21-.04.39-.04.78-.24.27.09.26-.11,1.07-.31.39-.22.81-.28.58-.78.66-.58.05-.32.23-.49.05-.27Z"/>
    <path d="M226.15,175.44s0,.08-.02.11l-.21.57.02.49-.18.26s-.09-.02-.17-.02c-.05,0-.09.03-.13.1-.04.06-.06.14-.06.22,0,.03,0,.05.02.06.16.21.24.35.24.42,0,.05-.02.1-.05.14-.17.13-.28.27-.35.44l-.26.1.07.07-.07.06.19.12-.02.06-.21.16-.27.37-.19.16c-.11-.09-.2-.14-.27-.14-.14,0-.21.06-.21.19,0,.05.06.15.19.28-.25.34-.65.64-1.22.93-.59.3-1.2.58-1.83.82s-1.11.39-1.46.44l-.24.04c-.6.09-.97.14-1.12.14h-.05l-.47-.02-.3.04-.44-.21-.33.12c-.15.08-.26.13-.32.13h-.1c-.06-.12-.13-.21-.19-.27-.06-.05-.16-.1-.3-.15-.49.21-.88.31-1.15.31-.1,0-.19-.03-.27-.08-.18,0-.27,0-.29-.02l-.84-.19-.7.02-.27-.18-.39.04-.33-.04-.49-.12-1.52-.28-.42-.27-.54-.16-.56-.47c-.13-.08-.31-.12-.56-.12l-.32-.3c.06-.12.1-.22.1-.28,0-.2-.29-.34-.88-.42v-.08l-.14-.04-.14-.21-.12-.11v-.21l-.25-.58-.05-.19-.19-.85.07-.83.1-.24.07-.53.58-1.25.07-.22c.17-.34.43-.58.79-.74v-.13l.61-.55c.1.03.15.04.17.04.12,0,.2-.04.25-.12l.17-.42.23-.24c.09-.14.21-.25.36-.32l.37-.14.32-.32.75-.42c.5-.26.79-.4.86-.4l.19.06.32-.31.21-.04,2.25-.72c.13-.05.28-.08.47-.08.17,0,.37.04.61.12l.19-.06.07-.18.35.04.19.03h.06l.58-.13.93.04.45-.08.39.04.37-.02.42.12.7.11.51.23,1.47.44.14.11.27.14v.1l-.05.02c-.06.05-.1.1-.1.14s.09.11.26.19l.05-.08c.18,0,.32.07.42.21,0,.15.02.25.05.29.03.05.11.12.23.21.12-.06.23-.09.33-.09.21,0,.38.07.51.2l.2.21.43.32.06.22.29.29.07.26c-.13.14-.19.25-.19.34,0,.04,0,.07.02.1l.73.6.05.21.2.45s-.02.1-.05.24l-.18.08v.1l.2.02.05.22.12.73ZM224.24,173.8c0-.29-.23-.46-.68-.52l-.07-.53-.58-.73-.1-.3-.16-.02-.21-.21-.54-.51-.49-.26-.49-.32-.23-.06-.14-.21h-.24c-.22,0-.39-.04-.51-.11l-1.05-.47-1.05-.12-.76-.12-.73.02h-.56l-.6.14-.54.06-.54.26-.29-.06h-.02l-.3.08-1.32.59-.31.04c-.22.26-.42.41-.58.45l-.32.11-1.05.83-.19.12c-.29.17-.58.49-.88.95l-.12.18-.25.04-.12.19-.14.5-.16.14-.07.19-.49-.06c-.04.11-.08.18-.13.22-.04.04-.12.08-.23.12l-.04.1c.29.15.44.29.44.44l-.02.68.18.99-.02.24.38.51c-.19.1-.29.19-.29.28,0,.06.04.11.11.17.08.05.17.08.28.08.04,0,.07-.01.1-.01.03,0,.07,0,.14,0l.44.44c-.1.12-.14.19-.14.22l.1.15h.1l.49.38.63.28.88.59.68.11.37.31,1.24.38,1.03.36.35-.02,2.2.26.35.02.27-.02.47-.1,1.19.06.51-.09.91-.29.33-.08.18.12c.25-.06.38-.12.41-.18l.11-.31,1.19-.83.49-.7.19-.28h.16l.14-.25-.07-.11.07-.17.05-.79.19-.38.06-.28.17-.1.12-.59c-.16-.23-.24-.41-.24-.54v-.02l.05-.93-.02-.3c.24-.12.36-.25.36-.39Z"/>
  </g>
  <g>
    <path d="M84.8,199.99c-.52-.14-.95-.32-1.27-.55l.64-1.43c.31.2.66.37,1.07.49.41.12.8.19,1.2.19.75,0,1.12-.19,1.12-.56,0-.2-.11-.34-.32-.44-.21-.09-.55-.19-1.02-.3-.52-.11-.95-.23-1.29-.36-.35-.13-.64-.33-.89-.61-.25-.28-.37-.66-.37-1.14,0-.42.11-.8.34-1.13.23-.34.57-.6,1.02-.8s1.01-.29,1.67-.29c.45,0,.9.05,1.33.15.44.1.82.25,1.16.45l-.6,1.44c-.65-.35-1.29-.53-1.9-.53-.39,0-.67.06-.84.17s-.26.26-.26.45.1.32.31.41c.21.09.55.19,1.01.28.52.11.96.23,1.3.36.34.13.64.33.89.61.25.28.38.66.38,1.13,0,.41-.11.78-.34,1.12-.23.33-.57.6-1.03.8-.46.2-1.01.3-1.67.3-.56,0-1.09-.07-1.62-.21Z"/>
    <path d="M94.94,198.72h-2.9l-.54,1.33h-1.98l3.03-6.86h1.91l3.04,6.86h-2.02l-.54-1.33ZM94.37,197.29l-.88-2.2-.88,2.2h1.76Z"/>
    <path d="M104.25,197.12c.22.29.33.64.33,1.05,0,.6-.24,1.07-.73,1.39-.48.33-1.18.49-2.1.49h-3.71v-6.86h3.51c.88,0,1.54.16,2,.49.46.32.69.76.69,1.31,0,.33-.08.62-.24.88-.16.26-.39.46-.68.61.39.14.7.35.92.64ZM99.97,194.6v1.32h1.33c.65,0,.98-.22.98-.67s-.33-.66-.98-.66h-1.33ZM102.62,197.96c0-.46-.34-.7-1.02-.7h-1.63v1.39h1.63c.68,0,1.02-.23,1.02-.7Z"/>
    <path d="M107.09,199.73c-.58-.31-1.03-.73-1.36-1.27-.33-.54-.5-1.15-.5-1.83s.16-1.29.5-1.83c.33-.54.78-.97,1.36-1.27.58-.31,1.23-.46,1.96-.46s1.38.15,1.96.46c.58.31,1.03.73,1.36,1.27.33.54.5,1.15.5,1.83s-.17,1.29-.5,1.83c-.33.54-.78.97-1.36,1.27-.58.31-1.23.46-1.96.46s-1.38-.15-1.96-.46ZM109.99,198.34c.28-.16.5-.39.67-.69.16-.3.24-.64.24-1.02s-.08-.73-.24-1.02c-.16-.3-.39-.53-.67-.69-.28-.16-.59-.25-.94-.25s-.66.08-.94.25c-.28.16-.5.39-.67.69-.16.3-.25.64-.25,1.02s.08.73.25,1.02c.16.3.39.53.67.69.28.16.59.24.94.24s.66-.08.94-.24Z"/>
    <path d="M116.88,198.23h-1.06v1.82h-1.94v-6.86h3.14c.62,0,1.16.1,1.62.31.46.21.81.5,1.06.88.25.38.37.83.37,1.35s-.12.93-.35,1.3c-.23.37-.56.66-1,.87l1.48,2.16h-2.08l-1.25-1.82ZM117.8,194.99c-.2-.18-.5-.26-.9-.26h-1.08v2.01h1.08c.4,0,.7-.09.9-.26.2-.17.3-.42.3-.74s-.1-.57-.3-.75Z"/>
    <path d="M128.74,193.5c.46.21.81.5,1.06.88.25.38.37.83.37,1.35s-.12.96-.37,1.34c-.25.38-.6.67-1.06.88-.46.21-1,.31-1.62.31h-1.2v1.79h-1.94v-6.86h3.14c.62,0,1.16.1,1.62.31ZM127.91,196.47c.2-.17.3-.42.3-.74s-.1-.57-.3-.75c-.2-.18-.5-.26-.9-.26h-1.08v2.01h1.08c.4,0,.7-.09.9-.26Z"/>
    <path d="M135.37,198.72h-2.9l-.54,1.33h-1.98l3.03-6.86h1.91l3.04,6.86h-2.02l-.54-1.33ZM134.8,197.29l-.88-2.2-.88,2.2h1.76Z"/>
    <path d="M139.86,199.74c-.57-.3-1.02-.73-1.35-1.27-.33-.54-.49-1.16-.49-1.84s.16-1.3.49-1.84c.33-.54.78-.97,1.35-1.27s1.22-.46,1.94-.46c.63,0,1.19.11,1.7.33.5.22.92.54,1.25.96l-1.24,1.12c-.44-.54-.98-.8-1.62-.8-.37,0-.7.08-1,.25s-.52.39-.68.69c-.16.3-.24.64-.24,1.02s.08.73.24,1.02c.16.3.39.53.68.69s.62.24,1,.24c.63,0,1.17-.27,1.62-.8l1.24,1.12c-.33.42-.75.74-1.25.96-.5.22-1.07.33-1.7.33-.72,0-1.36-.15-1.94-.46Z"/>
    <path d="M145.61,193.19h1.94v6.86h-1.94v-6.86ZM146.94,191.14h1.86l-1.84,1.49h-1.33l1.31-1.49Z"/>
    <path d="M150.88,194.69v1.51h3.03v1.5h-3.03v2.35h-1.94v-6.86h5.38v1.5h-3.44Z"/>
    <path d="M155.23,193.19h1.94v6.86h-1.94v-6.86Z"/>
    <path d="M160.04,199.74c-.57-.3-1.02-.73-1.35-1.27-.33-.54-.49-1.16-.49-1.84s.16-1.3.49-1.84c.33-.54.78-.97,1.35-1.27s1.22-.46,1.94-.46c.63,0,1.19.11,1.7.33.5.22.92.54,1.25.96l-1.24,1.12c-.44-.54-.98-.8-1.62-.8-.37,0-.7.08-1,.25s-.52.39-.68.69c-.16.3-.24.64-.24,1.02s.08.73.24,1.02c.16.3.39.53.68.69s.62.24,1,.24c.63,0,1.17-.27,1.62-.8l1.24,1.12c-.33.42-.75.74-1.25.96-.5.22-1.07.33-1.7.33-.72,0-1.36-.15-1.94-.46Z"/>
    <path d="M167.14,199.73c-.58-.31-1.03-.73-1.36-1.27-.33-.54-.5-1.15-.5-1.83s.16-1.29.5-1.83c.33-.54.78-.97,1.36-1.27.58-.31,1.23-.46,1.96-.46s1.38.15,1.96.46c.58.31,1.03.73,1.36,1.27.33.54.5,1.15.5,1.83s-.17,1.29-.5,1.83c-.33.54-.78.97-1.36,1.27-.58.31-1.23.46-1.96.46s-1.38-.15-1.96-.46ZM170.04,198.34c.28-.16.5-.39.67-.69.16-.3.24-.64.24-1.02s-.08-.73-.24-1.02c-.16-.3-.39-.53-.67-.69-.28-.16-.59-.25-.94-.25s-.66.08-.94.25c-.28.16-.5.39-.67.69-.16.3-.25.64-.25,1.02s.08.73.25,1.02c.16.3.39.53.67.69.28.16.59.24.94.24s.66-.08.94-.24Z"/>
  </g>
  <g>
    <path d="M175.13,196.12h57.39s-.6,2.85-9.88,2.85c-7.88,0-13.07-1.85-13.07-1.85h-34.44v-1.01Z"/>
    <path d="M46.87,196.12s-5.52-1.85-13.07-1.85h-9.88v1.12h9.3v.73h-9.3v1h9.3v.73h-9.3v1.12h9.88c7.54,0,13.07-1.85,13.07-1.85h34.44v-1.01h0s-34.44,0-34.44,0Z"/>
  </g>
  <g>
    <rect x="82.59" y="205.61" width="30.42" height="2.51" style="fill: #e23816;"/>
    <rect x="113.01" y="205.61" width="30.42" height="2.51" style="fill: #3aa64a;"/>
    <rect x="143.43" y="205.61" width="30.42" height="2.51" style="fill: #eca13b;"/>
  </g>
  <g>
    <path d="M188.87,29.95c-3.69,2.5-7.65,4.64-7.65,14.5,0,0,.12,4.93.15,4.99.22,5.09.19,10.25-4.4,13.82-.85.66-1.79,1.12-2.76,1.43-.01,0-.03-.01-.04,0-3.22-.05-5.18-1.54-5.52-4.18-.26-2.05,1.18-3.93,3.23-4.19,1.56-.19,2.99.89,3.21,2.44.05.35.02.71-.1,1.05-.3.8-.97,1.31-1.76,1.41-.38.05-.75-.05-1.07-.26.11-.06.22-.12.31-.21.49-.5.47-1.3-.03-1.79-.5-.49-1.3-.47-1.79.03-.79.8-.03,2.49.59,2.96.62.48,1.38.68,2.15.58.92-.12,1.74-.59,2.31-1.32.57-.73.82-1.65.7-2.57-.29-2.28-2.39-3.91-4.69-3.62-2.77.36-4.73,2.9-4.37,5.67.2,1.57.86,2.83,1.9,3.73.26.22.54.41.84.58-2.66-.5-6.77-3.75-8.39-6.49-2.39-3.85-1.12.7-1.12.7.68,1.1,2.93,3.48,3.86,4.28,1.51,1.29,3.61,2.49,5.5,2.83,2.77.5,5.56-.21,7.84-2,5.4-4.2,5.11-10.38,4.86-15.83-.06-1.25-.11-2.49-.11-3.69-.29-9.66,4.03-11.71,7.07-13.75.28-.19.38-.57.21-.87h0c-.19-.34-.63-.44-.95-.22Z"/>
    <path d="M180.67,51.83c-1.28,0-3.33-.3-5.52-1.79-4.31-2.96-7.12-9.12-8.36-18.31l-.28-2.09,1.68,1.27c.15.11,3.63,2.76,7.18,6.51,4.85,5.14,7.31,9.66,7.31,13.44v.7l-.68.16c-.05.01-.55.12-1.33.12ZM168.89,33.72c.97,5.53,3,11.89,7.22,14.83,1.99,1.38,3.81,1.55,4.77,1.52-.34-3.15-2.66-7.09-6.78-11.45-1.93-2.04-3.87-3.77-5.21-4.9Z"/>
    <path d="M181.98,41.78l-.63-.11c-.09-.02-2.23-.4-3.73-2.75-1.8-2.81-1.94-7.1-.41-12.74l.5-1.84,1.08,1.58c.27.39,6.49,9.64,3.49,15.3l-.3.56ZM178.42,28.7c-1.04,5.07-.24,7.83.68,9.28.63.98,1.39,1.49,1.92,1.74.81-2.35-.06-5.44-.99-7.71-.52-1.27-1.11-2.42-1.61-3.3Z"/>
    <path d="M191.87,31.91c-1.76,0-3.2-1.44-3.2-3.2s1.44-3.2,3.2-3.2,3.2,1.44,3.2,3.2-1.44,3.2-3.2,3.2ZM191.87,26.68c-1.12,0-2.03.91-2.03,2.03s.91,2.03,2.03,2.03,2.03-.91,2.03-2.03-.91-2.03-2.03-2.03Z"/>
    <path d="M189.9,38.55c-1.76,0-3.2-1.44-3.2-3.2s1.44-3.2,3.2-3.2,3.2,1.44,3.2,3.2-1.44,3.2-3.2,3.2ZM189.9,33.32c-1.12,0-2.03.91-2.03,2.03s.91,2.03,2.03,2.03,2.03-.91,2.03-2.03-.91-2.03-2.03-2.03Z"/>
    <path d="M196.73,37.13c-1.76,0-3.2-1.44-3.2-3.2s1.44-3.2,3.2-3.2,3.2,1.44,3.2,3.2-1.44,3.2-3.2,3.2ZM196.73,31.91c-1.12,0-2.03.91-2.03,2.03s.91,2.03,2.03,2.03,2.03-.91,2.03-2.03-.91-2.03-2.03-2.03Z"/>
  </g>
  <g>
    <path d="M66.62,30.17h0c-.17.3-.08.68.21.87,3.04,2.04,7.36,4.1,7.07,13.75,0,1.2-.05,2.44-.11,3.69-.25,5.45-.54,11.62,4.86,15.83,2.29,1.78,5.07,2.49,7.84,2,1.89-.34,3.99-1.53,5.5-2.83.93-.8,3.18-3.18,3.86-4.28,0,0,1.27-4.54-1.12-.7-1.62,2.74-5.73,5.99-8.39,6.49.3-.18.59-.37.84-.58,1.05-.9,1.71-2.16,1.9-3.73.36-2.77-1.6-5.31-4.37-5.67-2.29-.29-4.4,1.33-4.69,3.62-.12.92.13,1.83.7,2.57.57.73,1.39,1.2,2.31,1.32.77.1,1.54-.1,2.15-.58.62-.47,1.39-2.15.59-2.96-.49-.5-1.29-.52-1.79-.03-.5.49-.51,1.29-.03,1.79.09.09.2.15.31.21-.32.21-.69.31-1.07.26-.79-.1-1.46-.61-1.76-1.41-.12-.33-.15-.7-.1-1.05.22-1.55,1.65-2.63,3.21-2.44,2.05.27,3.5,2.15,3.23,4.19-.34,2.64-2.3,4.12-5.52,4.18-.01,0-.03,0-.04,0-.97-.31-1.91-.77-2.76-1.43-4.59-3.57-4.61-8.73-4.4-13.82.03-.06.15-4.99.15-4.99,0-9.86-3.96-12.01-7.65-14.5-.32-.22-.76-.11-.95.22Z"/>
    <path d="M74.43,51.7l-.68-.16v-.7c0-3.78,2.46-8.3,7.31-13.44,3.54-3.75,7.03-6.4,7.18-6.51l1.68-1.27-.28,2.09c-1.24,9.19-4.05,15.35-8.36,18.31-2.18,1.5-4.24,1.79-5.52,1.79-.79,0-1.28-.11-1.33-.12ZM82.34,38.62c-4.12,4.36-6.45,8.3-6.78,11.45.97.03,2.79-.14,4.77-1.52,4.22-2.94,6.24-9.3,7.22-14.83-1.34,1.13-3.28,2.86-5.21,4.9Z"/>
    <path d="M74.16,41.22c-3-5.66,3.22-14.91,3.49-15.3l1.08-1.58.5,1.84c1.53,5.64,1.39,9.93-.41,12.74-1.51,2.35-3.64,2.74-3.73,2.75l-.63.11-.3-.56ZM76.41,32.01c-.93,2.27-1.8,5.36-.99,7.71.52-.25,1.29-.75,1.92-1.74.93-1.45,1.73-4.2.68-9.28-.5.89-1.09,2.04-1.61,3.3Z"/>
    <path d="M61.37,28.71c0-1.76,1.44-3.2,3.2-3.2s3.2,1.44,3.2,3.2-1.44,3.2-3.2,3.2-3.2-1.44-3.2-3.2ZM62.54,28.71c0,1.12.91,2.03,2.03,2.03s2.03-.91,2.03-2.03c0-1.12-.91-2.03-2.03-2.03s-2.03.91-2.03,2.03Z"/>
    <path d="M63.34,35.35c0-1.76,1.44-3.2,3.2-3.2s3.2,1.44,3.2,3.2c0,1.76-1.44,3.2-3.2,3.2s-3.2-1.44-3.2-3.2ZM64.51,35.35c0,1.12.91,2.03,2.03,2.03s2.03-.91,2.03-2.03c0-1.12-.91-2.03-2.03-2.03s-2.03.91-2.03,2.03Z"/>
    <path d="M56.51,33.93c0-1.76,1.44-3.2,3.2-3.2s3.2,1.44,3.2,3.2c0,1.76-1.44,3.2-3.2,3.2-1.76,0-3.2-1.44-3.2-3.2ZM57.68,33.93c0,1.12.91,2.03,2.03,2.03s2.03-.91,2.03-2.03c0-1.12-.91-2.03-2.03-2.03s-2.03.91-2.03,2.03Z"/>
  </g>
</svg>